<svg xmlns="http://www.w3.org/2000/svg" viewBox="0 0 120.04 36.33"><defs><style>.a{fill:#d5e3e8;}</style></defs><path class="a" d="M31.41,36.33H20.7L9.28,20.3v16H0V2H13.29q7.92,0,11.86,2.42a8,8,0,0,1,4,7.3,8,8,0,0,1-2.7,6,11.58,11.58,0,0,1-7,2.93ZM9.28,16.64h1.4q5.64,0,7.44-1a3.52,3.52,0,0,0,1.81-3.39A3.77,3.77,0,0,0,18,8.68c-1.3-.71-3.73-1.06-7.31-1.06H9.28ZM35.65,3.89a3.42,3.42,0,0,1,1.46-2.74A5.39,5.39,0,0,1,40.58,0a5.56,5.56,0,0,1,3.51,1.14,3.38,3.38,0,0,1,1.47,2.75,3.43,3.43,0,0,1-1.47,2.77A5.56,5.56,0,0,1,40.58,7.8a5.3,5.3,0,0,1-3.47-1.17A3.44,3.44,0,0,1,35.65,3.89Zm.75,32.44v-23h8.42v23Zm18,0V18.56H50.37V13.34h4.06V5.7h8.45v7.64H67v5.22H62.88V36.33ZM71.75,3.89a3.42,3.42,0,0,1,1.46-2.74A5.39,5.39,0,0,1,76.68,0a5.56,5.56,0,0,1,3.51,1.14,3.38,3.38,0,0,1,1.47,2.75,3.43,3.43,0,0,1-1.47,2.77A5.56,5.56,0,0,1,76.68,7.8a5.3,5.3,0,0,1-3.47-1.17A3.44,3.44,0,0,1,71.75,3.89Zm.75,32.44v-23h8.42v23ZM89.49,0H98V23.51l10.79-10.17h10.15L107.17,23.51,120,36.33H109.6L98,24.14V36.33H89.49Z"/></svg>