<svg xmlns="http://www.w3.org/2000/svg" viewBox="0 0 172.23 201.79"><defs><style>.a{fill:#fed700;}.b{fill:#115174;}</style></defs><path class="a" d="M48.23,94h7.24q29.28,0,38.68-5.32t9.4-18.55q0-13.86-10.09-19.71t-38-5.84H48.23Zm115,107.83H107.56L48.23,114v87.8H0V13.86H69q41.14,0,61.64,13.29t20.49,40a44.64,44.64,0,0,1-14,33.11q-14,13.74-36.21,16Z"/><path class="a" d="M48.26,93.92H55.5q29.28,0,38.68-5.33T103.58,70q0-13.86-10.09-19.7t-38-5.84H48.26Zm115,107.82H107.59l-59.33-87.8v87.8H0V13.82h69q41.14,0,61.64,13.28t20.49,40a44.68,44.68,0,0,1-14,33.12q-14,13.73-36.21,16Z"/><path class="a" d="M48.29,93.87h7.24q29.28,0,38.68-5.33T103.61,70q0-13.87-10.09-19.71t-38-5.84H48.29Zm115,107.83H107.62L48.29,113.9v87.8H.06V13.77h69q41.14,0,61.64,13.29t20.49,40a44.65,44.65,0,0,1-14,33.12q-14,13.74-36.21,16Z"/><path class="a" d="M48.32,93.83h7.24q29.28,0,38.68-5.33T103.64,70q0-13.86-10.09-19.7t-38-5.85H48.32Zm115,107.82H107.65l-59.33-87.8v87.8H.09V13.73h69q41.14,0,61.64,13.28t20.49,40a44.68,44.68,0,0,1-14,33.12q-14,13.72-36.21,16Z"/><path class="a" d="M48.35,93.78h7.24q29.28,0,38.68-5.33t9.4-18.55q0-13.86-10.09-19.7t-38-5.84H48.35Zm115,107.83H107.68L48.35,113.8v87.81H.12V13.68h69q41.14,0,61.64,13.28t20.49,40a44.68,44.68,0,0,1-14,33.12q-14,13.74-36.21,16Z"/><path class="a" d="M48.38,93.73h7.24q29.28,0,38.68-5.32t9.4-18.55q0-13.87-10.09-19.71t-38-5.84H48.38Zm115,107.83H107.71l-59.33-87.8v87.8H.15V13.63h69q41.14,0,61.64,13.29t20.49,40a44.65,44.65,0,0,1-14,33.12q-14,13.74-36.21,16Z"/><path class="a" d="M48.41,93.69h7.24q29.28,0,38.68-5.33t9.4-18.55q0-13.86-10.09-19.7t-38-5.84H48.41Zm115,107.82H107.74l-59.33-87.8v87.8H.18V13.59h69q41.15,0,61.64,13.28t20.49,40a44.68,44.68,0,0,1-14,33.12q-14,13.72-36.21,16Z"/><path class="a" d="M48.44,93.64h7.24q29.28,0,38.68-5.33t9.4-18.55q0-13.86-10.09-19.7t-38-5.84H48.44Zm115,107.83H107.77l-59.33-87.8v87.8H.21V13.54h69q41.15,0,61.64,13.29t20.49,40a44.66,44.66,0,0,1-14,33.12q-14,13.74-36.21,16Z"/><path class="a" d="M48.47,93.59h7.24q29.28,0,38.68-5.32t9.4-18.55q0-13.86-10.09-19.71t-38-5.84H48.47Zm115,107.83H107.8l-59.33-87.8v87.8H.24V13.5h69q41.15,0,61.64,13.28t20.49,40a44.64,44.64,0,0,1-14,33.11q-14,13.74-36.21,16.05Z"/><path class="a" d="M48.5,93.55h7.24q29.28,0,38.68-5.33t9.4-18.55q0-13.86-10.09-19.7t-38-5.84H48.5Zm115,107.83H107.83L48.5,113.57v87.81H.27V13.45h69q41.15,0,61.64,13.28t20.49,40a44.68,44.68,0,0,1-14,33.12q-14,13.74-36.21,16Z"/><path class="a" d="M48.53,93.5h7.24q29.28,0,38.68-5.32t9.4-18.55q0-13.87-10.09-19.71t-38-5.84H48.53Zm115,107.83H107.86l-59.33-87.8v87.8H.3V13.4h69q41.15,0,61.64,13.29t20.49,40a44.65,44.65,0,0,1-14,33.12q-14,13.74-36.21,16Z"/><path class="a" d="M48.56,93.46H55.8q29.28,0,38.68-5.33t9.4-18.55q0-13.86-10.09-19.7T55.8,44H48.56Zm115,107.82H107.89l-59.33-87.8v87.8H.33V13.36h69q41.15,0,61.64,13.28t20.49,40a44.68,44.68,0,0,1-14,33.12q-14,13.73-36.21,16Z"/><path class="a" d="M48.59,93.41h7.24q29.28,0,38.68-5.33t9.4-18.55q0-13.86-10.09-19.7T55.83,44H48.59Zm115,107.83H107.92l-59.33-87.8v87.8H.36V13.31h69q41.15,0,61.64,13.29t20.49,40a44.66,44.66,0,0,1-14,33.12q-14,13.74-36.21,16Z"/><path class="a" d="M48.62,93.36h7.24q29.28,0,38.68-5.32t9.4-18.55q0-13.86-10.09-19.71t-38-5.84H48.62Zm115,107.83H108l-59.33-87.8v87.8H.39V13.27h69q41.15,0,61.64,13.28t20.49,40a44.64,44.64,0,0,1-14,33.11q-14,13.74-36.21,16Z"/><path class="a" d="M48.65,93.32h7.24q29.28,0,38.68-5.33T104,69.44q0-13.86-10.09-19.7t-38-5.84H48.65Zm115,107.82H108l-59.33-87.8v87.8H.42V13.22h69q41.15,0,61.64,13.28t20.49,40a44.68,44.68,0,0,1-14,33.12q-14,13.74-36.21,16Z"/><path class="a" d="M48.68,93.27h7.24Q85.2,93.27,94.6,88T104,69.4q0-13.88-10.09-19.71t-38-5.84H48.68Zm115,107.83H108L48.68,113.3v87.8H.45V13.17h69q41.15,0,61.64,13.29t20.49,40a44.65,44.65,0,0,1-14,33.12q-14,13.74-36.21,16Z"/><path class="a" d="M48.71,93.23H56q29.28,0,38.68-5.33T104,69.35q0-13.86-10.09-19.7T56,43.81H48.71Zm115,107.82H108l-59.33-87.8v87.8H.48V13.13h69q41.15,0,61.64,13.28t20.49,40a44.68,44.68,0,0,1-14,33.12q-14,13.73-36.21,16Z"/><path class="a" d="M48.74,93.18H56q29.28,0,38.68-5.33t9.4-18.55q0-13.86-10.09-19.7T56,43.76H48.74ZM163.69,201H108.07L48.74,113.2V201H.51V13.08h69q41.15,0,61.64,13.29t20.49,40a44.66,44.66,0,0,1-14,33.12q-14,13.74-36.21,16Z"/><path class="a" d="M48.77,93.13H56q29.28,0,38.68-5.32t9.4-18.55q0-13.86-10.09-19.71T56,43.71H48.77ZM163.72,201H108.1l-59.33-87.8V201H.54V13h69q41.15,0,61.64,13.29t20.49,40a44.64,44.64,0,0,1-14,33.11q-14,13.74-36.21,16Z"/><path class="a" d="M48.8,93.09H56q29.28,0,38.68-5.33t9.4-18.55q0-13.86-10.09-19.7T56,43.67H48.8Zm115,107.82H108.13L48.8,113.11v87.8H.57V13h69q41.15,0,61.64,13.28t20.5,40a44.69,44.69,0,0,1-14,33.12q-14,13.74-36.21,16Z"/><path class="a" d="M48.83,93h7.24q29.28,0,38.68-5.32t9.4-18.55q0-13.87-10.09-19.71t-38-5.84H48.83Zm115,107.83H108.16l-59.33-87.8v87.8H.6V12.94h69q41.15,0,61.64,13.29t20.5,40a44.66,44.66,0,0,1-14,33.12q-14,13.74-36.21,16Z"/><path class="a" d="M48.86,93H56.1q29.28,0,38.68-5.33t9.4-18.55q0-13.86-10.09-19.7t-38-5.84H48.86Zm115,107.82H108.19L48.86,113v87.8H.63V12.9h69q41.15,0,61.64,13.28t20.5,40a44.69,44.69,0,0,1-14,33.12q-14,13.72-36.21,16Z"/><path class="a" d="M48.89,93h7.24q29.28,0,38.68-5.33t9.4-18.55q0-13.86-10.09-19.7t-38-5.84H48.89Zm115,107.83H108.22L48.89,113v87.81H.66V12.85h69q41.15,0,61.64,13.29t20.5,40a44.69,44.69,0,0,1-14,33.12q-14,13.74-36.21,16.05Z"/><path class="a" d="M48.92,92.9h7.24q29.28,0,38.68-5.32T104.24,69q0-13.86-10.09-19.71t-38-5.84H48.92Zm115,107.83H108.25l-59.33-87.8v87.8H.69V12.8h69q41.15,0,61.64,13.29t20.5,40a44.65,44.65,0,0,1-14,33.11q-14,13.74-36.21,16Z"/><path class="a" d="M49,92.86h7.24q29.28,0,38.68-5.33T104.27,69q0-13.86-10.09-19.7t-38-5.84H49Zm115,107.82H108.28L49,112.88v87.8H.72V12.76h69q41.15,0,61.64,13.28t20.5,40a44.69,44.69,0,0,1-14,33.12q-14,13.74-36.21,16Z"/><path class="a" d="M49,92.81h7.24q29.28,0,38.68-5.33t9.4-18.54q0-13.87-10.09-19.71t-38-5.84H49Zm115,107.83H108.31L49,112.84v87.8H.75V12.71h69q41.14,0,61.64,13.29t20.5,40a44.66,44.66,0,0,1-14,33.12q-14,13.74-36.21,16.05Z"/><path class="a" d="M49,92.77h7.24q29.28,0,38.68-5.33t9.4-18.55q0-13.86-10.09-19.7t-38-5.84H49ZM164,200.59H108.34L49,112.79v87.8H.78V12.67h69Q111,12.67,131.45,26t20.5,40a44.69,44.69,0,0,1-14,33.12q-14,13.72-36.21,16Z"/><path class="a" d="M49,92.72h7.24q29.28,0,38.68-5.33t9.4-18.55q0-13.86-10.09-19.7t-38-5.84H49ZM164,200.55H108.37L49,112.74v87.81H.81V12.62h69q41.14,0,61.64,13.29t20.5,40A44.69,44.69,0,0,1,138,99q-14,13.74-36.21,16Z"/><path class="a" d="M49.07,92.67h7.25q29.26,0,38.67-5.32t9.4-18.55q0-13.86-10.09-19.71t-38-5.84H49.07ZM164,200.5H108.4L49.07,112.7v87.8H.84V12.57h69q41.14,0,61.64,13.29t20.5,40A44.65,44.65,0,0,1,138,99Q124,112.7,101.77,115Z"/><path class="a" d="M49.1,92.63h7.25q29.26,0,38.67-5.33t9.4-18.55q0-13.86-10.09-19.7t-38-5.84H49.1Zm115,107.82H108.43L49.1,112.65v87.8H.87V12.53h69q41.14,0,61.64,13.28t20.5,40a44.69,44.69,0,0,1-14,33.12q-14,13.74-36.21,16Z"/><path class="a" d="M49.13,92.58h7.25q29.26,0,38.67-5.33t9.4-18.54q0-13.87-10.09-19.71t-38-5.84H49.13Zm115,107.83H108.46l-59.33-87.8v87.8H.9V12.48h69q41.14,0,61.64,13.29t20.5,40a44.66,44.66,0,0,1-14,33.12q-14,13.74-36.21,16Z"/><path class="a" d="M49.16,92.54h7.25q29.27,0,38.67-5.33t9.4-18.55q0-13.86-10.09-19.7t-38-5.85H49.16Zm115,107.82H108.49l-59.33-87.8v87.8H.93V12.44H70q41.15,0,61.64,13.28t20.5,40a44.69,44.69,0,0,1-14,33.12q-14,13.73-36.21,16Z"/><path class="a" d="M49.19,92.49h7.25q29.27,0,38.67-5.33t9.4-18.55q0-13.86-10.09-19.7t-38-5.84H49.19Zm115,107.83H108.52L49.19,112.51v87.81H1V12.39H70q41.15,0,61.64,13.29t20.5,40a44.69,44.69,0,0,1-14,33.12q-14,13.74-36.21,16Z"/><path class="a" d="M49.22,92.44h7.25q29.27,0,38.67-5.32t9.4-18.55q0-13.86-10.09-19.71T56.47,43H49.22Zm115,107.83H108.55l-59.33-87.8v87.8H1V12.34H70q41.15,0,61.64,13.29t20.5,40a44.65,44.65,0,0,1-14,33.11q-14,13.74-36.21,16Z"/><path class="a" d="M49.25,92.4H56.5q29.27,0,38.67-5.33t9.4-18.55q0-13.86-10.09-19.7T56.5,43H49.25Zm115,107.82H108.58l-59.33-87.8v87.8H1V12.3h69q41.15,0,61.64,13.28t20.5,40a44.69,44.69,0,0,1-14,33.12q-14,13.73-36.21,16Z"/><path class="a" d="M49.28,92.35h7.25Q85.8,92.35,95.2,87t9.4-18.54q0-13.88-10.09-19.71t-38-5.84H49.28Zm115,107.83H108.61l-59.33-87.8v87.8H1.05V12.25h69q41.15,0,61.64,13.29t20.5,40a44.66,44.66,0,0,1-14,33.12q-14,13.74-36.21,16Z"/><path class="a" d="M49.31,92.31h7.25q29.26,0,38.67-5.33t9.4-18.55q0-13.86-10.09-19.7t-38-5.85H49.31Zm115,107.82H108.64l-59.33-87.8v87.8H1.08V12.21h69q41.15,0,61.64,13.28t20.5,40a44.69,44.69,0,0,1-14,33.12q-14,13.73-36.21,16Z"/><path class="a" d="M49.34,92.26h7.25q29.26,0,38.67-5.33t9.4-18.55q0-13.86-10.09-19.7t-38-5.84H49.34Zm115,107.83H108.67L49.34,112.28v87.81H1.11V12.16h69q41.13,0,61.63,13.28t20.5,40a44.69,44.69,0,0,1-14,33.12q-14,13.74-36.21,16Z"/><path class="a" d="M49.37,92.21h7.25q29.26,0,38.67-5.32t9.4-18.55q0-13.87-10.09-19.71t-38-5.84H49.37ZM164.33,200H108.7l-59.33-87.8V200H1.14V12.11h69q41.13,0,61.63,13.29t20.5,40a44.65,44.65,0,0,1-14,33.11q-14,13.74-36.21,16Z"/><path class="a" d="M49.4,92.17h7.25q29.26,0,38.67-5.33t9.4-18.55q0-13.86-10.09-19.7t-38-5.84H49.4ZM164.36,200H108.73L49.4,112.19V200H1.17V12.07h69q41.13,0,61.63,13.28t20.5,40a44.69,44.69,0,0,1-14,33.12q-14,13.73-36.21,16Z"/><path class="a" d="M49.43,92.12h7.25q29.26,0,38.67-5.33t9.4-18.54q0-13.87-10.09-19.71t-38-5.84H49.43ZM164.39,200H108.76l-59.33-87.8V200H1.2V12h69q41.13,0,61.63,13.29t20.5,40a44.67,44.67,0,0,1-14,33.12q-14,13.74-36.21,16Z"/><path class="a" d="M49.46,92.07h7.25q29.26,0,38.67-5.32t9.4-18.55q0-13.86-10.09-19.7t-38-5.85H49.46Zm115,107.83H108.79L49.46,112.1v87.8H1.23V12h69q41.13,0,61.63,13.28t20.5,40a44.65,44.65,0,0,1-14,33.11q-14,13.74-36.21,16Z"/><path class="a" d="M49.49,92h7.25Q86,92,95.41,86.7t9.4-18.55q0-13.86-10.09-19.7t-38-5.84H49.49Zm115,107.83H108.82L49.49,112.05v87.81H1.26V11.93h69q41.13,0,61.63,13.28t20.5,40a44.69,44.69,0,0,1-14,33.12q-14,13.74-36.21,16Z"/><path class="a" d="M49.52,92h7.25Q86,92,95.44,86.66t9.4-18.55q0-13.87-10.09-19.71t-38-5.84H49.52Zm115,107.83H108.85L49.52,112v87.8H1.29V11.88h69q41.13,0,61.63,13.29t20.5,40a44.66,44.66,0,0,1-14,33.12q-14,13.74-36.21,16Z"/><path class="a" d="M49.55,91.94H56.8q29.27,0,38.67-5.33t9.4-18.55q0-13.86-10.09-19.7t-38-5.84H49.55Zm115,107.82H108.88L49.55,112v87.8H1.32V11.84h69q41.13,0,61.63,13.28t20.5,40a44.69,44.69,0,0,1-14,33.12q-14,13.72-36.21,16Z"/><path class="a" d="M49.58,91.89h7.25q29.27,0,38.67-5.33T104.9,68q0-13.86-10.09-19.7t-38-5.84H49.58Zm115,107.83H108.91l-59.33-87.8v87.8H1.35V11.79h69q41.13,0,61.63,13.29t20.5,40a44.67,44.67,0,0,1-14,33.12q-14,13.74-36.21,16Z"/><path class="a" d="M49.61,91.84h7.25q29.27,0,38.67-5.32T104.93,68q0-13.86-10.09-19.71t-38-5.84H49.61Zm115,107.83H108.94l-59.33-87.8v87.8H1.38V11.75h69q41.13,0,61.63,13.28t20.5,40a44.65,44.65,0,0,1-14,33.11q-14,13.74-36.21,16.05Z"/><path class="a" d="M49.64,91.8h7.25q29.27,0,38.67-5.33T105,67.92q0-13.86-10.09-19.7t-38-5.84H49.64Zm115,107.82H109l-59.33-87.8v87.8H1.41V11.7h69q41.13,0,61.63,13.28t20.5,40a44.69,44.69,0,0,1-14,33.12q-14,13.74-36.21,16Z"/><path class="a" d="M49.67,91.75h7.25q29.27,0,38.67-5.32T105,67.88Q105,54,94.9,48.17t-38-5.84H49.67Zm115,107.83H109l-59.33-87.8v87.8H1.44V11.65h69q41.13,0,61.63,13.29t20.5,40a44.66,44.66,0,0,1-14,33.12q-14,13.74-36.21,16Z"/><path class="a" d="M49.7,91.71H57q29.26,0,38.67-5.33T105,67.83Q105,54,94.93,48.13T57,42.29H49.7Zm115,107.82H109L49.7,111.73v87.8H1.47V11.61h69q41.13,0,61.63,13.28t20.5,40a44.69,44.69,0,0,1-14,33.12q-14,13.73-36.21,16Z"/><path class="a" d="M49.73,91.66H57q29.26,0,38.67-5.33t9.4-18.55q0-13.86-10.09-19.7T57,42.24H49.73Zm115,107.83H109.06l-59.33-87.8v87.8H1.5V11.56h69q41.13,0,61.63,13.29t20.5,40a44.67,44.67,0,0,1-14,33.12q-14,13.74-36.21,16Z"/><path class="a" d="M49.76,91.61H57q29.26,0,38.67-5.32t9.4-18.55Q105.08,53.88,95,48T57,42.19H49.76Zm115,107.83H109.09l-59.33-87.8v87.8H1.53V11.51h69q41.13,0,61.63,13.29t20.5,40a44.65,44.65,0,0,1-14,33.11q-14,13.74-36.21,16Z"/><path class="a" d="M49.79,91.57H57q29.26,0,38.67-5.33t9.4-18.55Q105.11,53.83,95,48T57,42.15H49.79Zm115,107.82H109.12l-59.33-87.8v87.8H1.56V11.47h69q41.13,0,61.63,13.28t20.5,40a44.69,44.69,0,0,1-14,33.12q-14,13.74-36.21,16Z"/><path class="a" d="M49.82,91.52h7.25q29.26,0,38.67-5.32t9.4-18.55q0-13.88-10.09-19.71t-38-5.84H49.82Zm115,107.83H109.15l-59.33-87.8v87.8H1.59V11.42h69q41.13,0,61.63,13.29t20.5,40a44.66,44.66,0,0,1-14,33.12q-14,13.74-36.21,16Z"/><path class="a" d="M49.85,91.48H57.1q29.26,0,38.67-5.33t9.4-18.55q0-13.86-10.09-19.7t-38-5.84H49.85Zm115,107.82H109.18L49.85,111.5v87.8H1.62V11.38h69q41.13,0,61.63,13.28t20.5,40a44.69,44.69,0,0,1-14,33.12q-14,13.73-36.21,16Z"/><path class="a" d="M49.88,91.43h7.25q29.26,0,38.67-5.33t9.4-18.55q0-13.86-10.09-19.7T57.13,42H49.88Zm115,107.83H109.21L49.88,111.45v87.81H1.65V11.33h69q41.13,0,61.63,13.29t20.5,40a44.69,44.69,0,0,1-14,33.12q-14,13.74-36.21,16Z"/><path class="a" d="M49.91,91.38h7.25q29.27,0,38.67-5.32t9.4-18.55q0-13.86-10.09-19.71T57.16,42H49.91Zm115,107.83H109.24l-59.33-87.8v87.8H1.68V11.28h69q41.13,0,61.63,13.29t20.5,40a44.65,44.65,0,0,1-14,33.11q-14,13.74-36.21,16Z"/><path class="a" d="M49.94,91.34h7.25q29.27,0,38.67-5.33t9.4-18.55q0-13.86-10.09-19.7t-38-5.84H49.94Zm115,107.82H109.27l-59.33-87.8v87.8H1.71V11.24h69q41.13,0,61.63,13.28t20.5,40a44.69,44.69,0,0,1-14,33.12q-14,13.74-36.21,16Z"/><path class="a" d="M50,91.29h7.25q29.27,0,38.67-5.33t9.4-18.54q0-13.87-10.09-19.71t-38-5.84H50Zm115,107.83H109.3L50,111.32v87.8H1.74V11.19h69q41.13,0,61.63,13.29t20.5,40a44.66,44.66,0,0,1-14,33.12q-14,13.74-36.21,16Z"/><path class="a" d="M50,91.25h7.25q29.27,0,38.67-5.33t9.4-18.55q0-13.86-10.09-19.7t-38-5.84H50ZM165,199.07H109.33L50,111.27v87.8H1.77V11.15h69q41.13,0,61.63,13.28t20.5,40a44.69,44.69,0,0,1-14,33.12q-14,13.72-36.21,16Z"/><path class="a" d="M50,91.2h7.25q29.27,0,38.67-5.33t9.4-18.55q0-13.86-10.09-19.7t-38-5.84H50ZM165,199H109.36L50,111.22V199H1.8V11.1h69q41.13,0,61.63,13.29t20.5,40a44.69,44.69,0,0,1-14,33.12q-14,13.74-36.21,16Z"/><path class="a" d="M50.06,91.15h7.25q29.26,0,38.67-5.32t9.4-18.55q0-13.86-10.09-19.71t-38-5.84H50.06ZM165,199H109.39l-59.33-87.8V199H1.83V11.05h69q41.13,0,61.63,13.29t20.5,40a44.65,44.65,0,0,1-14,33.11q-14,13.74-36.21,16Z"/><path class="a" d="M50.09,91.11h7.25q29.26,0,38.67-5.33t9.4-18.55q0-13.86-10.09-19.7t-38-5.84H50.09Zm115,107.82H109.42l-59.33-87.8v87.8H1.86V11h69Q112,11,132.53,24.29t20.5,40A44.69,44.69,0,0,1,139,97.4q-14,13.74-36.21,16Z"/><path class="a" d="M50.12,91.06h7.25q29.26,0,38.67-5.33t9.4-18.54q0-13.87-10.09-19.71t-38-5.84H50.12Zm115,107.83H109.45l-59.33-87.8v87.8H1.89V11h69q41.14,0,61.63,13.29t20.5,40a44.66,44.66,0,0,1-14,33.12q-14,13.74-36.21,16.05Z"/><path class="a" d="M50.15,91H57.4q29.26,0,38.67-5.33t9.4-18.55q0-13.86-10.09-19.7t-38-5.85H50.15Zm115,107.82H109.48L50.15,111v87.8H1.92V10.92H71q41.15,0,61.63,13.28t20.5,40a44.69,44.69,0,0,1-14,33.12q-14,13.72-36.21,16Z"/><path class="a" d="M50.18,91h7.25Q86.7,91,96.1,85.64t9.4-18.55q0-13.86-10.09-19.7t-38-5.84H50.18Zm115,107.83H109.51L50.18,111V198.8H2V10.87H71q41.15,0,61.63,13.29t20.5,40a44.69,44.69,0,0,1-14,33.12q-14,13.74-36.21,16Z"/><path class="a" d="M50.21,90.92h7.25q29.26,0,38.67-5.32t9.4-18.55q0-13.86-10.09-19.71t-38-5.84H50.21Zm115,107.83H109.54L50.21,111v87.8H2V10.82H71q41.15,0,61.63,13.29t20.5,40a44.65,44.65,0,0,1-14,33.11q-14,13.74-36.21,16.05Z"/><path class="a" d="M50.24,90.88h7.25q29.26,0,38.67-5.33T105.56,67q0-13.86-10.09-19.7t-38-5.84H50.24Zm115,107.82H109.57L50.24,110.9v87.8H2V10.78h69q41.15,0,61.63,13.28t20.5,40a44.69,44.69,0,0,1-14,33.12q-14,13.72-36.21,16Z"/><path class="a" d="M50.27,90.83h7.25q29.26,0,38.67-5.33T105.59,67q0-13.87-10.09-19.71t-38-5.84H50.27Zm115,107.83H109.6l-59.33-87.8v87.8H2V10.73h69q41.15,0,61.63,13.29t20.5,40a44.66,44.66,0,0,1-14,33.12q-14,13.74-36.21,16Z"/><path class="a" d="M50.3,90.79h7.25q29.27,0,38.67-5.33t9.4-18.55q0-13.86-10.09-19.7t-38-5.85H50.3Zm115,107.82H109.63L50.3,110.81v87.8H2.07V10.69h69q41.15,0,61.63,13.28t20.5,40a44.72,44.72,0,0,1-14,33.12q-14,13.73-36.22,16Z"/><path class="a" d="M50.33,90.74h7.25q29.27,0,38.67-5.33t9.4-18.55q0-13.86-10.09-19.7t-38-5.84H50.33Zm115,107.83H109.66L50.33,110.76v87.81H2.1V10.64h69q41.15,0,61.63,13.29t20.5,40a44.72,44.72,0,0,1-14,33.12q-14,13.74-36.22,16Z"/><path class="a" d="M50.36,90.69h7.25q29.27,0,38.67-5.32t9.4-18.55q0-13.86-10.09-19.71t-38-5.84H50.36Zm115,107.83H109.69l-59.33-87.8v87.8H2.13V10.59h69q41.15,0,61.63,13.29t20.5,40a44.68,44.68,0,0,1-14,33.11q-14,13.74-36.22,16Z"/><path class="a" d="M50.4,90.65h7.24q29.27,0,38.67-5.33t9.4-18.55q0-13.86-10.09-19.7t-38-5.84H50.4Zm115,107.82H109.72L50.4,110.67v87.8H2.16V10.55h69q41.15,0,61.63,13.28t20.5,40a44.72,44.72,0,0,1-14,33.12q-14,13.73-36.22,16Z"/><path class="a" d="M50.43,90.6h7.24q29.27,0,38.67-5.33t9.4-18.54q0-13.88-10.09-19.71t-38-5.84H50.43Zm115,107.83H109.75l-59.32-87.8v87.8H2.19V10.5h69q41.15,0,61.63,13.29t20.5,40a44.7,44.7,0,0,1-14,33.12q-14,13.74-36.22,16Z"/><path class="a" d="M50.46,90.56H57.7q29.26,0,38.67-5.33t9.4-18.55q0-13.86-10.09-19.7t-38-5.85H50.46Zm115,107.82H109.78l-59.32-87.8v87.8H2.22V10.46h69q41.15,0,61.63,13.28t20.5,40a44.72,44.72,0,0,1-14,33.12q-14,13.73-36.22,16Z"/><path class="a" d="M50.49,90.51h7.24q29.26,0,38.67-5.33t9.4-18.55q0-13.86-10.09-19.7t-38-5.84H50.49Zm115,107.83H109.81L50.49,110.53v87.81H2.25V10.41h69q41.15,0,61.63,13.28t20.5,40a44.72,44.72,0,0,1-14,33.12q-14,13.74-36.22,16Z"/><path class="a" d="M50.52,90.46h7.24q29.26,0,38.67-5.32t9.4-18.55q0-13.87-10.09-19.71T57.76,41H50.52Zm115,107.83H109.84l-59.32-87.8v87.8H2.28V10.36h69q41.15,0,61.63,13.29t20.5,40a44.69,44.69,0,0,1-14,33.12q-14,13.74-36.22,16Z"/><path class="a" d="M50.55,90.42h7.24q29.26,0,38.67-5.33t9.4-18.55q0-13.86-10.09-19.7T57.79,41H50.55Zm115,107.82H109.87l-59.32-87.8v87.8H2.31V10.32h69q41.15,0,61.63,13.28t20.5,40a44.72,44.72,0,0,1-14,33.12q-14,13.73-36.22,16Z"/><path class="a" d="M50.58,90.37h7.24q29.26,0,38.67-5.33t9.4-18.55q0-13.86-10.09-19.7T57.82,41H50.58Zm115,107.83H109.9L50.58,110.4v87.8H2.34V10.27h69q41.15,0,61.63,13.29t20.5,40a44.7,44.7,0,0,1-14,33.12q-14,13.74-36.22,16Z"/><path class="a" d="M50.61,90.32h7.24q29.26,0,38.67-5.32t9.4-18.55q0-13.86-10.09-19.71t-38-5.84H50.61Zm115,107.83H109.93l-59.32-87.8v87.8H2.37V10.23h69q41.15,0,61.63,13.28t20.5,40a44.68,44.68,0,0,1-14,33.11q-14,13.74-36.22,16Z"/><path class="a" d="M50.64,90.28h7.24q29.26,0,38.67-5.33T106,66.4q0-13.86-10.09-19.7t-38-5.84H50.64Zm115,107.83H110L50.64,110.3v87.81H2.4V10.18h69q41.15,0,61.63,13.28t20.5,40a44.72,44.72,0,0,1-14,33.12q-14,13.74-36.22,16Z"/><path class="a" d="M50.67,90.23h7.24q29.27,0,38.67-5.32T106,66.36q0-13.87-10.09-19.71t-38-5.84H50.67Zm115,107.83H110l-59.32-87.8v87.8H2.43V10.13h69q41.15,0,61.63,13.29t20.5,40a44.69,44.69,0,0,1-14,33.12q-14,13.74-36.22,16Z"/><path class="a" d="M50.7,90.19h7.24q29.27,0,38.67-5.33T106,66.31q0-13.86-10.09-19.7t-38-5.84H50.7ZM165.65,198H110L50.7,110.21V198H2.46V10.09h69q41.15,0,61.63,13.28t20.5,40a44.72,44.72,0,0,1-14,33.12q-14,13.72-36.22,16Z"/><path class="a" d="M50.73,90.14H58q29.27,0,38.67-5.33T106,66.26Q106,52.4,96,46.56T58,40.72H50.73ZM165.68,198H110.05l-59.32-87.8V198H2.49V10h69q41.14,0,61.63,13.29t20.5,40a44.7,44.7,0,0,1-14,33.12q-14,13.74-36.22,16Z"/><path class="a" d="M50.76,90.09H58q29.27,0,38.67-5.32t9.4-18.55q0-13.86-10.09-19.71T58,40.67H50.76Zm115,107.83H110.08l-59.32-87.8v87.8H2.52V10h69q41.14,0,61.63,13.29t20.5,40a44.68,44.68,0,0,1-14,33.11q-14,13.74-36.22,16.05Z"/><path class="a" d="M50.79,90.05H58q29.27,0,38.67-5.33t9.4-18.55q0-13.86-10.09-19.7T58,40.63H50.79Zm115,107.82H110.11l-59.32-87.8v87.8H2.55V10h69q41.14,0,61.63,13.28t20.5,40a44.72,44.72,0,0,1-14,33.12q-14,13.74-36.22,16Z"/><path class="a" d="M50.82,90h7.24q29.26,0,38.67-5.32t9.4-18.55q0-13.87-10.09-19.71t-38-5.84H50.82Zm115,107.83H110.14L50.82,110v87.8H2.58V9.9h69q41.14,0,61.63,13.29t20.5,40a44.69,44.69,0,0,1-14,33.12q-14,13.74-36.22,16Z"/><path class="a" d="M50.85,90h7.24q29.26,0,38.67-5.33t9.4-18.55q0-13.86-10.09-19.7t-38-5.84H50.85Zm115,107.82H110.17L50.85,110v87.8H2.61V9.86h69q41.14,0,61.63,13.28t20.5,40a44.72,44.72,0,0,1-14,33.12q-14,13.73-36.22,16Z"/><path class="a" d="M50.88,89.91h7.24q29.26,0,38.67-5.33T106.19,66q0-13.86-10.09-19.7t-38-5.84H50.88Zm115,107.83H110.2L50.88,109.93v87.81H2.64V9.81h69q41.14,0,61.63,13.29t20.5,40a44.72,44.72,0,0,1-14,33.12q-14,13.74-36.21,16Z"/><path class="a" d="M50.91,89.86h7.24q29.26,0,38.67-5.32T106.22,66q0-13.86-10.09-19.71t-38-5.84H50.91Zm115,107.83H110.23l-59.32-87.8v87.8H2.67V9.76h69q41.15,0,61.63,13.29t20.5,40a44.68,44.68,0,0,1-14,33.11q-14,13.74-36.21,16Z"/><path class="a" d="M50.94,89.82h7.24q29.26,0,38.67-5.33t9.4-18.55q0-13.86-10.09-19.7t-38-5.84H50.94Zm115,107.82H110.26l-59.32-87.8v87.8H2.7V9.72h69q41.15,0,61.63,13.28t20.5,40a44.72,44.72,0,0,1-14,33.12q-14,13.74-36.21,16Z"/><path class="a" d="M51,89.77h7.24q29.26,0,38.67-5.33t9.4-18.54q0-13.88-10.09-19.71t-38-5.84H51Zm115,107.83H110.29L51,109.8v87.8H2.73V9.67h69q41.15,0,61.63,13.29t20.5,40a44.69,44.69,0,0,1-14,33.12q-14,13.74-36.21,16Z"/><path class="a" d="M51,89.73h7.24q29.26,0,38.67-5.33t9.4-18.55q0-13.86-10.09-19.7t-38-5.84H51ZM166,197.55H110.32L51,109.75v87.8H2.76V9.63h69q41.15,0,61.63,13.28t20.5,40a44.72,44.72,0,0,1-14,33.12q-14,13.73-36.21,16Z"/><path class="a" d="M51,89.68h7.24q29.26,0,38.67-5.33t9.4-18.55q0-13.86-10.09-19.7t-38-5.84H51ZM166,197.51H110.35L51,109.7v87.81H2.79V9.58h69q41.15,0,61.63,13.29t20.5,40a44.72,44.72,0,0,1-14,33.12q-14,13.74-36.21,16Z"/><path class="a" d="M51.06,89.63H58.3q29.27,0,38.68-5.32t9.39-18.55q0-13.86-10.09-19.71t-38-5.84H51.06ZM166,197.46H110.38l-59.32-87.8v87.8H2.82V9.53h69q41.15,0,61.63,13.29t20.5,40a44.68,44.68,0,0,1-14,33.11q-14,13.74-36.21,16Z"/><path class="a" d="M51.09,89.59h7.24q29.27,0,38.68-5.33t9.39-18.55q0-13.86-10.09-19.7t-38-5.84H51.09ZM166,197.41H110.41l-59.32-87.8v87.8H2.85V9.49h69q41.15,0,61.63,13.28t20.5,40a44.72,44.72,0,0,1-14,33.12q-14,13.74-36.21,16Z"/><path class="a" d="M51.12,89.54h7.24q29.27,0,38.68-5.33t9.39-18.54q0-13.87-10.09-19.71t-38-5.84H51.12Zm115,107.83H110.44l-59.32-87.8v87.8H2.88V9.44h69q41.15,0,61.63,13.29t20.5,40a44.69,44.69,0,0,1-14,33.12q-14,13.74-36.21,16Z"/><path class="a" d="M51.15,89.5h7.24q29.28,0,38.68-5.33t9.39-18.55q0-13.86-10.09-19.7t-38-5.84H51.15Zm115,107.82H110.47l-59.32-87.8v87.8H2.91V9.4H72q41.15,0,61.63,13.28t20.5,40a44.72,44.72,0,0,1-14,33.12q-14,13.72-36.21,16Z"/><path class="a" d="M51.18,89.45h7.24q29.28,0,38.68-5.33t9.39-18.55q0-13.86-10.09-19.7T58.42,40H51.18Zm115,107.83H110.5L51.18,109.47v87.81H2.94V9.35H72q41.15,0,61.63,13.29t20.5,40a44.72,44.72,0,0,1-14,33.12q-14,13.74-36.21,16Z"/><path class="a" d="M51.21,89.4h7.24q29.28,0,38.68-5.32t9.39-18.55q0-13.86-10.09-19.71T58.45,40H51.21Zm115,107.83H110.53l-59.32-87.8v87.8H3V9.3H72q41.15,0,61.63,13.29t20.5,40a44.68,44.68,0,0,1-14,33.11q-14,13.74-36.21,16Z"/><path class="a" d="M51.24,89.36h7.24q29.28,0,38.68-5.33t9.39-18.55q0-13.86-10.09-19.7t-38-5.84H51.24Zm115,107.82H110.56l-59.32-87.8v87.8H3V9.26H72q41.15,0,61.63,13.28t20.5,40a44.72,44.72,0,0,1-14,33.12q-14,13.74-36.21,16Z"/><path class="a" d="M51.27,89.31h7.24q29.28,0,38.68-5.33t9.39-18.54q0-13.87-10.09-19.71t-38-5.84H51.27Zm115,107.83H110.59l-59.32-87.8v87.8H3V9.21h69q41.15,0,61.63,13.29t20.5,40a44.69,44.69,0,0,1-14,33.12q-14,13.74-36.21,16.05Z"/><path class="a" d="M51.3,89.27h7.24q29.28,0,38.68-5.33t9.39-18.55q0-13.86-10.09-19.7t-38-5.85H51.3Zm115,107.82H110.62L51.3,109.29v87.8H3.07V9.17h69q41.15,0,61.63,13.28t20.5,40a44.72,44.72,0,0,1-14,33.12q-14,13.72-36.21,16Z"/><path class="a" d="M51.33,89.22h7.24q29.28,0,38.68-5.33t9.39-18.55q0-13.86-10.09-19.7t-38-5.84H51.33Zm115,107.83H110.65L51.33,109.24v87.81H3.1V9.12h69q41.15,0,61.64,13.29t20.49,40a44.72,44.72,0,0,1-14,33.12q-14,13.74-36.21,16Z"/><path class="a" d="M51.36,89.17H58.6q29.28,0,38.68-5.32t9.39-18.55q0-13.86-10.09-19.71t-38-5.84H51.36ZM166.31,197H110.68L51.36,109.2V197H3.13V9.07h69q41.15,0,61.64,13.29t20.49,40a44.68,44.68,0,0,1-14,33.11q-14,13.74-36.21,16.05Z"/><path class="a" d="M51.39,89.13h7.24q29.28,0,38.68-5.33t9.4-18.55q0-13.86-10.1-19.7t-38-5.84H51.39ZM166.34,197H110.71l-59.32-87.8V197H3.16V9h69q41.15,0,61.64,13.28t20.49,40a44.72,44.72,0,0,1-14,33.12q-14,13.72-36.21,16Z"/><path class="a" d="M51.42,89.08h7.24q29.28,0,38.68-5.33t9.4-18.54q0-13.87-10.1-19.71t-38-5.84H51.42Zm115,107.83H110.74l-59.32-87.8v87.8H3.19V9h69q41.15,0,61.64,13.29t20.49,40a44.7,44.7,0,0,1-14,33.12q-14,13.74-36.21,16Z"/><path class="a" d="M51.45,89h7.24Q88,89,97.37,83.71t9.4-18.55q0-13.86-10.1-19.7t-38-5.85H51.45Zm115,107.82H110.77l-59.32-87.8v87.8H3.22V8.94h69q41.15,0,61.64,13.28t20.49,40a44.72,44.72,0,0,1-14,33.12q-14,13.73-36.21,16Z"/><path class="a" d="M51.48,89h7.24Q88,89,97.4,83.66t9.4-18.55q0-13.86-10.1-19.7t-38-5.84H51.48Zm115,107.83H110.8L51.48,109v87.81H3.25V8.89h69q41.14,0,61.64,13.28t20.49,40a44.72,44.72,0,0,1-14,33.12q-14,13.74-36.21,16Z"/><path class="a" d="M51.51,88.94h7.24q29.28,0,38.68-5.32t9.4-18.55q0-13.87-10.1-19.71t-38-5.84H51.51Zm115,107.83H110.83L51.51,109v87.8H3.28V8.84h69q41.14,0,61.64,13.29t20.49,40a44.69,44.69,0,0,1-14,33.12q-14,13.74-36.21,16Z"/><path class="a" d="M51.54,88.9h7.24q29.28,0,38.68-5.33T106.86,65q0-13.86-10.1-19.7t-38-5.84H51.54Zm115,107.82H110.86l-59.32-87.8v87.8H3.31V8.8h69q41.14,0,61.64,13.28t20.49,40a44.72,44.72,0,0,1-14,33.12q-14,13.73-36.21,16Z"/><path class="a" d="M51.57,88.85h7.24q29.28,0,38.68-5.33T106.89,65q0-13.86-10.1-19.7t-38-5.84H51.57Zm115,107.83H110.89l-59.32-87.8v87.8H3.34V8.75h69Q113.51,8.75,134,22T154.5,62a44.7,44.7,0,0,1-14,33.12q-14,13.74-36.21,16Z"/><path class="a" d="M51.6,88.8h7.24q29.28,0,38.68-5.32t9.4-18.55q0-13.86-10.1-19.7t-38-5.85H51.6Zm115,107.83H110.92L51.6,108.83v87.8H3.37V8.71h69Q113.54,8.71,134,22t20.49,40a44.68,44.68,0,0,1-14,33.11q-14,13.74-36.21,16Z"/><path class="a" d="M51.63,88.76h7.24q29.28,0,38.68-5.33T107,64.88q0-13.86-10.1-19.7t-38-5.84H51.63Zm115,107.83H111L51.63,108.78v87.81H3.4V8.66h69q41.14,0,61.64,13.28t20.49,40a44.72,44.72,0,0,1-14,33.12q-14,13.74-36.21,16Z"/><path class="a" d="M51.66,88.71H58.9q29.28,0,38.68-5.32T107,64.84Q107,51,96.88,45.13t-38-5.84H51.66Zm115,107.83H111l-59.32-87.8v87.8H3.43V8.61h69q41.15,0,61.64,13.29t20.49,40a44.69,44.69,0,0,1-14,33.12q-14,13.74-36.21,16Z"/><path class="a" d="M51.69,88.67h7.24q29.28,0,38.68-5.33T107,64.79q0-13.86-10.1-19.7t-38-5.84H51.69Zm115,107.82H111l-59.32-87.8v87.8H3.46V8.57h69q41.15,0,61.64,13.28t20.49,40A44.72,44.72,0,0,1,140.6,95q-14,13.73-36.21,16Z"/><path class="a" d="M51.72,88.62H59q29.28,0,38.68-5.33T107,64.74q0-13.86-10.1-19.7T59,39.2H51.72Zm115,107.83H111l-59.32-87.8v87.8H3.49V8.52h69q41.15,0,61.64,13.29t20.49,40a44.7,44.7,0,0,1-14,33.12q-14,13.74-36.21,16Z"/><path class="a" d="M51.75,88.57H59q29.28,0,38.68-5.32t9.4-18.55Q107.07,50.84,97,45T59,39.15H51.75Zm115,107.83H111.07L51.75,108.6v87.8H3.52V8.47h69q41.15,0,61.64,13.29t20.49,40a44.68,44.68,0,0,1-14,33.11q-14,13.74-36.21,16Z"/><path class="a" d="M51.78,88.53H59q29.28,0,38.68-5.33t9.4-18.55Q107.1,50.79,97,45T59,39.11H51.78Zm115,107.82H111.1l-59.32-87.8v87.8H3.55V8.43h69q41.15,0,61.64,13.28t20.49,40a44.72,44.72,0,0,1-14,33.12q-14,13.74-36.21,16Z"/><path class="a" d="M51.81,88.48h7.24q29.28,0,38.68-5.32t9.4-18.55q0-13.87-10.1-19.71t-38-5.84H51.81Zm115,107.83H111.13l-59.32-87.8v87.8H3.58V8.38h69q41.15,0,61.64,13.29t20.49,40a44.69,44.69,0,0,1-14,33.12q-14,13.74-36.21,16Z"/><path class="a" d="M51.84,88.44h7.24q29.28,0,38.68-5.33t9.4-18.55q0-13.86-10.1-19.7T59.08,39H51.84Zm115,107.82H111.16l-59.32-87.8v87.8H3.61V8.34h69q41.15,0,61.64,13.28t20.49,40a44.72,44.72,0,0,1-14,33.12q-14,13.72-36.21,16Z"/><path class="a" d="M51.87,88.39h7.24q29.28,0,38.68-5.33t9.4-18.55q0-13.86-10.1-19.7T59.11,39H51.87Zm115,107.83H111.19l-59.32-87.8v87.8H3.64V8.29h69q41.15,0,61.64,13.29t20.49,40a44.72,44.72,0,0,1-14,33.12q-14,13.74-36.21,16Z"/><path class="a" d="M51.9,88.34h7.24q29.28,0,38.68-5.32t9.4-18.55q0-13.86-10.1-19.71t-38-5.84H51.9Zm115,107.83H111.22L51.9,108.37v87.8H3.67V8.24h69q41.15,0,61.64,13.29t20.49,40a44.68,44.68,0,0,1-14,33.11q-14,13.74-36.21,16.05Z"/><path class="a" d="M51.93,88.3h7.24q29.28,0,38.68-5.33t9.4-18.55q0-13.86-10.1-19.7t-38-5.84H51.93Zm115,107.82H111.25l-59.32-87.8v87.8H3.7V8.2h69q41.15,0,61.64,13.28t20.49,40a44.72,44.72,0,0,1-14,33.12q-14,13.74-36.21,16Z"/><path class="a" d="M52,88.25H59.2q29.28,0,38.68-5.33t9.4-18.54q0-13.87-10.1-19.71t-38-5.84H52Zm115,107.83H111.28L52,108.28v87.8H3.73V8.15h69q41.15,0,61.64,13.29t20.49,40a44.69,44.69,0,0,1-14,33.12q-14,13.74-36.21,16Z"/><path class="a" d="M52,88.21h7.24q29.28,0,38.68-5.33t9.4-18.55q0-13.86-10.1-19.7t-38-5.84H52ZM166.94,196H111.31L52,108.23V196H3.76V8.11h69q41.15,0,61.64,13.28t20.49,40a44.72,44.72,0,0,1-14,33.12q-14,13.73-36.21,16Z"/><path class="a" d="M52,88.16h7.24q29.28,0,38.68-5.33t9.4-18.55q0-13.86-10.1-19.7t-38-5.84H52ZM167,196H111.34L52,108.18V196H3.79V8.06h69q41.15,0,61.64,13.29t20.49,40a44.72,44.72,0,0,1-14,33.12q-14,13.74-36.21,16Z"/><path class="a" d="M52.05,88.11h7.24q29.28,0,38.68-5.32t9.4-18.55q0-13.86-10.1-19.71t-38-5.84H52.05ZM167,195.94H111.37l-59.32-87.8v87.8H3.82V8h69Q114,8,134.49,21.3t20.49,40A44.68,44.68,0,0,1,141,94.4q-14,13.74-36.21,16Z"/><path class="a" d="M52.08,88.07h7.24q29.28,0,38.68-5.33t9.4-18.55q0-13.86-10.1-19.7t-38-5.84H52.08ZM167,195.89H111.4l-59.32-87.8v87.8H3.85V8h69Q114,8,134.52,21.25t20.49,40a44.72,44.72,0,0,1-14,33.12q-14,13.74-36.21,16Z"/><path class="a" d="M52.11,88h7.24Q88.63,88,98,82.69t9.4-18.54q0-13.88-10.1-19.71t-38-5.84H52.11Zm115,107.83H111.43l-59.32-87.8v87.8H3.88V7.92h69q41.15,0,61.64,13.29t20.49,40a44.69,44.69,0,0,1-14,33.12q-14,13.74-36.21,16Z"/><path class="a" d="M52.14,88h7.24q29.28,0,38.68-5.33t9.4-18.55q0-13.86-10.1-19.7t-38-5.84H52.14Zm115,107.82H111.46L52.14,108v87.8H3.91V7.88h69q41.15,0,61.64,13.28t20.49,40a44.72,44.72,0,0,1-14,33.12q-14,13.73-36.21,16Z"/><path class="a" d="M52.17,87.93h7.24q29.28,0,38.68-5.33t9.4-18.55q0-13.86-10.1-19.7t-38-5.84H52.17Zm115,107.83H111.49L52.17,108v87.81H3.94V7.83H73q41.15,0,61.64,13.29t20.49,40a44.72,44.72,0,0,1-14,33.12q-14,13.74-36.21,16Z"/><path class="a" d="M52.2,87.88h7.24q29.28,0,38.68-5.32T107.52,64q0-13.86-10.1-19.71t-38-5.84H52.2Zm115,107.83H111.52L52.2,107.91v87.8H4V7.78H73q41.15,0,61.64,13.29t20.49,40a44.68,44.68,0,0,1-14,33.11q-14,13.74-36.21,16Z"/><path class="a" d="M52.23,87.84h7.24q29.28,0,38.68-5.33T107.55,64q0-13.86-10.1-19.7t-38-5.84H52.23Zm115,107.82H111.55l-59.32-87.8v87.8H4V7.74H73q41.14,0,61.64,13.28t20.49,40a44.72,44.72,0,0,1-14,33.12q-14,13.74-36.21,16Z"/><path class="a" d="M52.26,87.79H59.5q29.28,0,38.68-5.33t9.4-18.54q0-13.87-10.1-19.71t-38-5.84H52.26Zm115,107.83H111.58l-59.32-87.8v87.8H4V7.69h69Q114.2,7.69,134.7,21t20.49,40a44.69,44.69,0,0,1-14,33.12q-14,13.74-36.21,16Z"/><path class="a" d="M52.29,87.75h7.24q29.28,0,38.68-5.33t9.4-18.55q0-13.86-10.1-19.7t-38-5.85H52.29Zm115,107.82H111.61l-59.32-87.8v87.8H4.06V7.65h69q41.14,0,61.64,13.28t20.49,40A44.72,44.72,0,0,1,141.2,94q-14,13.72-36.21,16Z"/><path class="a" d="M52.32,87.7h7.24q29.28,0,38.68-5.33t9.4-18.55q0-13.86-10.1-19.7t-38-5.84H52.32Zm115,107.83H111.64L52.32,107.72v87.81H4.09V7.6h69q41.14,0,61.64,13.29t20.49,40a44.68,44.68,0,0,1-14,33.12q-14,13.74-36.21,16Z"/><path class="a" d="M52.35,87.65h7.24q29.28,0,38.68-5.32t9.4-18.55q0-13.86-10.1-19.71t-38-5.84H52.35Zm115,107.83H111.67l-59.32-87.8v87.8H4.12V7.55h69q41.14,0,61.64,13.29t20.49,40a44.64,44.64,0,0,1-14,33.11q-14,13.74-36.21,16Z"/><path class="a" d="M52.38,87.61h7.24q29.28,0,38.68-5.33t9.4-18.55q0-13.86-10.1-19.7t-38-5.84H52.38Zm115,107.82H111.7l-59.32-87.8v87.8H4.15V7.51h69q41.14,0,61.64,13.28t20.49,40a44.68,44.68,0,0,1-14,33.12q-14,13.72-36.21,16Z"/><path class="a" d="M52.41,87.56h7.24q29.28,0,38.68-5.33t9.4-18.54q0-13.87-10.1-19.71t-38-5.84H52.41Zm115,107.83H111.73l-59.32-87.8v87.8H4.18V7.46h69q41.15,0,61.64,13.29t20.49,40a44.66,44.66,0,0,1-14,33.12q-14,13.74-36.21,16.05Z"/><path class="a" d="M52.44,87.52h7.24q29.28,0,38.68-5.33t9.4-18.55q0-13.86-10.1-19.7t-38-5.85H52.44Zm115,107.82H111.76l-59.32-87.8v87.8H4.21V7.42h69q41.15,0,61.64,13.28t20.49,40a44.68,44.68,0,0,1-14,33.12q-14,13.72-36.21,16Z"/><path class="a" d="M52.47,87.47h7.24q29.28,0,38.68-5.33t9.4-18.55q0-13.86-10.1-19.7t-38-5.84H52.47Zm115,107.83H111.79L52.47,107.49V195.3H4.24V7.37h69q41.15,0,61.64,13.29t20.49,40a44.68,44.68,0,0,1-14,33.12q-14,13.74-36.21,16Z"/><path class="a" d="M52.5,87.42h7.24q29.28,0,38.68-5.32t9.4-18.55q0-13.87-10.1-19.71T59.74,38H52.5Zm115,107.83H111.82L52.5,107.45v87.8H4.27V7.32h69q41.15,0,61.64,13.29t20.49,40a44.65,44.65,0,0,1-14,33.12q-14,13.74-36.21,16.05Z"/><path class="a" d="M52.53,87.38h7.24q29.28,0,38.68-5.33t9.4-18.55q0-13.86-10.1-19.7T59.77,38H52.53Zm115,107.82H111.85L52.53,107.4v87.8H4.3V7.28h69q41.15,0,61.64,13.28t20.49,40a44.68,44.68,0,0,1-14,33.12q-14,13.72-36.21,16Z"/><path class="a" d="M52.56,87.33H59.8q29.28,0,38.68-5.33t9.4-18.55q0-13.86-10.1-19.7t-38-5.84H52.56Zm115,107.83H111.88l-59.32-87.8v87.8H4.33V7.23h69q41.15,0,61.64,13.29t20.49,40a44.66,44.66,0,0,1-14,33.12q-14,13.74-36.21,16Z"/><path class="a" d="M52.59,87.28h7.24q29.28,0,38.68-5.32t9.4-18.55q0-13.86-10.1-19.7t-38-5.85H52.59Zm115,107.83H111.91l-59.32-87.8v87.8H4.36V7.19h69q41.15,0,61.64,13.28t20.49,40a44.64,44.64,0,0,1-14,33.11q-14,13.74-36.21,16.05Z"/><path class="a" d="M52.62,87.24h7.24q29.28,0,38.68-5.33t9.4-18.55q0-13.86-10.1-19.7t-38-5.84H52.62Zm115,107.83H111.94L52.62,107.26v87.81H4.39V7.14h69q41.15,0,61.64,13.28t20.49,40a44.68,44.68,0,0,1-14,33.12q-14,13.74-36.21,16Z"/><path class="a" d="M52.65,87.19h7.24q29.28,0,38.68-5.32T108,63.32q0-13.87-10.1-19.71t-38-5.84H52.65ZM167.6,195H112l-59.32-87.8V195H4.42V7.09h69q41.15,0,61.64,13.29t20.49,40a44.65,44.65,0,0,1-14,33.12q-14,13.74-36.21,16Z"/><path class="a" d="M52.68,87.15h7.24q29.28,0,38.68-5.33T108,63.27q0-13.86-10.1-19.7t-38-5.84H52.68ZM167.63,195H112l-59.32-87.8V195H4.45V7.05h69q41.15,0,61.64,13.28t20.49,40a44.68,44.68,0,0,1-14,33.12q-14,13.73-36.21,16Z"/><path class="a" d="M52.71,87.1H60q29.28,0,38.68-5.33T108,63.22q0-13.86-10.1-19.7T60,37.68H52.71Zm115,107.83H112l-59.32-87.8v87.8H4.48V7h69q41.15,0,61.64,13.29t20.49,40a44.66,44.66,0,0,1-14,33.12q-14,13.74-36.21,16Z"/><path class="a" d="M52.74,87.05H60q29.28,0,38.68-5.32t9.4-18.55q0-13.86-10.1-19.71T60,37.63H52.74Zm115,107.83H112.06l-59.32-87.8v87.8H4.51V7h69q41.15,0,61.64,13.29t20.49,40a44.64,44.64,0,0,1-14,33.11q-14,13.74-36.21,16Z"/><path class="a" d="M52.77,87H60q29.28,0,38.68-5.33t9.4-18.55q0-13.86-10.1-19.7T60,37.59H52.77Zm115,107.83H112.09L52.77,107v87.81H4.54V6.91h69q41.15,0,61.64,13.28t20.49,40a44.68,44.68,0,0,1-14,33.12q-14,13.74-36.21,16Z"/><path class="a" d="M52.8,87H60q29.28,0,38.68-5.32t9.4-18.55q0-13.87-10.1-19.71T60,37.54H52.8Zm115,107.83H112.12L52.8,107v87.8H4.57V6.86h69q41.15,0,61.64,13.29t20.49,40a44.65,44.65,0,0,1-14,33.12q-14,13.74-36.21,16Z"/><path class="a" d="M52.83,86.92h7.24q29.28,0,38.68-5.33T108.15,63q0-13.86-10.1-19.7t-38-5.84H52.83Zm115,107.82H112.15l-59.32-87.8v87.8H4.6V6.82h69q41.15,0,61.64,13.28t20.49,40a44.68,44.68,0,0,1-14,33.12q-14,13.73-36.21,16Z"/><path class="a" d="M52.86,86.87H60.1q29.28,0,38.68-5.33T108.18,63q0-13.86-10.1-19.7t-38-5.84H52.86Zm115,107.83H112.18L52.86,106.9v87.8H4.63V6.77h69q41.15,0,61.64,13.29t20.49,40a44.66,44.66,0,0,1-14,33.12q-14,13.74-36.21,16Z"/><path class="a" d="M52.89,86.82h7.24q29.28,0,38.68-5.32T108.21,63q0-13.86-10.1-19.71t-38-5.84H52.89Zm115,107.83H112.21l-59.32-87.8v87.8H4.66V6.72h69q41.15,0,61.64,13.29t20.49,40a44.64,44.64,0,0,1-14,33.11q-14,13.74-36.21,16Z"/><path class="a" d="M52.92,86.78h7.24q29.28,0,38.68-5.33t9.4-18.55q0-13.86-10.1-19.7t-38-5.84H52.92Zm115,107.82H112.24L52.92,106.8v87.8H4.69V6.68h69q41.15,0,61.64,13.28t20.49,40a44.68,44.68,0,0,1-14,33.12q-14,13.74-36.21,16Z"/><path class="a" d="M53,86.73h7.24q29.28,0,38.68-5.33t9.4-18.54q0-13.87-10.1-19.71t-38-5.84H53Zm115,107.83H112.27L53,106.76v87.8H4.72V6.63h69q41.15,0,61.64,13.29t20.49,40a44.65,44.65,0,0,1-14,33.12q-14,13.74-36.21,16Z"/><path class="a" d="M53,86.69h7.24q29.28,0,38.68-5.33t9.4-18.55q0-13.86-10.1-19.7t-38-5.84H53Zm115,107.82H112.3L53,106.71v87.8H4.75V6.59h69q41.14,0,61.64,13.28t20.49,40a44.68,44.68,0,0,1-14,33.12q-14,13.72-36.21,16Z"/><path class="a" d="M53,86.64h7.24q29.28,0,38.68-5.33t9.4-18.55q0-13.86-10.1-19.7t-38-5.84H53ZM168,194.47H112.33L53,106.66v87.81H4.78V6.54h69q41.14,0,61.64,13.29t20.49,40a44.68,44.68,0,0,1-14,33.12q-14,13.74-36.21,16Z"/><path class="a" d="M53,86.59h7.24q29.28,0,38.68-5.32t9.4-18.55q0-13.86-10.1-19.71t-38-5.84H53ZM168,194.42H112.36L53,106.62v87.8H4.81V6.49h69q41.14,0,61.64,13.29t20.49,40a44.64,44.64,0,0,1-14,33.11q-14,13.74-36.21,16.05Z"/><path class="a" d="M53.07,86.55h7.24q29.28,0,38.68-5.33t9.4-18.55q0-13.86-10.09-19.7t-38-5.84H53.07ZM168,194.37H112.39l-59.32-87.8v87.8H4.84V6.45h69q41.14,0,61.64,13.28t20.49,40a44.68,44.68,0,0,1-14,33.12q-14,13.74-36.21,16Z"/><path class="a" d="M53.1,86.5h7.24q29.28,0,38.68-5.33t9.4-18.54q0-13.87-10.09-19.71t-38-5.84H53.1Zm115,107.83H112.42L53.1,106.53v87.8H4.87V6.4h69q41.14,0,61.64,13.29t20.49,40a44.65,44.65,0,0,1-14,33.12q-14,13.74-36.21,16Z"/><path class="a" d="M53.13,86.46h7.24q29.28,0,38.68-5.33t9.4-18.55q0-13.86-10.09-19.7T60.37,37H53.13Zm115,107.82H112.45l-59.32-87.8v87.8H4.9V6.36h69q41.14,0,61.64,13.28t20.49,40a44.68,44.68,0,0,1-14,33.12q-14,13.73-36.21,16Z"/><path class="a" d="M53.16,86.41H60.4q29.28,0,38.68-5.33t9.4-18.55q0-13.86-10.09-19.7T60.4,37H53.16Zm115,107.83H112.48L53.16,106.43v87.81H4.93V6.31H74q41.15,0,61.64,13.29t20.49,40a44.68,44.68,0,0,1-14,33.12q-14,13.74-36.21,16Z"/><path class="a" d="M53.19,86.36h7.24q29.28,0,38.68-5.32t9.4-18.55q0-13.86-10.09-19.71t-38-5.84H53.19Zm115,107.83H112.51l-59.32-87.8v87.8H5V6.26H74q41.15,0,61.64,13.29t20.49,40a44.64,44.64,0,0,1-14,33.11q-14,13.74-36.21,16Z"/><path class="a" d="M53.22,86.32h7.24q29.28,0,38.68-5.33t9.4-18.55q0-13.86-10.09-19.7t-38-5.84H53.22Zm115,107.82H112.54l-59.32-87.8v87.8H5V6.22H74q41.15,0,61.64,13.28t20.49,40a44.68,44.68,0,0,1-14,33.12q-14,13.74-36.21,16Z"/><path class="a" d="M53.25,86.27h7.24q29.28,0,38.68-5.33t9.4-18.54q0-13.87-10.09-19.71t-38-5.84H53.25Zm115,107.83H112.57L53.25,106.3v87.8H5V6.17h69q41.15,0,61.64,13.29t20.49,40a44.65,44.65,0,0,1-14,33.12q-14,13.74-36.21,16Z"/><path class="a" d="M53.28,86.23h7.24q29.28,0,38.68-5.33t9.4-18.55q0-13.86-10.09-19.7t-38-5.84H53.28Zm115,107.82H112.6l-59.32-87.8v87.8H5.05V6.13h69q41.15,0,61.64,13.28t20.49,40a44.68,44.68,0,0,1-14,33.12q-14,13.73-36.21,16Z"/><path class="a" d="M53.31,86.18h7.24q29.28,0,38.68-5.33t9.4-18.55q0-13.86-10.09-19.7t-38-5.84H53.31ZM168.26,194H112.64L53.31,106.2V194H5.08V6.08h69q41.15,0,61.64,13.29t20.49,40a44.68,44.68,0,0,1-14,33.12q-14,13.74-36.21,16Z"/><path class="a" d="M53.34,86.13h7.24q29.28,0,38.68-5.32t9.4-18.55q0-13.86-10.09-19.71t-38-5.84H53.34ZM168.29,194H112.67l-59.33-87.8V194H5.11V6h69q41.15,0,61.64,13.29t20.49,40a44.64,44.64,0,0,1-14,33.11q-14,13.74-36.21,16Z"/><path class="a" d="M53.37,86.09h7.24q29.28,0,38.68-5.33t9.4-18.55q0-13.86-10.09-19.7t-38-5.84H53.37Zm115,107.82H112.7l-59.33-87.8v87.8H5.14V6h69q41.15,0,61.64,13.28t20.49,40a44.68,44.68,0,0,1-14,33.12q-14,13.74-36.21,16Z"/><path class="a" d="M53.4,86h7.24q29.28,0,38.68-5.33t9.4-18.54q0-13.87-10.09-19.71t-38-5.84H53.4Zm115,107.83H112.73L53.4,106.07v87.8H5.17V5.94h69q41.15,0,61.64,13.29t20.49,40a44.65,44.65,0,0,1-14,33.12q-14,13.74-36.21,16Z"/><path class="a" d="M53.43,86h7.24q29.28,0,38.68-5.33t9.4-18.55q0-13.86-10.09-19.7t-38-5.85H53.43Zm115,107.82H112.76L53.43,106v87.8H5.2V5.9h69q41.15,0,61.64,13.28t20.49,40a44.68,44.68,0,0,1-14,33.12q-14,13.72-36.21,16Z"/><path class="a" d="M53.46,86H60.7Q90,86,99.38,80.62t9.4-18.55q0-13.86-10.09-19.7t-38-5.84H53.46Zm115,107.83H112.79L53.46,106v87.81H5.23V5.85h69q41.15,0,61.64,13.29t20.49,40a44.68,44.68,0,0,1-14,33.12q-14,13.74-36.21,16Z"/><path class="a" d="M53.49,85.9h7.24q29.28,0,38.68-5.32T108.81,62q0-13.87-10.09-19.71t-38-5.84H53.49Zm115,107.83H112.82l-59.33-87.8v87.8H5.26V5.8h69q41.15,0,61.64,13.29t20.49,40a44.65,44.65,0,0,1-14,33.12q-14,13.74-36.21,16Z"/><path class="a" d="M53.52,85.86h7.24q29.28,0,38.68-5.33T108.84,62q0-13.86-10.09-19.7t-38-5.84H53.52Zm115,107.82H112.85l-59.33-87.8v87.8H5.29V5.76h69Q115.47,5.76,136,19t20.49,40a44.68,44.68,0,0,1-14,33.12q-14,13.72-36.21,16Z"/><path class="a" d="M53.55,85.81h7.24q29.28,0,38.68-5.33t9.4-18.55q0-13.86-10.09-19.7t-38-5.84H53.55Zm115,107.83H112.88l-59.33-87.8v87.8H5.32V5.71h69Q115.5,5.71,136,19t20.49,40a44.66,44.66,0,0,1-14,33.12q-14,13.74-36.21,16.05Z"/><path class="a" d="M53.58,85.76h7.24q29.28,0,38.68-5.32t9.4-18.55q0-13.86-10.09-19.7t-38-5.85H53.58Zm115,107.83H112.91l-59.33-87.8v87.8H5.35V5.67h69Q115.53,5.67,136,19t20.49,40a44.64,44.64,0,0,1-14,33.11q-14,13.74-36.21,16Z"/><path class="a" d="M53.61,85.72h7.24q29.28,0,38.68-5.33t9.4-18.55q0-13.86-10.09-19.7t-38-5.84H53.61Zm115,107.83H112.94L53.61,105.74v87.81H5.38V5.62h69q41.15,0,61.64,13.28t20.49,40a44.68,44.68,0,0,1-14,33.12q-14,13.74-36.21,16Z"/><path class="a" d="M53.64,85.67h7.24q29.28,0,38.68-5.32T109,61.8q0-13.87-10.09-19.71t-38-5.84H53.64Zm115,107.83H113L53.64,105.7v87.8H5.41V5.57h69q41.15,0,61.64,13.29t20.49,40a44.65,44.65,0,0,1-14,33.12q-14,13.74-36.21,16.05Z"/><path class="a" d="M53.67,85.63h7.24q29.28,0,38.68-5.33T109,61.75q0-13.86-10.09-19.7t-38-5.84H53.67Zm115,107.82H113l-59.33-87.8v87.8H5.44V5.53h69q41.15,0,61.64,13.28t20.49,40a44.68,44.68,0,0,1-14,33.12q-14,13.72-36.21,16Z"/><path class="a" d="M53.7,85.58h7.24q29.28,0,38.68-5.33T109,61.7Q109,47.84,98.93,42t-38-5.84H53.7Zm115,107.83H113L53.7,105.61v87.8H5.47V5.48h69q41.15,0,61.64,13.29t20.49,40a44.66,44.66,0,0,1-14,33.12q-14,13.74-36.21,16Z"/><path class="a" d="M53.73,85.53H61q29.28,0,38.68-5.32t9.4-18.55Q109.05,47.8,99,42T61,36.11H53.73Zm115,107.83H113.06l-59.33-87.8v87.8H5.5V5.43h69q41.14,0,61.64,13.29t20.49,40a44.64,44.64,0,0,1-14,33.11q-14,13.74-36.21,16.05Z"/><path class="a" d="M53.76,85.49H61q29.28,0,38.68-5.33t9.4-18.55q0-13.86-10.09-19.7T61,36.07H53.76Zm115,107.83H113.09L53.76,105.51v87.81H5.53V5.39h69q41.14,0,61.64,13.28t20.49,40a44.68,44.68,0,0,1-14,33.12q-14,13.74-36.21,16Z"/><path class="a" d="M53.79,85.44H61q29.28,0,38.68-5.32t9.4-18.55q0-13.87-10.09-19.71T61,36H53.79Zm115,107.83H113.12l-59.33-87.8v87.8H5.56V5.34h69q41.14,0,61.64,13.29t20.49,40a44.65,44.65,0,0,1-14,33.12q-14,13.74-36.21,16Z"/><path class="a" d="M53.82,85.4h7.24q29.28,0,38.68-5.33t9.4-18.55q0-13.86-10.09-19.7T61.06,36H53.82Zm115,107.82H113.15l-59.33-87.8v87.8H5.59V5.3h69q41.14,0,61.64,13.28t20.49,40a44.68,44.68,0,0,1-14,33.12q-14,13.73-36.21,16Z"/><path class="a" d="M53.85,85.35h7.24q29.28,0,38.68-5.33t9.4-18.55q0-13.86-10.09-19.7t-38-5.84H53.85Zm115,107.83H113.18l-59.33-87.8v87.8H5.62V5.25h69q41.14,0,61.64,13.29t20.49,40a44.66,44.66,0,0,1-14,33.12q-14,13.74-36.21,16Z"/><path class="a" d="M53.88,85.3h7.24Q90.4,85.3,99.8,80t9.4-18.55q0-13.86-10.09-19.71t-38-5.84H53.88Zm115,107.83H113.21l-59.33-87.8v87.8H5.65V5.2h69q41.14,0,61.64,13.29t20.49,40a44.64,44.64,0,0,1-14,33.11q-14,13.74-36.21,16Z"/><path class="a" d="M53.91,85.26h7.24q29.28,0,38.68-5.33t9.4-18.55q0-13.86-10.09-19.7t-38-5.84H53.91Zm115,107.83H113.24L53.91,105.28v87.81H5.68V5.16h69q41.15,0,61.64,13.28t20.49,40a44.68,44.68,0,0,1-14,33.12q-14,13.74-36.21,16Z"/><path class="a" d="M53.94,85.21h7.24q29.28,0,38.68-5.32t9.4-18.55q0-13.87-10.09-19.71t-38-5.84H53.94ZM168.89,193H113.27l-59.33-87.8V193H5.71V5.11h69q41.15,0,61.64,13.29t20.49,40a44.65,44.65,0,0,1-14,33.12q-14,13.74-36.21,16Z"/><path class="a" d="M54,85.17h7.24q29.28,0,38.68-5.33t9.4-18.55q0-13.86-10.09-19.7t-38-5.84H54ZM168.92,193H113.3L54,105.19V193H5.74V5.07h69q41.15,0,61.64,13.28t20.49,40a44.68,44.68,0,0,1-14,33.12q-14,13.73-36.21,16Z"/><path class="a" d="M54,85.12h7.24q29.28,0,38.68-5.33t9.4-18.55q0-13.86-10.09-19.7t-38-5.84H54ZM169,193H113.33L54,105.15V193H5.77V5h69q41.15,0,61.64,13.29t20.49,40a44.68,44.68,0,0,1-14,33.12q-14,13.74-36.21,16Z"/><path class="a" d="M54,85.07h7.24q29.28,0,38.68-5.32t9.4-18.55q0-13.86-10.09-19.71t-38-5.84H54ZM169,192.9H113.36L54,105.1v87.8H5.8V5h69Q116,5,136.47,18.26t20.49,40a44.64,44.64,0,0,1-14,33.11q-14,13.74-36.21,16Z"/><path class="a" d="M54.06,85H61.3Q90.58,85,100,79.7t9.4-18.55q0-13.86-10.09-19.7t-38-5.84H54.06ZM169,192.85H113.39l-59.33-87.8v87.8H5.83V4.93h69q41.15,0,61.64,13.28T157,58.2a44.68,44.68,0,0,1-14,33.12q-14,13.74-36.21,16Z"/><path class="a" d="M54.09,85h7.24Q90.61,85,100,79.65t9.4-18.54q0-13.87-10.09-19.71t-38-5.84H54.09ZM169,192.81H113.42L54.09,105v87.8H5.86V4.88h69q41.15,0,61.64,13.29t20.49,40a44.65,44.65,0,0,1-14,33.12q-14,13.74-36.21,16Z"/><path class="a" d="M54.12,84.94h7.24q29.28,0,38.68-5.33t9.4-18.55q0-13.86-10.09-19.7t-38-5.84H54.12Zm115,107.82H113.45L54.12,105v87.8H5.89V4.84h69q41.15,0,61.64,13.28t20.49,40a44.68,44.68,0,0,1-14,33.12q-14,13.72-36.21,16Z"/><path class="a" d="M54.15,84.89h7.24q29.28,0,38.68-5.33T109.47,61q0-13.86-10.09-19.7t-38-5.84H54.15Zm115,107.83H113.48L54.15,104.91v87.81H5.92V4.79H75q41.15,0,61.64,13.29t20.49,40a44.68,44.68,0,0,1-14,33.12q-14,13.74-36.21,16Z"/><path class="a" d="M54.18,84.84h7.24q29.28,0,38.68-5.32T109.5,61q0-13.86-10.09-19.71t-38-5.84H54.18Zm115,107.83H113.51l-59.33-87.8v87.8H6V4.74H75q41.15,0,61.64,13.29t20.49,40a44.64,44.64,0,0,1-14,33.11q-14,13.74-36.21,16.05Z"/><path class="a" d="M54.21,84.8h7.24q29.28,0,38.68-5.33t9.4-18.55q0-13.86-10.09-19.7t-38-5.84H54.21Zm115,107.82H113.54l-59.33-87.8v87.8H6V4.7H75q41.15,0,61.64,13.28t20.49,40a44.68,44.68,0,0,1-14,33.12q-14,13.74-36.21,16Z"/><path class="a" d="M54.24,84.75h7.24q29.28,0,38.68-5.33t9.4-18.54q0-13.87-10.09-19.71t-38-5.84H54.24Zm115,107.83H113.57l-59.33-87.8v87.8H6V4.65H75q41.15,0,61.64,13.29t20.49,40a44.65,44.65,0,0,1-14,33.12q-14,13.74-36.21,16Z"/><path class="a" d="M54.27,84.71h7.24q29.28,0,38.68-5.33t9.4-18.55q0-13.86-10.09-19.7t-38-5.84H54.27Zm115,107.82H113.6l-59.33-87.8v87.8H6V4.61h69q41.15,0,61.64,13.28t20.49,40a44.68,44.68,0,0,1-14,33.12q-14,13.73-36.21,16Z"/><path class="a" d="M54.3,84.66h7.24q29.28,0,38.68-5.33t9.4-18.55q0-13.86-10.09-19.7t-38-5.84H54.3Zm115,107.83H113.63L54.3,104.68v87.81H6.07V4.56h69q41.15,0,61.64,13.29t20.49,40a44.68,44.68,0,0,1-14,33.12q-14,13.74-36.21,16Z"/><path class="a" d="M54.33,84.61h7.24q29.28,0,38.68-5.32t9.4-18.55q0-13.86-10.09-19.71t-38-5.84H54.33Zm115,107.83H113.66l-59.33-87.8v87.8H6.1V4.51h69q41.15,0,61.64,13.29t20.49,40a44.64,44.64,0,0,1-14,33.11q-14,13.74-36.21,16Z"/><path class="a" d="M54.36,84.57H61.6q29.28,0,38.68-5.33t9.4-18.55q0-13.86-10.09-19.7t-38-5.84H54.36Zm115,107.82H113.69l-59.33-87.8v87.8H6.13V4.47h69q41.15,0,61.64,13.28t20.49,40a44.68,44.68,0,0,1-14,33.12q-14,13.74-36.21,16Z"/><path class="a" d="M54.39,84.52h7.24q29.28,0,38.68-5.33t9.4-18.54q0-13.87-10.09-19.71t-38-5.84H54.39Zm115,107.83H113.72l-59.33-87.8v87.8H6.16V4.42h69q41.15,0,61.64,13.29t20.49,40a44.65,44.65,0,0,1-14,33.12q-14,13.74-36.21,16Z"/><path class="a" d="M54.42,84.48h7.24q29.28,0,38.68-5.33t9.4-18.55q0-13.86-10.09-19.7t-38-5.85H54.42Zm115,107.82H113.75L54.42,104.5v87.8H6.19V4.38h69q41.15,0,61.64,13.28t20.49,40a44.68,44.68,0,0,1-14,33.12q-14,13.73-36.21,16Z"/><path class="a" d="M54.45,84.43h7.24q29.28,0,38.68-5.33t9.4-18.55q0-13.86-10.09-19.7T61.69,35H54.45Zm115,107.83H113.78L54.45,104.45v87.81H6.22V4.33h69q41.15,0,61.64,13.29t20.49,40a44.68,44.68,0,0,1-14,33.12q-14,13.74-36.21,16Z"/><path class="a" d="M54.48,84.38h7.24q29.28,0,38.68-5.32t9.4-18.55q0-13.87-10.09-19.71T61.72,35H54.48Zm115,107.83H113.81l-59.33-87.8v87.8H6.25V4.28h69q41.14,0,61.64,13.29t20.49,40a44.65,44.65,0,0,1-14,33.12q-14,13.74-36.21,16Z"/><path class="a" d="M54.51,84.34h7.24Q91,84.34,100.43,79t9.4-18.55q0-13.86-10.09-19.7t-38-5.84H54.51Zm115,107.82H113.84l-59.33-87.8v87.8H6.28V4.24h69q41.14,0,61.64,13.28t20.49,40a44.68,44.68,0,0,1-14,33.12q-14,13.73-36.21,16Z"/><path class="a" d="M54.54,84.29h7.24q29.28,0,38.68-5.33t9.4-18.54q0-13.87-10.09-19.71t-38-5.84H54.54Zm115,107.83H113.87l-59.33-87.8v87.8H6.31V4.19h69q41.14,0,61.64,13.29t20.49,40a44.66,44.66,0,0,1-14,33.12q-14,13.74-36.21,16Z"/><path class="a" d="M54.57,84.24h7.24q29.28,0,38.68-5.32t9.4-18.55q0-13.86-10.09-19.7t-38-5.85H54.57Zm115,107.83H113.9l-59.33-87.8v87.8H6.34V4.15h69q41.14,0,61.64,13.28t20.49,40a44.64,44.64,0,0,1-14,33.11q-14,13.74-36.21,16Z"/><path class="a" d="M54.6,84.2h7.24q29.28,0,38.68-5.33t9.4-18.55q0-13.86-10.09-19.7t-38-5.84H54.6ZM169.55,192H113.93L54.6,104.22V192H6.37V4.1h69q41.14,0,61.64,13.29t20.49,40a44.68,44.68,0,0,1-14,33.12q-14,13.74-36.21,16Z"/><path class="a" d="M54.63,84.15h7.24q29.28,0,38.68-5.32T110,60.28q0-13.87-10.09-19.71t-38-5.84H54.63ZM169.58,192H114l-59.33-87.8V192H6.4V4.05h69q41.14,0,61.64,13.29t20.49,40a44.65,44.65,0,0,1-14,33.12q-14,13.74-36.21,16Z"/><path class="a" d="M54.66,84.11H61.9q29.28,0,38.68-5.33T110,60.23q0-13.86-10.09-19.7t-38-5.84H54.66Zm115,107.82H114l-59.33-87.8v87.8H6.43V4h69q41.15,0,61.64,13.28t20.49,40a44.68,44.68,0,0,1-14,33.12q-14,13.72-36.21,16Z"/><path class="a" d="M54.69,84.06h7.24q29.28,0,38.68-5.33T110,60.18q0-13.86-10.09-19.7t-38-5.84H54.69Zm115,107.83H114l-59.33-87.8v87.8H6.46V4h69q41.15,0,61.64,13.29t20.49,40a44.66,44.66,0,0,1-14,33.12q-14,13.74-36.21,16.05Z"/><path class="a" d="M54.72,84H62q29.28,0,38.68-5.32T110,60.14q0-13.86-10.09-19.7T62,34.59H54.72Zm115,107.83H114.05L54.72,104v87.8H6.49V3.92h69q41.15,0,61.64,13.28t20.49,40a44.64,44.64,0,0,1-14,33.11q-14,13.74-36.21,16Z"/><path class="a" d="M54.75,84H62q29.28,0,38.68-5.33t9.4-18.55q0-13.86-10.09-19.7T62,34.55H54.75Zm115,107.83H114.08L54.75,104V191.8H6.52V3.87h69q41.15,0,61.64,13.28t20.49,40a44.68,44.68,0,0,1-14,33.12q-14,13.74-36.21,16Z"/><path class="a" d="M54.78,83.92H62q29.28,0,38.68-5.32t9.4-18.55q0-13.87-10.09-19.71T62,34.5H54.78Zm115,107.83H114.11L54.78,104v87.8H6.55V3.82h69q41.15,0,61.64,13.29t20.49,40a44.65,44.65,0,0,1-14,33.12q-14,13.74-36.21,16.05Z"/><path class="a" d="M54.81,83.88h7.24q29.28,0,38.68-5.33T110.13,60q0-13.86-10.09-19.7t-38-5.84H54.81Zm115,107.82H114.14L54.81,103.9v87.8H6.58V3.78h69q41.15,0,61.64,13.28t20.49,40a44.68,44.68,0,0,1-14,33.12q-14,13.72-36.21,16Z"/><path class="a" d="M54.84,83.83h7.24q29.28,0,38.68-5.33T110.16,60q0-13.86-10.09-19.7t-38-5.84H54.84Zm115,107.83H114.17l-59.33-87.8v87.8H6.61V3.73h69q41.15,0,61.64,13.29t20.49,40a44.66,44.66,0,0,1-14,33.12q-14,13.74-36.21,16Z"/><path class="a" d="M54.87,83.78h7.24q29.28,0,38.68-5.32t9.4-18.55q0-13.86-10.09-19.71t-38-5.84H54.87Zm115,107.83H114.2l-59.33-87.8v87.8H6.64V3.68h69q41.15,0,61.64,13.29t20.5,40a44.65,44.65,0,0,1-14,33.11q-14,13.74-36.21,16.05Z"/><path class="a" d="M54.9,83.74h7.24q29.28,0,38.68-5.33t9.4-18.55q0-13.86-10.09-19.7t-38-5.84H54.9Zm115,107.83H114.23L54.9,103.76v87.81H6.67V3.64h69q41.15,0,61.64,13.28t20.5,40a44.69,44.69,0,0,1-14,33.12q-14,13.74-36.21,16Z"/><path class="a" d="M54.93,83.69h7.24q29.28,0,38.68-5.32t9.4-18.55q0-13.87-10.09-19.71t-38-5.84H54.93Zm115,107.83H114.26l-59.33-87.8v87.8H6.7V3.59h69q41.15,0,61.64,13.29t20.5,40a44.66,44.66,0,0,1-14,33.12q-14,13.74-36.21,16Z"/><path class="a" d="M55,83.65H62.2q29.28,0,38.68-5.33t9.4-18.55q0-13.86-10.09-19.7t-38-5.84H55Zm115,107.82H114.29L55,103.67v87.8H6.73V3.55h69q41.15,0,61.64,13.28t20.5,40a44.69,44.69,0,0,1-14,33.12q-14,13.73-36.21,16Z"/><path class="a" d="M55,83.6h7.24q29.28,0,38.68-5.33t9.4-18.55q0-13.86-10.09-19.7t-38-5.84H55Zm115,107.83H114.32L55,103.63v87.8H6.76V3.5h69q41.15,0,61.64,13.29t20.5,40a44.69,44.69,0,0,1-14,33.12q-14,13.74-36.21,16Z"/><path class="a" d="M55,83.55h7.24q29.28,0,38.68-5.32t9.4-18.55q0-13.86-10.09-19.71t-38-5.84H55ZM170,191.38H114.35L55,103.58v87.8H6.79V3.45h69q41.15,0,61.64,13.29t20.5,40a44.65,44.65,0,0,1-14,33.11q-14,13.74-36.21,16Z"/><path class="a" d="M55.05,83.51h7.24q29.28,0,38.68-5.33t9.4-18.55q0-13.86-10.09-19.7t-38-5.84H55.05ZM170,191.33H114.38l-59.33-87.8v87.8H6.82V3.41h69q41.15,0,61.64,13.28t20.5,40A44.69,44.69,0,0,1,144,89.8q-14,13.74-36.21,16Z"/><path class="a" d="M55.08,83.46h7.24q29.28,0,38.68-5.33t9.4-18.54q0-13.87-10.09-19.71T62.32,34H55.08ZM170,191.29H114.41l-59.33-87.8v87.8H6.85V3.36h69q41.15,0,61.64,13.29t20.5,40a44.66,44.66,0,0,1-14,33.12q-14,13.74-36.21,16Z"/><path class="a" d="M55.11,83.42h7.24q29.28,0,38.68-5.33t9.4-18.55q0-13.86-10.09-19.7T62.35,34H55.11Zm115,107.82H114.44l-59.33-87.8v87.8H6.88V3.32h69q41.15,0,61.64,13.28t20.5,40a44.69,44.69,0,0,1-14,33.12q-14,13.73-36.21,16Z"/><path class="a" d="M55.14,83.37h7.25q29.27,0,38.67-5.33t9.4-18.55q0-13.86-10.09-19.7T62.39,34H55.14Zm115,107.83H114.47L55.14,103.39V191.2H6.91V3.27h69q41.15,0,61.64,13.29t20.5,40a44.69,44.69,0,0,1-14,33.12q-14,13.74-36.21,16Z"/><path class="a" d="M55.17,83.32h7.25q29.27,0,38.67-5.32t9.4-18.55q0-13.86-10.09-19.71t-38-5.84H55.17Zm115,107.83H114.5l-59.33-87.8v87.8H6.94V3.22H76q41.15,0,61.64,13.29t20.5,40a44.65,44.65,0,0,1-14,33.11q-14,13.74-36.21,16Z"/><path class="a" d="M55.2,83.28h7.25q29.26,0,38.67-5.33t9.4-18.55q0-13.86-10.09-19.7t-38-5.84H55.2Zm115,107.82H114.53L55.2,103.3v87.8H7V3.18H76q41.15,0,61.64,13.28t20.5,40a44.69,44.69,0,0,1-14,33.12q-14,13.74-36.21,16Z"/><path class="a" d="M55.23,83.23h7.25q29.26,0,38.67-5.33t9.4-18.54q0-13.87-10.09-19.71t-38-5.84H55.23Zm115,107.83H114.56l-59.33-87.8v87.8H7V3.13H76q41.14,0,61.64,13.29t20.5,40a44.66,44.66,0,0,1-14,33.12q-14,13.74-36.21,16Z"/><path class="a" d="M55.26,83.19h7.25q29.26,0,38.67-5.33t9.4-18.55q0-13.86-10.09-19.7t-38-5.84H55.26ZM170.22,191H114.59l-59.33-87.8V191H7V3.09h69q41.14,0,61.64,13.28t20.5,40a44.69,44.69,0,0,1-14,33.12q-14,13.72-36.21,16Z"/><path class="a" d="M55.29,83.14h7.25q29.26,0,38.67-5.33t9.4-18.55q0-13.86-10.09-19.7t-38-5.84H55.29ZM170.25,191H114.62L55.29,103.16V191H7.06V3h69q41.14,0,61.64,13.29t20.5,40a44.69,44.69,0,0,1-14,33.12q-14,13.74-36.21,16Z"/><path class="a" d="M55.32,83.09h7.25q29.26,0,38.67-5.32t9.4-18.55q0-13.86-10.09-19.71t-38-5.84H55.32Zm115,107.83H114.65l-59.33-87.8v87.8H7.09V3h69q41.14,0,61.64,13.29t20.5,40a44.65,44.65,0,0,1-14,33.11q-14,13.74-36.21,16.05Z"/><path class="a" d="M55.35,83.05H62.6q29.26,0,38.67-5.33t9.4-18.55q0-13.86-10.09-19.7t-38-5.84H55.35Zm115,107.82H114.68l-59.33-87.8v87.8H7.12V3h69q41.14,0,61.64,13.28t20.5,40a44.69,44.69,0,0,1-14,33.12q-14,13.74-36.21,16Z"/><path class="a" d="M55.38,83h7.25q29.26,0,38.67-5.33t9.4-18.54q0-13.87-10.09-19.71t-38-5.84H55.38Zm115,107.83H114.71L55.38,103v87.8H7.15V2.9h69q41.14,0,61.64,13.29t20.5,40a44.66,44.66,0,0,1-14,33.12q-14,13.74-36.21,16Z"/><path class="a" d="M55.41,83h7.25q29.27,0,38.67-5.33t9.4-18.55q0-13.86-10.09-19.7t-38-5.84H55.41Zm115,107.82H114.74L55.41,103v87.8H7.18V2.86h69q41.13,0,61.63,13.28t20.5,40a44.69,44.69,0,0,1-14,33.12q-14,13.73-36.21,16Z"/><path class="a" d="M55.44,82.91h7.25q29.27,0,38.67-5.33T110.76,59q0-13.86-10.09-19.7t-38-5.84H55.44Zm115,107.83H114.77L55.44,102.93v87.81H7.21V2.81h69q41.13,0,61.63,13.29t20.5,40a44.69,44.69,0,0,1-14,33.12q-14,13.74-36.21,16Z"/><path class="a" d="M55.47,82.86h7.25q29.27,0,38.67-5.32T110.79,59q0-13.87-10.09-19.71t-38-5.84H55.47Zm115,107.83H114.8l-59.33-87.8v87.8H7.24V2.76h69q41.13,0,61.63,13.29t20.5,40a44.65,44.65,0,0,1-14,33.11q-14,13.74-36.21,16Z"/><path class="a" d="M55.5,82.82h7.25q29.27,0,38.67-5.33t9.4-18.55q0-13.86-10.09-19.7t-38-5.84H55.5Zm115,107.82H114.83L55.5,102.84v87.8H7.27V2.72h69q41.13,0,61.63,13.28t20.5,40a44.69,44.69,0,0,1-14,33.12q-14,13.74-36.21,16Z"/><path class="a" d="M55.53,82.77h7.25q29.27,0,38.67-5.33t9.4-18.54q0-13.87-10.09-19.71t-38-5.84H55.53Zm115,107.83H114.86L55.53,102.8v87.8H7.3V2.67h69Q117.47,2.67,138,16t20.5,40a44.67,44.67,0,0,1-14,33.12q-14,13.74-36.21,16Z"/><path class="a" d="M55.56,82.72h7.25q29.26,0,38.67-5.32t9.4-18.55q0-13.86-10.09-19.7t-38-5.85H55.56Zm115,107.83H114.89l-59.33-87.8v87.8H7.33V2.63h69q41.13,0,61.63,13.28t20.5,40a44.69,44.69,0,0,1-14,33.12q-14,13.73-36.21,16Z"/><path class="a" d="M55.59,82.68h7.25q29.26,0,38.67-5.33t9.4-18.55q0-13.86-10.09-19.7t-38-5.84H55.59Zm115,107.83H114.92L55.59,102.7v87.81H7.36V2.58h69q41.13,0,61.63,13.29t20.5,40A44.69,44.69,0,0,1,144.5,89q-14,13.74-36.21,16Z"/><path class="a" d="M55.62,82.63h7.25q29.26,0,38.67-5.32t9.4-18.55q0-13.87-10.09-19.71t-38-5.84H55.62Zm115,107.83H115l-59.33-87.8v87.8H7.39V2.53h69q41.13,0,61.63,13.29t20.5,40a44.66,44.66,0,0,1-14,33.12q-14,13.74-36.21,16Z"/><path class="a" d="M55.65,82.59H62.9q29.26,0,38.67-5.33T111,58.71q0-13.86-10.09-19.7t-38-5.84H55.65Zm115,107.82H115l-59.33-87.8v87.8H7.42V2.49h69q41.13,0,61.63,13.28t20.5,40a44.69,44.69,0,0,1-14,33.12q-14,13.73-36.21,16Z"/><path class="a" d="M55.68,82.54h7.25q29.26,0,38.67-5.33T111,58.66Q111,44.8,100.91,39t-38-5.84H55.68Zm115,107.83H115l-59.33-87.8v87.8H7.45V2.44h69q41.13,0,61.63,13.29t20.5,40a44.67,44.67,0,0,1-14,33.12q-14,13.74-36.21,16Z"/><path class="a" d="M55.71,82.49H63q29.26,0,38.67-5.32T111,58.62q0-13.86-10.09-19.7T63,33.07H55.71Zm115,107.83H115l-59.33-87.8v87.8H7.48V2.4h69q41.13,0,61.63,13.28t20.5,40a44.65,44.65,0,0,1-14,33.11q-14,13.74-36.21,16Z"/><path class="a" d="M55.74,82.45H63q29.26,0,38.67-5.33t9.4-18.55q0-13.86-10.09-19.7T63,33H55.74Zm115,107.83H115.07L55.74,102.47v87.81H7.51V2.35h69q41.13,0,61.63,13.28t20.5,40a44.69,44.69,0,0,1-14,33.12q-14,13.74-36.21,16Z"/><path class="a" d="M55.77,82.4H63q29.26,0,38.67-5.32t9.4-18.55q0-13.87-10.09-19.71T63,33H55.77Zm115,107.83H115.1l-59.33-87.8v87.8H7.54V2.3h69q41.13,0,61.63,13.29t20.5,40a44.66,44.66,0,0,1-14,33.12q-14,13.74-36.21,16Z"/><path class="a" d="M55.8,82.36h7.25q29.27,0,38.67-5.33t9.4-18.55q0-13.86-10.09-19.7t-38-5.84H55.8Zm115,107.82H115.13L55.8,102.38v87.8H7.57V2.26h69q41.13,0,61.63,13.28t20.5,40a44.69,44.69,0,0,1-14,33.12q-14,13.72-36.21,16Z"/><path class="a" d="M55.83,82.31h7.25q29.27,0,38.67-5.33t9.4-18.55q0-13.86-10.09-19.7t-38-5.84H55.83Zm115,107.83H115.16l-59.33-87.8v87.8H7.6V2.21h69q41.13,0,61.63,13.29t20.5,40a44.67,44.67,0,0,1-14,33.12q-14,13.74-36.21,16.05Z"/><path class="a" d="M55.86,82.26h7.25q29.27,0,38.67-5.32t9.4-18.55q0-13.86-10.09-19.7t-38-5.85H55.86Zm115,107.83H115.19l-59.33-87.8v87.8H7.63V2.16h69q41.13,0,61.63,13.29t20.5,40a44.65,44.65,0,0,1-14,33.11q-14,13.74-36.21,16Z"/><path class="a" d="M55.89,82.22h7.25q29.27,0,38.67-5.33t9.4-18.55q0-13.86-10.09-19.7t-38-5.84H55.89Zm115,107.83H115.22L55.89,102.24v87.81H7.66V2.12h69q41.13,0,61.63,13.28t20.5,40a44.69,44.69,0,0,1-14,33.12q-14,13.74-36.21,16Z"/><path class="a" d="M55.92,82.17h7.25q29.27,0,38.67-5.32t9.4-18.55q0-13.87-10.09-19.71t-38-5.84H55.92ZM170.88,190H115.25L55.92,102.2V190H7.69V2.07h69q41.13,0,61.63,13.29t20.5,40a44.66,44.66,0,0,1-14,33.12q-14,13.74-36.21,16.05Z"/><path class="a" d="M56,82.13H63.2q29.26,0,38.67-5.33t9.4-18.55q0-13.86-10.09-19.7t-38-5.84H56ZM170.91,190H115.28L56,102.15V190H7.72V2h69q41.13,0,61.63,13.28t20.5,40a44.69,44.69,0,0,1-14,33.12q-14,13.72-36.21,16Z"/><path class="a" d="M56,82.08h7.25q29.26,0,38.67-5.33t9.4-18.55q0-13.86-10.09-19.7t-38-5.84H56Zm115,107.83H115.31L56,102.11v87.8H7.75V2h69q41.13,0,61.63,13.29t20.5,40a44.69,44.69,0,0,1-14,33.12q-14,13.74-36.21,16Z"/><path class="a" d="M56,82h7.25q29.26,0,38.67-5.32t9.4-18.55q0-13.86-10.09-19.71t-38-5.84H56ZM171,189.86H115.34L56,102.06v87.8H7.78V1.93h69q41.13,0,61.63,13.29t20.5,40a44.65,44.65,0,0,1-14,33.11q-14,13.74-36.21,16.05Z"/><path class="a" d="M56,82h7.25Q92.56,82,102,76.66t9.4-18.55q0-13.86-10.09-19.7t-38-5.84H56ZM171,189.82H115.37L56,102v87.81H7.81V1.89h69q41.13,0,61.63,13.28t20.5,40a44.69,44.69,0,0,1-14,33.12q-14,13.74-36.21,16Z"/><path class="a" d="M56.07,81.94h7.25q29.26,0,38.67-5.33t9.4-18.54q0-13.87-10.09-19.71t-38-5.84H56.07ZM171,189.77H115.4L56.07,102v87.8H7.84V1.84h69q41.13,0,61.63,13.29t20.5,40a44.66,44.66,0,0,1-14,33.12q-14,13.74-36.21,16Z"/><path class="a" d="M56.1,81.9h7.25q29.26,0,38.67-5.33T111.42,58q0-13.86-10.09-19.7t-38-5.84H56.1Zm115,107.82H115.43L56.1,101.92v87.8H7.87V1.8h69q41.13,0,61.63,13.28t20.5,40a44.69,44.69,0,0,1-14,33.12q-14,13.73-36.21,16Z"/><path class="a" d="M56.13,81.85h7.25q29.26,0,38.67-5.33T111.45,58q0-13.86-10.09-19.7t-38-5.84H56.13Zm115,107.83H115.46l-59.33-87.8v87.8H7.9V1.75h69q41.13,0,61.63,13.29t20.5,40a44.69,44.69,0,0,1-14,33.12q-14,13.74-36.21,16Z"/><path class="a" d="M56.16,81.8h7.25q29.27,0,38.67-5.32t9.4-18.55q0-13.86-10.09-19.71t-38-5.84H56.16Zm115,107.83H115.49l-59.33-87.8v87.8H7.93V1.7H77Q118.1,1.7,138.6,15t20.5,40a44.65,44.65,0,0,1-14,33.11q-14,13.74-36.21,16Z"/><path class="a" d="M56.19,81.76h7.25q29.27,0,38.67-5.33t9.4-18.55q0-13.86-10.09-19.7t-38-5.84H56.19Zm115,107.82H115.52l-59.33-87.8v87.8H8V1.66H77q41.15,0,61.63,13.28t20.5,40a44.69,44.69,0,0,1-14,33.12q-14,13.74-36.21,16Z"/><path class="a" d="M56.22,81.71h7.25q29.27,0,38.67-5.33t9.4-18.54q0-13.87-10.09-19.71t-38-5.84H56.22Zm115,107.83H115.55l-59.33-87.8v87.8H8V1.61H77q41.14,0,61.63,13.29t20.5,40a44.66,44.66,0,0,1-14,33.12q-14,13.74-36.21,16Z"/><path class="a" d="M56.25,81.67H63.5q29.27,0,38.67-5.33t9.4-18.55q0-13.86-10.09-19.7t-38-5.84H56.25Zm115,107.82H115.58l-59.33-87.8v87.8H8V1.57h69q41.14,0,61.63,13.28t20.5,40a44.69,44.69,0,0,1-14,33.12q-14,13.73-36.21,16Z"/><path class="a" d="M56.28,81.62h7.25q29.27,0,38.67-5.33t9.4-18.55q0-13.86-10.09-19.7t-38-5.84H56.28Zm115,107.83H115.61L56.28,101.64v87.81H8.05V1.52h69q41.14,0,61.63,13.29t20.5,40a44.69,44.69,0,0,1-14,33.12q-14,13.74-36.21,16Z"/><path class="a" d="M56.31,81.57h7.25q29.26,0,38.67-5.32t9.4-18.55q0-13.86-10.09-19.71t-38-5.84H56.31Zm115,107.83H115.64L56.31,101.6v87.8H8.08V1.47h69q41.14,0,61.63,13.29t20.5,40a44.65,44.65,0,0,1-14,33.11q-14,13.74-36.21,16Z"/><path class="a" d="M56.34,81.53h7.25q29.26,0,38.67-5.33t9.4-18.55q0-13.86-10.09-19.7t-38-5.84H56.34Zm115,107.82H115.67l-59.33-87.8v87.8H8.11V1.43h69q41.14,0,61.63,13.28t20.5,40a44.69,44.69,0,0,1-14,33.12q-14,13.74-36.21,16Z"/><path class="a" d="M56.37,81.48h7.25q29.26,0,38.67-5.33t9.4-18.54q0-13.87-10.09-19.71t-38-5.84H56.37Zm115,107.83H115.7l-59.33-87.8v87.8H8.14V1.38h69q41.14,0,61.63,13.29t20.5,40a44.69,44.69,0,0,1-14,33.12q-14,13.74-36.22,16Z"/><path class="a" d="M56.4,81.44h7.25q29.26,0,38.67-5.33t9.4-18.55q0-13.86-10.09-19.7T63.65,32H56.4Zm115,107.82H115.73L56.4,101.46v87.8H8.17V1.34h69q41.15,0,61.63,13.28t20.5,40a44.72,44.72,0,0,1-14,33.12q-14,13.72-36.22,16Z"/><path class="a" d="M56.43,81.39h7.25q29.26,0,38.67-5.33t9.4-18.55q0-13.86-10.09-19.7T63.68,32H56.43Zm115,107.83H115.76L56.43,101.41v87.81H8.2V1.29h69q41.15,0,61.63,13.29t20.5,40a44.72,44.72,0,0,1-14,33.12q-14,13.74-36.22,16Z"/><path class="a" d="M56.47,81.34h7.24Q93,81.34,102.38,76t9.4-18.55q0-13.86-10.09-19.71t-38-5.84H56.47Zm115,107.83H115.79l-59.32-87.8v87.8H8.23V1.24h69q41.15,0,61.63,13.29t20.5,40a44.68,44.68,0,0,1-14,33.11q-14,13.74-36.22,16.05Z"/><path class="a" d="M56.5,81.3h7.24Q93,81.3,102.41,76t9.4-18.55q0-13.86-10.09-19.7t-38-5.84H56.5Zm115,107.82H115.82L56.5,101.32v87.8H8.26V1.2h69q41.15,0,61.63,13.28t20.5,40a44.72,44.72,0,0,1-14,33.12q-14,13.74-36.22,16Z"/><path class="a" d="M56.53,81.25h7.24q29.26,0,38.67-5.33t9.4-18.54q0-13.87-10.09-19.71t-38-5.84H56.53Zm115,107.83H115.85l-59.32-87.8v87.8H8.29V1.15h69q41.15,0,61.63,13.29t20.5,40a44.7,44.7,0,0,1-14,33.12q-14,13.74-36.22,16Z"/><path class="a" d="M56.56,81.21H63.8q29.27,0,38.67-5.33t9.4-18.55q0-13.86-10.09-19.7t-38-5.84H56.56ZM171.51,189H115.88l-59.32-87.8V189H8.32V1.11h69q41.15,0,61.63,13.28t20.5,40a44.72,44.72,0,0,1-14,33.12q-14,13.73-36.22,16Z"/><path class="a" d="M56.59,81.16h7.24q29.27,0,38.67-5.33t9.4-18.55q0-13.86-10.09-19.7t-38-5.84H56.59ZM171.54,189H115.91L56.59,101.18V189H8.35V1.06h69q41.15,0,61.63,13.29t20.5,40a44.72,44.72,0,0,1-14,33.12q-14,13.74-36.22,16Z"/><path class="a" d="M56.62,81.11h7.24q29.27,0,38.67-5.32t9.4-18.55q0-13.87-10.09-19.71t-38-5.84H56.62Zm115,107.83H115.94l-59.32-87.8v87.8H8.38V1h69q41.15,0,61.63,13.29t20.5,40a44.69,44.69,0,0,1-14,33.12q-14,13.74-36.22,16Z"/><path class="a" d="M56.65,81.07h7.24q29.27,0,38.67-5.33T112,57.19q0-13.86-10.09-19.7t-38-5.84H56.65Zm115,107.82H116l-59.32-87.8v87.8H8.41V1h69q41.15,0,61.63,13.28t20.5,40a44.72,44.72,0,0,1-14,33.12q-14,13.74-36.22,16Z"/><path class="a" d="M56.68,81h7.24q29.27,0,38.67-5.33T112,57.14q0-13.86-10.09-19.7t-38-5.84H56.68Zm115,107.83H116l-59.32-87.8v87.8H8.44V.92h69q41.15,0,61.63,13.29t20.5,40a44.7,44.7,0,0,1-14,33.12q-14,13.74-36.22,16Z"/><path class="a" d="M56.71,81H64q29.26,0,38.67-5.32T112,57.1q0-13.86-10.09-19.7T64,31.55H56.71Zm115,107.83H116L56.71,101v87.8H8.47V.88h69q41.15,0,61.63,13.28t20.5,40a44.68,44.68,0,0,1-14,33.11q-14,13.74-36.22,16Z"/><path class="a" d="M56.74,80.93H64q29.26,0,38.67-5.33t9.4-18.55q0-13.86-10.09-19.7T64,31.51H56.74Zm115,107.83H116.06L56.74,101v87.81H8.5V.83h69q41.15,0,61.63,13.29t20.5,40a44.72,44.72,0,0,1-14,33.12q-14,13.74-36.22,16Z"/><path class="a" d="M56.77,80.88H64q29.26,0,38.67-5.32T112.08,57q0-13.87-10.09-19.71T64,31.46H56.77Zm115,107.83H116.09l-59.32-87.8v87.8H8.53V.78h69q41.15,0,61.63,13.29t20.5,40a44.69,44.69,0,0,1-14,33.12q-14,13.74-36.22,16Z"/><path class="a" d="M56.8,80.84H64q29.26,0,38.67-5.33T112.11,57q0-13.86-10.09-19.7T64,31.42H56.8Zm115,107.82H116.12L56.8,100.86v87.8H8.56V.74h69Q118.75.74,139.23,14t20.5,40a44.72,44.72,0,0,1-14,33.12q-14,13.73-36.22,16Z"/><path class="a" d="M56.83,80.79h7.24q29.27,0,38.67-5.33t9.4-18.55q0-13.86-10.09-19.7t-38-5.84H56.83Zm115,107.83H116.15l-59.32-87.8v87.8H8.59V.69h69Q118.78.69,139.26,14t20.5,40a44.7,44.7,0,0,1-14,33.12q-14,13.74-36.22,16Z"/><path class="a" d="M56.86,80.74H64.1q29.27,0,38.67-5.32t9.4-18.55q0-13.86-10.09-19.7t-38-5.85H56.86Zm115,107.83H116.18l-59.32-87.8v87.8H8.62V.64h69q41.15,0,61.63,13.29t20.5,40a44.68,44.68,0,0,1-14,33.11q-14,13.74-36.22,16Z"/><path class="a" d="M56.89,80.7h7.24q29.27,0,38.67-5.33t9.4-18.55q0-13.86-10.09-19.7t-38-5.84H56.89Zm115,107.83H116.21L56.89,100.72v87.81H8.65V.6h69q41.15,0,61.63,13.28t20.5,40A44.72,44.72,0,0,1,145.8,87q-14,13.74-36.22,16Z"/><path class="a" d="M56.92,80.65h7.24q29.27,0,38.67-5.32t9.4-18.55q0-13.87-10.09-19.71t-38-5.84H56.92Zm115,107.83H116.24l-59.32-87.8v87.8H8.68V.55h69q41.15,0,61.63,13.29t20.5,40a44.69,44.69,0,0,1-14,33.12q-14,13.74-36.22,16Z"/><path class="a" d="M57,80.61h7.24q29.27,0,38.67-5.33t9.4-18.55q0-13.86-10.09-19.7t-38-5.84H57Zm115,107.82H116.27L57,100.63v87.8H8.71V.51h69q41.15,0,61.63,13.28t20.5,40a44.72,44.72,0,0,1-14,33.12q-14,13.72-36.21,16Z"/><path class="a" d="M57,80.56h7.24q29.27,0,38.67-5.33t9.4-18.55q0-13.86-10.09-19.7t-38-5.84H57Zm115,107.83H116.3L57,100.59v87.8H8.74V.46h69q41.14,0,61.63,13.29t20.5,40a44.72,44.72,0,0,1-14,33.12q-14,13.74-36.21,16.05Z"/><path class="a" d="M57,80.51h7.24q29.27,0,38.67-5.32t9.4-18.55q0-13.86-10.09-19.7t-38-5.85H57ZM172,188.34H116.33L57,100.54v87.8H8.77V.41h69Q119,.41,139.44,13.7t20.5,40a44.68,44.68,0,0,1-14,33.11q-14,13.74-36.21,16Z"/><path class="a" d="M57,80.47h7.24q29.27,0,38.67-5.33t9.4-18.55q0-13.86-10.09-19.7t-38-5.84H57ZM172,188.3H116.36L57,100.49V188.3H8.8V.37h69q41.14,0,61.63,13.28t20.5,40a44.72,44.72,0,0,1-14,33.12q-14,13.74-36.21,16Z"/><path class="a" d="M57.07,80.42h7.24q29.26,0,38.67-5.33t9.4-18.54q0-13.87-10.09-19.71T64.31,31H57.07ZM172,188.25H116.39l-59.32-87.8v87.8H8.83V.32h69Q119,.32,139.5,13.61t20.5,40a44.69,44.69,0,0,1-14,33.12q-14,13.74-36.21,16.05Z"/><path class="a" d="M57.1,80.38h7.24q29.26,0,38.67-5.33t9.4-18.55q0-13.86-10.09-19.7T64.34,31H57.1Zm115,107.82H116.42L57.1,100.4v87.8H8.86V.28h69q41.14,0,61.63,13.28t20.5,40a44.72,44.72,0,0,1-14,33.12q-14,13.72-36.21,16Z"/><path class="a" d="M57.13,80.33h7.24q29.26,0,38.68-5.33t9.39-18.55q0-13.86-10.09-19.7t-38-5.84H57.13Zm115,107.83H116.45l-59.32-87.8v87.8H8.89V.23h69q41.14,0,61.63,13.29t20.5,40a44.72,44.72,0,0,1-14,33.12q-14,13.74-36.21,16Z"/><path class="a" d="M57.16,80.28H64.4q29.26,0,38.68-5.32t9.39-18.55q0-13.86-10.09-19.71t-38-5.84H57.16Zm115,107.83H116.48l-59.32-87.8v87.8H8.92V.18H78q41.15,0,61.63,13.29t20.5,40a44.68,44.68,0,0,1-14,33.11q-14,13.74-36.21,16.05Z"/><path class="a" d="M57.19,80.24h7.24q29.26,0,38.68-5.33t9.39-18.55q0-13.86-10.09-19.7t-38-5.84H57.19Zm115,107.82H116.51l-59.32-87.8v87.8H9V.14H78q41.15,0,61.63,13.28t20.5,40a44.72,44.72,0,0,1-14,33.12q-14,13.74-36.21,16Z"/><path class="a" d="M57.22,80.19h7.24q29.28,0,38.68-5.33t9.39-18.54q0-13.87-10.09-19.71t-38-5.84H57.22ZM172.17,188H116.54l-59.32-87.8V188H9V.09H78q41.15,0,61.63,13.29t20.5,40a44.69,44.69,0,0,1-14,33.12q-14,13.74-36.21,16Z"/><path class="a" d="M57.25,80.15h7.24q29.28,0,38.68-5.33t9.39-18.55q0-13.86-10.09-19.7t-38-5.84H57.25ZM172.2,188H116.57l-59.32-87.8V188H9V.05h69q41.15,0,61.63,13.28t20.5,40a44.72,44.72,0,0,1-14,33.12q-14,13.73-36.21,16Z"/><path class="a" d="M57.28,80.1h7.24q29.28,0,38.68-5.33t9.39-18.55q0-13.86-10.09-19.7t-38-5.84H57.28Zm115,107.83H116.6L57.28,100.12v87.81H9V0h69q41.15,0,61.63,13.29t20.5,40a44.72,44.72,0,0,1-14,33.12q-14,13.74-36.21,16Z"/><path class="b" d="M172.23,187.93H116.6L57.28,100.12v87.81H9V0h69q41.15,0,61.63,13.29t20.5,40a44.72,44.72,0,0,1-14,33.12q-14,13.74-36.21,16ZM57.28,80.1h7.24q29.28,0,38.68-5.33t9.39-18.55q0-13.86-10.09-19.7t-38-5.84H57.28Z"/></svg>