<svg xmlns="http://www.w3.org/2000/svg" viewBox="0 0 178.65 196.49"><defs><style>.a{fill:#fed700;}.b{fill:#115174;}</style></defs><path class="a" d="M63.69,88.66h7.25q29.27,0,38.67-5.32T119,64.79q0-13.88-10.09-19.71t-38-5.84H63.69Zm115,107.83H123l-59.33-87.8v87.8H15.46V8.56h69q41.13,0,61.63,13.29t20.5,40A44.66,44.66,0,0,1,152.6,95q-14,13.74-36.21,16Z"/><path class="a" d="M63.64,88.63h7.24q29.28,0,38.68-5.32T119,64.76q0-13.86-10.09-19.71t-38-5.84H63.64Zm115,107.83H123l-59.33-87.8v87.8H15.41V8.54h69q41.15,0,61.64,13.28t20.49,40a44.64,44.64,0,0,1-14,33.11q-14,13.74-36.21,16Z"/><path class="a" d="M63.59,88.61h7.24q29.28,0,38.68-5.33t9.4-18.55q0-13.86-10.09-19.7t-38-5.84H63.59Zm115,107.82H122.92l-59.33-87.8v87.8H15.36V8.51h69q41.15,0,61.64,13.28t20.49,40a44.68,44.68,0,0,1-14,33.12q-14,13.72-36.21,16Z"/><path class="a" d="M63.54,88.58h7.24q29.28,0,38.68-5.33t9.4-18.55q0-13.86-10.1-19.7t-38-5.84H63.54Zm115,107.82H122.86L63.54,108.6v87.8H15.31V8.48h69q41.14,0,61.64,13.28t20.49,40a44.68,44.68,0,0,1-14,33.12q-14,13.74-36.21,16Z"/><path class="a" d="M63.49,88.55h7.24q29.28,0,38.68-5.33t9.4-18.55q0-13.86-10.1-19.7t-38-5.84H63.49Zm115,107.83H122.81L63.49,108.57v87.81H15.26V8.45h69q41.15,0,61.64,13.28t20.49,40a44.72,44.72,0,0,1-14,33.12q-14,13.74-36.21,16Z"/><path class="a" d="M63.44,88.52h7.24q29.28,0,38.68-5.33t9.39-18.55q0-13.86-10.09-19.7t-38-5.84H63.44Zm115,107.83H122.76l-59.32-87.8v87.8H15.21V8.42h69q41.15,0,61.63,13.29t20.5,40a44.7,44.7,0,0,1-14,33.12q-14,13.74-36.21,16Z"/><path class="a" d="M63.39,88.49h7.24q29.27,0,38.67-5.32t9.4-18.55q0-13.88-10.09-19.71t-38-5.84H63.39Zm115,107.83H122.71l-59.32-87.8v87.8H15.15V8.39h69q41.15,0,61.63,13.29t20.5,40a44.69,44.69,0,0,1-14,33.12q-14,13.74-36.22,16Z"/><path class="a" d="M63.33,88.46h7.25q29.27,0,38.67-5.32t9.4-18.55q0-13.86-10.09-19.71T70.58,39H63.33Zm115,107.83H122.66l-59.33-87.8v87.8H15.1V8.36h69q41.13,0,61.63,13.29t20.5,40a44.65,44.65,0,0,1-14,33.11q-14,13.74-36.21,16Z"/><path class="a" d="M63.28,88.44h7.24q29.28,0,38.68-5.33t9.4-18.55q0-13.86-10.09-19.7T70.52,39H63.28Zm115,107.82H122.61l-59.33-87.8v87.8H15.05V8.34h69q41.15,0,61.64,13.28t20.5,40a44.69,44.69,0,0,1-14,33.12q-14,13.72-36.21,16Z"/><path class="a" d="M63.23,88.41h7.24q29.28,0,38.68-5.33t9.4-18.55q0-13.86-10.09-19.7T70.47,39H63.23Zm115,107.82H122.56l-59.33-87.8v87.8H15V8.31H84q41.14,0,61.64,13.28t20.49,40a44.68,44.68,0,0,1-14,33.12q-14,13.72-36.21,16Z"/><path class="a" d="M63.18,88.38h7.24q29.28,0,38.68-5.33t9.4-18.55q0-13.86-10.09-19.7T70.42,39H63.18Zm115,107.82H122.5L63.18,108.4v87.8H15V8.28H84q41.15,0,61.64,13.28t20.49,40a44.68,44.68,0,0,1-14,33.12q-14,13.74-36.21,16Z"/><path class="a" d="M63.13,88.35h7.24q29.28,0,38.68-5.33t9.4-18.55q0-13.86-10.1-19.7t-38-5.84H63.13Zm115,107.83H122.45L63.13,108.37v87.81H14.9V8.25h69q41.14,0,61.64,13.29t20.49,40a44.68,44.68,0,0,1-14,33.12q-14,13.74-36.21,16Z"/><path class="a" d="M63.08,88.32h7.24Q99.6,88.32,109,83t9.4-18.54q0-13.87-10.1-19.71t-38-5.84H63.08ZM178,196.15H122.4l-59.32-87.8v87.8H14.85V8.22h69q41.15,0,61.64,13.29t20.49,40a44.69,44.69,0,0,1-14,33.12q-14,13.74-36.21,16Z"/><path class="a" d="M63,88.29h7.24q29.27,0,38.67-5.32t9.4-18.55q0-13.86-10.09-19.71t-38-5.84H63ZM178,196.12H122.35L63,108.32v87.8H14.79V8.19h69q41.15,0,61.63,13.29t20.5,40a44.68,44.68,0,0,1-14,33.11q-14,13.74-36.22,16Z"/><path class="a" d="M63,88.26h7.25q29.27,0,38.67-5.32t9.4-18.55q0-13.86-10.09-19.71t-38-5.84H63Zm115,107.83H122.3L63,108.29v87.8H14.74V8.17h69q41.13,0,61.63,13.28t20.5,40a44.65,44.65,0,0,1-14,33.11q-14,13.74-36.21,16Z"/><path class="a" d="M62.92,88.24h7.25q29.27,0,38.67-5.33t9.4-18.55q0-13.86-10.09-19.7t-38-5.84H62.92Zm115,107.82H122.25l-59.33-87.8v87.8H14.69V8.14h69q41.15,0,61.64,13.28t20.5,40a44.69,44.69,0,0,1-14,33.12q-14,13.73-36.21,16Z"/><path class="a" d="M62.87,88.21h7.24q29.28,0,38.68-5.33t9.4-18.55q0-13.86-10.09-19.7t-38-5.84H62.87ZM177.82,196H122.2l-59.33-87.8V196H14.64V8.11h69q41.15,0,61.64,13.28t20.49,40a44.68,44.68,0,0,1-14,33.12q-14,13.74-36.21,16Z"/><path class="a" d="M62.82,88.18h7.24q29.28,0,38.68-5.33t9.4-18.55q0-13.86-10.09-19.7t-38-5.84H62.82ZM177.77,196H122.15L62.82,108.2V196H14.59V8.08h69q41.14,0,61.64,13.29t20.49,40a44.68,44.68,0,0,1-14,33.12q-14,13.74-36.21,16Z"/><path class="a" d="M62.77,88.15H70q29.28,0,38.68-5.33t9.4-18.54q0-13.87-10.1-19.71T70,38.73H62.77ZM177.72,196H122.09l-59.32-87.8V196H14.54V8.05h69q41.15,0,61.64,13.29t20.49,40a44.66,44.66,0,0,1-14,33.12q-14,13.74-36.21,16Z"/><path class="a" d="M62.72,88.12H70q29.28,0,38.68-5.32T118,64.25q0-13.87-10.1-19.71T70,38.7H62.72ZM177.67,196H122l-59.32-87.8V196H14.49V8h69q41.15,0,61.64,13.29t20.49,40a44.69,44.69,0,0,1-14,33.12q-14,13.74-36.21,16Z"/><path class="a" d="M62.67,88.09h7.24q29.27,0,38.67-5.32T118,64.22q0-13.86-10.09-19.71t-38-5.84H62.67Zm115,107.83H122l-59.32-87.8v87.8H14.43V8h69q41.15,0,61.63,13.29t20.5,40a44.68,44.68,0,0,1-14,33.11q-14,13.74-36.21,16.05Z"/><path class="a" d="M62.61,88.07h7.25q29.27,0,38.67-5.33t9.4-18.55q0-13.86-10.09-19.7t-38-5.85H62.61Zm115,107.82H121.94l-59.33-87.8v87.8H14.38V8h69q41.15,0,61.63,13.28t20.5,40a44.69,44.69,0,0,1-14,33.12q-14,13.73-36.21,16Z"/><path class="a" d="M62.56,88h7.25q29.26,0,38.67-5.33t9.4-18.55q0-13.86-10.09-19.7t-38-5.84H62.56Zm115,107.82H121.89l-59.33-87.8v87.8H14.33V7.94h69q41.13,0,61.63,13.28t20.5,40a44.69,44.69,0,0,1-14,33.12q-14,13.73-36.21,16Z"/><path class="a" d="M62.51,88h7.24Q99,88,108.43,82.68t9.4-18.55q0-13.86-10.09-19.7t-38-5.84H62.51Zm115,107.82H121.84L62.51,108v87.8H14.28V7.91h69q41.14,0,61.64,13.28t20.49,40a44.68,44.68,0,0,1-14,33.12q-14,13.74-36.21,16Z"/><path class="a" d="M62.46,88H69.7Q99,88,108.38,82.65t9.4-18.55q0-13.86-10.09-19.7t-38-5.84H62.46Zm115,107.83H121.79L62.46,108v87.81H14.23V7.88h69q41.15,0,61.64,13.29t20.49,40a44.66,44.66,0,0,1-14,33.12q-14,13.74-36.21,16Z"/><path class="a" d="M62.41,88h7.24q29.28,0,38.68-5.33t9.4-18.54q0-13.87-10.1-19.71t-38-5.84H62.41Zm115,107.83H121.73L62.41,108v87.8H14.18V7.85h69q41.15,0,61.64,13.29t20.49,40a44.65,44.65,0,0,1-14,33.12q-14,13.74-36.21,16.05Z"/><path class="a" d="M62.36,87.92H69.6q29.28,0,38.68-5.32t9.4-18.55q0-13.86-10.1-19.71t-38-5.84H62.36Zm115,107.83H121.68L62.36,108v87.8H14.13V7.82h69q41.15,0,61.64,13.29t20.49,40a44.68,44.68,0,0,1-14,33.11q-14,13.74-36.21,16.05Z"/><path class="a" d="M62.31,87.89h7.24q29.28,0,38.68-5.32T117.62,64q0-13.86-10.09-19.71t-38-5.84H62.31Zm115,107.83H121.63l-59.32-87.8v87.8H14.07V7.8h69q41.15,0,61.63,13.28t20.5,40a44.68,44.68,0,0,1-14,33.11q-14,13.74-36.21,16Z"/><path class="a" d="M62.26,87.87H69.5q29.27,0,38.67-5.33T117.57,64q0-13.86-10.09-19.7t-38-5.84H62.26Zm115,107.82H121.58l-59.32-87.8v87.8H14V7.77h69q41.14,0,61.63,13.28t20.5,40a44.72,44.72,0,0,1-14,33.12q-14,13.73-36.22,16Z"/><path class="a" d="M62.2,87.84h7.25q29.26,0,38.67-5.33T117.52,64q0-13.86-10.09-19.7t-38-5.84H62.2Zm115,107.82H121.53L62.2,107.86v87.8H14V7.74H83q41.13,0,61.63,13.28t20.5,40a44.69,44.69,0,0,1-14,33.12q-14,13.74-36.21,16Z"/><path class="a" d="M62.15,87.81h7.24q29.28,0,38.68-5.33t9.4-18.55q0-13.86-10.09-19.7t-38-5.84H62.15Zm115,107.83H121.48L62.15,107.83v87.81H13.92V7.71H83q41.15,0,61.64,13.29t20.49,40a44.68,44.68,0,0,1-14,33.12q-14,13.74-36.21,16Z"/><path class="a" d="M62.1,87.78h7.24q29.28,0,38.68-5.33t9.4-18.54q0-13.87-10.09-19.71t-38-5.84H62.1Zm115,107.83H121.43L62.1,107.81v87.8H13.87V7.68h69Q124,7.68,144.54,21T165,61a44.66,44.66,0,0,1-14,33.12q-14,13.74-36.21,16.05Z"/><path class="a" d="M62.05,87.75h7.24q29.28,0,38.68-5.32t9.4-18.55q0-13.87-10.09-19.71t-38-5.84H62.05ZM177,195.58H121.37l-59.32-87.8v87.8H13.82V7.65h69q41.15,0,61.64,13.29t20.49,40A44.65,44.65,0,0,1,151,94q-14,13.74-36.21,16Z"/><path class="a" d="M62,87.72h7.24q29.28,0,38.68-5.32t9.4-18.55q0-13.86-10.1-19.71t-38-5.84H62ZM177,195.55H121.32L62,107.75v87.8H13.77V7.62h69q41.15,0,61.64,13.29t20.49,40a44.64,44.64,0,0,1-14,33.11q-14,13.74-36.21,16Z"/><path class="a" d="M62,87.7h7.24q29.28,0,38.68-5.33t9.4-18.55q0-13.86-10.1-19.7t-38-5.85H62Zm115,107.82H121.27L62,107.72v87.8H13.72V7.6h69q41.15,0,61.64,13.28t20.49,40a44.72,44.72,0,0,1-14,33.12q-14,13.73-36.21,16Z"/><path class="a" d="M61.9,87.67h7.24q29.27,0,38.67-5.33t9.4-18.55q0-13.86-10.09-19.7t-38-5.84H61.9Zm115,107.82H121.22L61.9,107.69v87.8H13.66V7.57h69q41.15,0,61.63,13.28t20.5,40a44.72,44.72,0,0,1-14,33.12q-14,13.73-36.22,16Z"/><path class="a" d="M61.84,87.64h7.25q29.26,0,38.67-5.33t9.4-18.55q0-13.86-10.09-19.7t-38-5.84H61.84Zm115,107.83H121.17L61.84,107.66v87.81H13.61V7.54h69q41.13,0,61.63,13.28t20.5,40a44.69,44.69,0,0,1-14,33.12q-14,13.74-36.21,16Z"/><path class="a" d="M61.79,87.61H69q29.28,0,38.68-5.33t9.4-18.55q0-13.86-10.09-19.7T69,38.19H61.79Zm115,107.83H121.12L61.79,107.63v87.81H13.56V7.51h69q41.14,0,61.64,13.29t20.5,40a44.67,44.67,0,0,1-14,33.12q-14,13.74-36.21,16Z"/><path class="a" d="M61.74,87.58H69q29.28,0,38.68-5.33t9.4-18.54Q117.06,49.84,107,44T69,38.16H61.74Zm115,107.83H121.07l-59.33-87.8v87.8H13.51V7.48h69q41.15,0,61.64,13.29t20.49,40a44.65,44.65,0,0,1-14,33.12q-14,13.74-36.21,16Z"/><path class="a" d="M61.69,87.55h7.24q29.28,0,38.68-5.32T117,63.68Q117,49.82,106.92,44t-38-5.84H61.69Zm115,107.83H121l-59.33-87.8v87.8H13.46V7.45h69q41.15,0,61.64,13.29t20.49,40a44.64,44.64,0,0,1-14,33.11q-14,13.74-36.21,16Z"/><path class="a" d="M61.64,87.53h7.24q29.28,0,38.68-5.33T117,63.65q0-13.86-10.1-19.7t-38-5.85H61.64Zm115,107.82H121l-59.32-87.8v87.8H13.41V7.43h69q41.15,0,61.64,13.28t20.49,40a44.68,44.68,0,0,1-14,33.12q-14,13.73-36.21,16Z"/><path class="a" d="M61.59,87.5h7.24q29.28,0,38.68-5.33t9.4-18.55q0-13.86-10.1-19.7t-38-5.84H61.59Zm115,107.82H120.91l-59.32-87.8v87.8H13.36V7.4h69q41.15,0,61.64,13.28t20.49,40a44.72,44.72,0,0,1-14,33.12q-14,13.72-36.21,16Z"/><path class="a" d="M61.54,87.47h7.24q29.27,0,38.67-5.33t9.4-18.55q0-13.86-10.09-19.7t-38-5.84H61.54Zm115,107.82H120.86l-59.32-87.8v87.8H13.3V7.37h69q41.14,0,61.63,13.28t20.5,40a44.72,44.72,0,0,1-14,33.12q-14,13.74-36.21,16Z"/><path class="a" d="M61.48,87.44h7.25q29.26,0,38.67-5.33t9.4-18.55q0-13.86-10.09-19.7T68.73,38H61.48Zm115,107.83H120.81L61.48,107.46v87.81H13.25V7.34h69q41.13,0,61.63,13.29t20.5,40a44.69,44.69,0,0,1-14,33.12q-14,13.74-36.21,16Z"/><path class="a" d="M61.43,87.41h7.25q29.26,0,38.67-5.33t9.4-18.54q0-13.87-10.09-19.71T68.68,38H61.43Zm115,107.83H120.76l-59.33-87.8v87.8H13.2V7.31h69q41.15,0,61.64,13.29t20.5,40a44.66,44.66,0,0,1-14,33.12q-14,13.74-36.21,16Z"/><path class="a" d="M61.38,87.38h7.24q29.28,0,38.68-5.32t9.4-18.55q0-13.87-10.09-19.71T68.62,38H61.38Zm115,107.83H120.71l-59.33-87.8v87.8H13.15V7.28h69q41.14,0,61.64,13.29t20.49,40a44.65,44.65,0,0,1-14,33.12q-14,13.74-36.21,16Z"/><path class="a" d="M61.33,87.35h7.24q29.28,0,38.68-5.32t9.4-18.55q0-13.86-10.09-19.71t-38-5.84H61.33Zm115,107.83H120.66l-59.33-87.8v87.8H13.1V7.25h69q41.15,0,61.64,13.29t20.49,40a44.64,44.64,0,0,1-14,33.11q-14,13.74-36.21,16Z"/><path class="a" d="M61.28,87.33h7.24q29.28,0,38.68-5.33t9.4-18.55q0-13.86-10.1-19.7t-38-5.84H61.28Zm115,107.82H120.6l-59.32-87.8v87.8H13.05V7.23h69q41.15,0,61.64,13.28t20.49,40a44.68,44.68,0,0,1-14,33.12q-14,13.72-36.21,16Z"/><path class="a" d="M61.23,87.3h7.24q29.28,0,38.68-5.33t9.4-18.55q0-13.86-10.1-19.7t-38-5.84H61.23Zm115,107.82H120.55l-59.32-87.8v87.8H13V7.2H82q41.14,0,61.64,13.28t20.49,40a44.72,44.72,0,0,1-14,33.12q-14,13.72-36.21,16Z"/><path class="a" d="M61.18,87.27h7.24q29.28,0,38.68-5.33t9.39-18.55q0-13.86-10.09-19.7t-38-5.84H61.18Zm115,107.83H120.5L61.18,107.29V195.1H12.94V7.17H82q41.15,0,61.63,13.28t20.5,40a44.72,44.72,0,0,1-14,33.12q-14,13.74-36.21,16Z"/><path class="a" d="M61.12,87.24h7.25q29.26,0,38.67-5.33t9.4-18.55q0-13.86-10.09-19.7t-38-5.84H61.12Zm115,107.83H120.45l-59.33-87.8v87.8H12.89V7.14h69q41.14,0,61.63,13.29t20.5,40a44.7,44.7,0,0,1-14,33.12q-14,13.74-36.22,16Z"/><path class="a" d="M61.07,87.21h7.25q29.27,0,38.67-5.33t9.4-18.54q0-13.87-10.09-19.71t-38-5.84H61.07ZM176,195H120.4l-59.33-87.8V195H12.84V7.11h69q41.13,0,61.63,13.29t20.5,40A44.66,44.66,0,0,1,150,93.5q-14,13.74-36.21,16Z"/><path class="a" d="M61,87.18h7.24q29.28,0,38.68-5.32t9.4-18.55q0-13.86-10.09-19.71t-38-5.84H61ZM176,195H120.35L61,107.21V195H12.79V7.08h69q41.15,0,61.64,13.29t20.49,40a44.64,44.64,0,0,1-14,33.11q-14,13.74-36.21,16Z"/><path class="a" d="M61,87.16h7.24q29.28,0,38.68-5.33t9.4-18.55q0-13.86-10.09-19.7t-38-5.85H61ZM175.92,195H120.3L61,107.18V195H12.74V7.06h69q41.15,0,61.64,13.28t20.49,40a44.68,44.68,0,0,1-14,33.12q-14,13.72-36.21,16Z"/><path class="a" d="M60.92,87.13h7.24q29.28,0,38.68-5.33t9.4-18.55q0-13.86-10.09-19.7t-38-5.84H60.92ZM175.87,195H120.24l-59.32-87.8V195H12.69V7h69q41.15,0,61.64,13.28t20.49,40a44.68,44.68,0,0,1-14,33.12q-14,13.72-36.21,16Z"/><path class="a" d="M60.87,87.1h7.24q29.28,0,38.68-5.33t9.4-18.55q0-13.86-10.1-19.7t-38-5.84H60.87Zm115,107.82H120.19l-59.32-87.8v87.8H12.64V7h69q41.15,0,61.64,13.28t20.49,40a44.72,44.72,0,0,1-14,33.12q-14,13.74-36.21,16Z"/><path class="a" d="M60.82,87.07h7.24q29.28,0,38.68-5.33t9.4-18.55q0-13.86-10.1-19.7t-38-5.84H60.82Zm115,107.83H120.14L60.82,107.09V194.9H12.59V7h69q41.14,0,61.64,13.29t20.49,40a44.72,44.72,0,0,1-14,33.12q-14,13.74-36.21,16Z"/><path class="a" d="M60.77,87H68q29.26,0,38.67-5.33t9.4-18.54q0-13.87-10.09-19.71T68,37.62H60.77Zm115,107.83H120.09l-59.32-87.8v87.8H12.53V6.94h69q41.15,0,61.63,13.29t20.5,40a44.69,44.69,0,0,1-14,33.12q-14,13.74-36.22,16Z"/><path class="a" d="M60.71,87H68q29.27,0,38.67-5.32T116,63.14q0-13.87-10.09-19.71T68,37.59H60.71Zm115,107.83H120L60.71,107v87.8H12.48V6.91h69q41.13,0,61.63,13.29t20.5,40a44.66,44.66,0,0,1-14,33.12q-14,13.74-36.21,16Z"/><path class="a" d="M60.66,87H67.9q29.28,0,38.68-5.32T116,63.11q0-13.86-10.09-19.71t-38-5.84H60.66Zm115,107.83H120L60.66,107v87.8H12.43V6.88h69q41.15,0,61.64,13.29t20.5,40a44.65,44.65,0,0,1-14,33.11q-14,13.74-36.21,16Z"/><path class="a" d="M60.61,87h7.24q29.28,0,38.68-5.33t9.4-18.55q0-13.86-10.09-19.7t-38-5.84H60.61Zm115,107.82H119.94L60.61,107v87.8H12.38V6.86h69q41.15,0,61.64,13.28t20.49,40a44.68,44.68,0,0,1-14,33.12q-14,13.73-36.21,16Z"/><path class="a" d="M60.56,86.93H67.8q29.28,0,38.68-5.33t9.4-18.55q0-13.86-10.09-19.7t-38-5.84H60.56Zm115,107.82H119.89L60.56,107v87.8H12.33V6.83h69q41.15,0,61.64,13.28t20.49,40a44.68,44.68,0,0,1-14,33.12q-14,13.74-36.21,16Z"/><path class="a" d="M60.51,86.9h7.24q29.28,0,38.68-5.33T115.83,63q0-13.86-10.1-19.7t-38-5.84H60.51Zm115,107.83H119.83L60.51,106.92v87.81H12.28V6.8h69q41.14,0,61.64,13.28t20.49,40a44.68,44.68,0,0,1-14,33.12q-14,13.74-36.21,16Z"/><path class="a" d="M60.46,86.87H67.7q29.28,0,38.68-5.33T115.78,63q0-13.86-10.1-19.7t-38-5.84H60.46Zm115,107.83H119.78L60.46,106.9v87.8H12.23V6.77h69q41.15,0,61.64,13.29t20.49,40a44.7,44.7,0,0,1-14,33.12q-14,13.74-36.21,16Z"/><path class="a" d="M60.41,86.84h7.24q29.26,0,38.67-5.32T115.72,63q0-13.87-10.09-19.71t-38-5.84H60.41Zm115,107.83H119.73l-59.32-87.8v87.8H12.17V6.74h69q41.15,0,61.63,13.29t20.5,40a44.69,44.69,0,0,1-14,33.12q-14,13.74-36.22,16.05Z"/><path class="a" d="M60.35,86.81H67.6q29.27,0,38.67-5.32t9.4-18.55q0-13.86-10.09-19.71t-38-5.84H60.35Zm115,107.83H119.68l-59.33-87.8v87.8H12.12V6.71h69q41.13,0,61.63,13.29t20.5,40a44.65,44.65,0,0,1-14,33.11q-14,13.74-36.21,16.05Z"/><path class="a" d="M60.3,86.79h7.25q29.27,0,38.67-5.33t9.4-18.55q0-13.86-10.09-19.7t-38-5.85H60.3Zm115,107.82H119.63L60.3,106.81v87.8H12.07V6.69h69q41.15,0,61.64,13.28t20.5,40a44.69,44.69,0,0,1-14,33.12q-14,13.73-36.21,16Z"/><path class="a" d="M60.25,86.76h7.24q29.28,0,38.68-5.33t9.4-18.55q0-13.86-10.09-19.7t-38-5.84H60.25Zm115,107.82H119.58l-59.33-87.8v87.8H12V6.66h69q41.15,0,61.64,13.28t20.49,40a44.68,44.68,0,0,1-14,33.12q-14,13.73-36.21,16Z"/><path class="a" d="M60.2,86.73h7.24q29.28,0,38.68-5.33t9.4-18.55q0-13.86-10.09-19.7t-38-5.84H60.2Zm115,107.82H119.53L60.2,106.75v87.8H12V6.63H81q41.15,0,61.64,13.28t20.49,40a44.68,44.68,0,0,1-14,33.12q-14,13.74-36.21,16Z"/><path class="a" d="M60.15,86.7h7.24q29.28,0,38.68-5.33t9.4-18.55q0-13.86-10.1-19.7t-38-5.84H60.15Zm115,107.83H119.47L60.15,106.72v87.81H11.92V6.6H81q41.15,0,61.64,13.29t20.49,40a44.68,44.68,0,0,1-14,33.12Q135,106.73,112.85,109Z"/><path class="a" d="M60.1,86.67h7.24q29.28,0,38.68-5.33t9.4-18.54q0-13.87-10.1-19.71t-38-5.84H60.1Zm115,107.83H119.42L60.1,106.7v87.8H11.87V6.57h69q41.14,0,61.64,13.29t20.49,40A44.69,44.69,0,0,1,149,93Q135,106.7,112.8,109Z"/><path class="a" d="M60.05,86.64h7.24q29.26,0,38.68-5.32t9.39-18.55q0-13.87-10.09-19.71t-38-5.84H60.05ZM175,194.47H119.37l-59.32-87.8v87.8H11.81V6.54h69q41.15,0,61.63,13.29t20.5,40a44.68,44.68,0,0,1-14,33.11q-14,13.74-36.21,16Z"/><path class="a" d="M60,86.61h7.25q29.27,0,38.67-5.32t9.4-18.55q0-13.86-10.09-19.71t-38-5.84H60ZM175,194.44H119.32L60,106.64v87.8H11.76V6.52h69q41.15,0,61.63,13.28t20.5,40a44.65,44.65,0,0,1-14,33.11q-14,13.74-36.21,16Z"/><path class="a" d="M59.94,86.59h7.25q29.27,0,38.67-5.33t9.4-18.55q0-13.86-10.09-19.7t-38-5.84H59.94Zm115,107.82H119.27l-59.33-87.8v87.8H11.71V6.49h69q41.13,0,61.63,13.28t20.5,40a44.69,44.69,0,0,1-14,33.12q-14,13.73-36.21,16Z"/><path class="a" d="M59.89,86.56h7.24q29.28,0,38.68-5.33t9.4-18.55q0-13.86-10.09-19.7t-38-5.84H59.89Zm115,107.82H119.22l-59.33-87.8v87.8H11.66V6.46h69q41.15,0,61.64,13.28t20.49,40a44.68,44.68,0,0,1-14,33.12q-14,13.74-36.21,16Z"/><path class="a" d="M59.84,86.53h7.24q29.28,0,38.68-5.33t9.4-18.55q0-13.86-10.09-19.7t-38-5.84H59.84Zm115,107.83H119.17L59.84,106.55v87.81H11.61V6.43h69q41.15,0,61.64,13.29t20.49,40a44.68,44.68,0,0,1-14,33.12q-14,13.74-36.21,16Z"/><path class="a" d="M59.79,86.5H67q29.28,0,38.68-5.33t9.4-18.55q0-13.86-10.1-19.7T67,37.08H59.79Zm115,107.83H119.11l-59.32-87.8v87.8H11.56V6.4h69q41.14,0,61.64,13.29t20.49,40a44.66,44.66,0,0,1-14,33.12q-14,13.74-36.21,16Z"/><path class="a" d="M59.74,86.47H67q29.28,0,38.68-5.32t9.4-18.55q0-13.87-10.1-19.71T67,37.05H59.74Zm115,107.83H119.06L59.74,106.5v87.8H11.51V6.37h69q41.15,0,61.64,13.29t20.49,40a44.69,44.69,0,0,1-14,33.12q-14,13.74-36.21,16Z"/><path class="a" d="M59.69,86.44h7.24q29.28,0,38.68-5.32T115,62.57q0-13.86-10.09-19.71T66.93,37H59.69Zm115,107.83H119l-59.32-87.8v87.8H11.46V6.34h69q41.15,0,61.64,13.29t20.49,40a44.68,44.68,0,0,1-14,33.11q-14,13.74-36.21,16Z"/><path class="a" d="M59.64,86.42h7.24q29.27,0,38.67-5.33T115,62.54q0-13.86-10.09-19.7T66.88,37H59.64Zm115,107.82H119l-59.32-87.8v87.8H11.4V6.32h69q41.15,0,61.63,13.28t20.5,40a44.72,44.72,0,0,1-14,33.12q-14,13.73-36.22,16Z"/><path class="a" d="M59.58,86.39h7.25q29.27,0,38.67-5.33t9.4-18.55q0-13.86-10.09-19.7T66.83,37H59.58Zm115,107.82H118.91l-59.33-87.8v87.8H11.35V6.29h69q41.13,0,61.63,13.28t20.5,40a44.69,44.69,0,0,1-14,33.12q-14,13.72-36.21,16Z"/><path class="a" d="M59.53,86.36h7.24q29.28,0,38.68-5.33t9.4-18.55q0-13.86-10.09-19.7t-38-5.84H59.53Zm115,107.83H118.86L59.53,106.38v87.81H11.3V6.26h69q41.15,0,61.64,13.28t20.5,40a44.69,44.69,0,0,1-14,33.12q-14,13.74-36.21,16Z"/><path class="a" d="M59.48,86.33h7.24Q96,86.33,105.4,81t9.4-18.55q0-13.86-10.09-19.7t-38-5.84H59.48Zm115,107.83H118.81L59.48,106.35v87.81H11.25V6.23h69q41.14,0,61.64,13.29t20.49,40a44.68,44.68,0,0,1-14,33.12q-14,13.74-36.21,16Z"/><path class="a" d="M59.43,86.3h7.24q29.28,0,38.68-5.33t9.4-18.54q0-13.87-10.09-19.71t-38-5.84H59.43Zm115,107.83H118.75l-59.32-87.8v87.8H11.2V6.2h69q41.15,0,61.64,13.29t20.49,40a44.65,44.65,0,0,1-14,33.12q-14,13.74-36.21,16Z"/><path class="a" d="M59.38,86.27h7.24q29.28,0,38.68-5.32t9.4-18.55q0-13.86-10.1-19.71t-38-5.84H59.38Zm115,107.83H118.7L59.38,106.3v87.8H11.15V6.17h69q41.14,0,61.64,13.29t20.49,40a44.64,44.64,0,0,1-14,33.11q-14,13.74-36.21,16Z"/><path class="a" d="M59.33,86.24h7.24q29.28,0,38.68-5.32t9.4-18.55q0-13.86-10.1-19.7t-38-5.85H59.33Zm115,107.83H118.65l-59.32-87.8v87.8H11.1V6.15h69q41.15,0,61.64,13.28t20.49,40a44.68,44.68,0,0,1-14,33.11q-14,13.74-36.21,16Z"/><path class="a" d="M59.28,86.22h7.24q29.27,0,38.67-5.33t9.4-18.55q0-13.86-10.09-19.7t-38-5.84H59.28ZM174.23,194H118.6l-59.32-87.8V194H11V6.12h69q41.15,0,61.63,13.28t20.5,40a44.72,44.72,0,0,1-14,33.12q-14,13.72-36.22,16Z"/><path class="a" d="M59.22,86.19h7.25q29.27,0,38.67-5.33t9.4-18.55q0-13.86-10.09-19.7t-38-5.84H59.22ZM174.18,194H118.55l-59.33-87.8V194H11V6.09H80q41.13,0,61.63,13.28t20.5,40a44.69,44.69,0,0,1-14,33.12q-14,13.74-36.21,16Z"/><path class="a" d="M59.17,86.16h7.25q29.27,0,38.67-5.33t9.4-18.55q0-13.86-10.09-19.7t-38-5.84H59.17ZM174.13,194H118.5L59.17,106.18V194H10.94V6.06H80q41.15,0,61.64,13.29t20.5,40a44.69,44.69,0,0,1-14,33.12q-14,13.74-36.21,16Z"/><path class="a" d="M59.12,86.13h7.24q29.28,0,38.68-5.33t9.4-18.54q0-13.87-10.09-19.71t-38-5.84H59.12ZM174.07,194H118.45l-59.33-87.8V194H10.89V6h69q41.15,0,61.64,13.29t20.49,40a44.66,44.66,0,0,1-14,33.12q-14,13.74-36.21,16Z"/><path class="a" d="M59.07,86.1h7.24q29.28,0,38.68-5.32t9.4-18.55q0-13.87-10.09-19.71t-38-5.84H59.07ZM174,193.93H118.4l-59.33-87.8v87.8H10.84V6h69Q121,6,141.51,19.29t20.49,40a44.65,44.65,0,0,1-14,33.12q-14,13.74-36.21,16Z"/><path class="a" d="M59,86.07h7.24q29.28,0,38.68-5.32t9.4-18.55q0-13.86-10.1-19.71t-38-5.84H59ZM174,193.9H118.34L59,106.1v87.8H10.79V6h69Q121,6,141.46,19.26t20.49,40a44.64,44.64,0,0,1-14,33.11q-14,13.74-36.21,16Z"/><path class="a" d="M59,86.05h7.24q29.28,0,38.68-5.33t9.4-18.55q0-13.86-10.1-19.7t-38-5.84H59Zm115,107.82H118.29L59,106.07v87.8H10.74V6h69q41.15,0,61.64,13.28t20.49,40a44.72,44.72,0,0,1-14,33.12q-14,13.72-36.21,16Z"/><path class="a" d="M58.92,86h7.24q29.27,0,38.68-5.33t9.39-18.55q0-13.86-10.09-19.7t-38-5.84H58.92Zm115,107.82H118.24L58.92,106v87.8H10.68V5.92h69q41.15,0,61.63,13.28t20.5,40a44.72,44.72,0,0,1-14,33.12q-14,13.72-36.21,16Z"/><path class="a" d="M58.86,86h7.25q29.27,0,38.67-5.33t9.4-18.55q0-13.86-10.09-19.7t-38-5.84H58.86Zm115,107.83H118.19L58.86,106v87.81H10.63V5.89h69q41.15,0,61.63,13.28t20.5,40a44.69,44.69,0,0,1-14,33.12q-14,13.74-36.21,16Z"/><path class="a" d="M58.81,86h7.25q29.26,0,38.67-5.33t9.4-18.55q0-13.86-10.09-19.7t-38-5.84H58.81Zm115,107.83H118.14L58.81,106v87.8H10.58V5.86h69q41.13,0,61.63,13.29t20.5,40a44.67,44.67,0,0,1-14,33.12q-14,13.74-36.21,16Z"/><path class="a" d="M58.76,85.93H66q29.28,0,38.68-5.33t9.4-18.54q0-13.87-10.09-19.71T66,36.51H58.76Zm115,107.83H118.09L58.76,106v87.8H10.53V5.83h69q41.14,0,61.64,13.29t20.49,40a44.65,44.65,0,0,1-14,33.12q-14,13.74-36.21,16Z"/><path class="a" d="M58.71,85.9H66q29.28,0,38.68-5.32T114,62q0-13.86-10.09-19.71T66,36.48H58.71Zm115,107.83H118l-59.33-87.8v87.8H10.48V5.8h69q41.15,0,61.64,13.29t20.49,40a44.64,44.64,0,0,1-14,33.11q-14,13.74-36.21,16Z"/><path class="a" d="M58.66,85.87H65.9q29.28,0,38.68-5.32T114,62q0-13.86-10.1-19.7t-38-5.85H58.66Zm115,107.83H118L58.66,105.9v87.8H10.43V5.78h69q41.15,0,61.64,13.28t20.49,40a44.68,44.68,0,0,1-14,33.12q-14,13.72-36.21,16Z"/><path class="a" d="M58.61,85.85h7.24q29.28,0,38.68-5.33T113.93,62q0-13.86-10.1-19.7t-38-5.84H58.61Zm115,107.82H117.93l-59.32-87.8v87.8H10.38V5.75h69q41.15,0,61.64,13.28t20.49,40a44.72,44.72,0,0,1-14,33.12q-14,13.73-36.21,16Z"/><path class="a" d="M58.56,85.82H65.8q29.28,0,38.68-5.33t9.39-18.55q0-13.86-10.09-19.7t-38-5.84H58.56Zm115,107.82H117.88l-59.32-87.8v87.8H10.33V5.72h69Q120.51,5.72,141,19t20.5,40a44.72,44.72,0,0,1-14,33.12q-14,13.74-36.21,16Z"/><path class="a" d="M58.51,85.79h7.24q29.27,0,38.67-5.33t9.4-18.55q0-13.86-10.09-19.7t-38-5.84H58.51Zm115,107.83H117.83L58.51,105.81v87.81H10.27V5.69h69q41.14,0,61.63,13.29t20.5,40a44.72,44.72,0,0,1-14,33.12q-14,13.74-36.22,16Z"/><path class="a" d="M58.45,85.76H65.7q29.26,0,38.67-5.33t9.4-18.54q0-13.87-10.09-19.71t-38-5.84H58.45Zm115,107.83H117.78l-59.33-87.8v87.8H10.22V5.66h69q41.13,0,61.63,13.29t20.5,40a44.67,44.67,0,0,1-14,33.12q-14,13.74-36.21,16Z"/><path class="a" d="M58.4,85.73h7.24q29.28,0,38.68-5.32t9.4-18.55q0-13.87-10.09-19.71t-38-5.84H58.4Zm115,107.83H117.73L58.4,105.76v87.8H10.17V5.63h69q41.15,0,61.64,13.29t20.5,40a44.66,44.66,0,0,1-14,33.12q-14,13.74-36.21,16Z"/><path class="a" d="M58.35,85.7h7.24q29.28,0,38.68-5.32t9.4-18.55q0-13.86-10.09-19.71t-38-5.84H58.35Zm115,107.83H117.68l-59.33-87.8v87.8H10.12V5.6h69q41.14,0,61.64,13.29t20.49,40a44.64,44.64,0,0,1-14,33.11q-14,13.74-36.21,16.05Z"/><path class="a" d="M58.3,85.68h7.24q29.28,0,38.68-5.33t9.4-18.55q0-13.86-10.09-19.7t-38-5.84H58.3Zm115,107.82H117.62L58.3,105.7v87.8H10.07V5.58h69q41.15,0,61.64,13.28t20.49,40a44.68,44.68,0,0,1-14,33.12q-14,13.73-36.21,16Z"/><path class="a" d="M58.25,85.65h7.24q29.28,0,38.68-5.33t9.4-18.55q0-13.86-10.1-19.7t-38-5.84H58.25Zm115,107.82H117.57l-59.32-87.8v87.8H10V5.55h69q41.15,0,61.64,13.28t20.49,40a44.68,44.68,0,0,1-14,33.12q-14,13.73-36.21,16Z"/><path class="a" d="M58.2,85.62h7.24q29.28,0,38.68-5.33t9.4-18.55q0-13.86-10.1-19.7t-38-5.84H58.2Zm115,107.83H117.52L58.2,105.64v87.81H10V5.52H79q41.15,0,61.64,13.28t20.49,40a44.72,44.72,0,0,1-14,33.12q-14,13.74-36.21,16Z"/><path class="a" d="M58.15,85.59h7.24q29.27,0,38.67-5.33t9.4-18.55q0-13.86-10.09-19.7t-38-5.84H58.15Zm115,107.83H117.47l-59.32-87.8v87.8H9.91V5.49H79q41.15,0,61.63,13.29t20.5,40a44.7,44.7,0,0,1-14,33.12q-14,13.74-36.22,16.05Z"/><path class="a" d="M58.09,85.56h7.25q29.26,0,38.67-5.33t9.4-18.54q0-13.87-10.09-19.71t-38-5.84H58.09Zm115,107.83H117.42l-59.33-87.8v87.8H9.86V5.46h69q41.13,0,61.63,13.29t20.5,40a44.66,44.66,0,0,1-14,33.12q-14,13.74-36.21,16.05Z"/><path class="a" d="M58,85.53h7.25q29.26,0,38.67-5.32t9.4-18.55q0-13.86-10.09-19.71t-38-5.84H58ZM173,193.36H117.37L58,105.56v87.8H9.81V5.43h69q41.14,0,61.64,13.29t20.5,40a44.65,44.65,0,0,1-14,33.11q-14,13.74-36.21,16.05Z"/><path class="a" d="M58,85.51h7.24q29.28,0,38.68-5.33t9.4-18.55q0-13.86-10.09-19.7t-38-5.85H58Zm115,107.82H117.32L58,105.53v87.8H9.76V5.41h69q41.15,0,61.64,13.28t20.49,40a44.68,44.68,0,0,1-14,33.12q-14,13.73-36.21,16Z"/><path class="a" d="M57.94,85.48h7.24q29.28,0,38.68-5.33t9.4-18.55q0-13.86-10.09-19.7t-38-5.84H57.94Zm115,107.82H117.27L57.94,105.5v87.8H9.71V5.38h69q41.15,0,61.64,13.28t20.49,40a44.68,44.68,0,0,1-14,33.12q-14,13.73-36.21,16Z"/><path class="a" d="M57.89,85.45h7.24q29.28,0,38.68-5.33t9.4-18.55q0-13.86-10.1-19.7T65.13,36H57.89Zm115,107.82H117.21l-59.32-87.8v87.8H9.66V5.35h69q41.15,0,61.64,13.28t20.49,40a44.68,44.68,0,0,1-14,33.12q-14,13.74-36.21,16Z"/><path class="a" d="M57.84,85.42h7.24q29.28,0,38.68-5.33t9.4-18.55q0-13.86-10.1-19.7T65.08,36H57.84Zm115,107.83H117.16L57.84,105.44v87.81H9.61V5.32h69q41.15,0,61.64,13.29t20.49,40a44.72,44.72,0,0,1-14,33.12q-14,13.74-36.21,16.05Z"/><path class="a" d="M57.79,85.39H65q29.27,0,38.67-5.33t9.4-18.54q0-13.87-10.09-19.71T65,36H57.79Zm115,107.83H117.11l-59.32-87.8v87.8H9.55V5.29h69q41.14,0,61.63,13.29t20.5,40a44.69,44.69,0,0,1-14,33.12q-14,13.74-36.21,16Z"/><path class="a" d="M57.73,85.36H65q29.26,0,38.67-5.32t9.4-18.55q0-13.87-10.09-19.71T65,35.94H57.73Zm115,107.83H117.06l-59.33-87.8v87.8H9.5V5.26h69q41.15,0,61.63,13.29t20.5,40a44.66,44.66,0,0,1-14,33.12q-14,13.74-36.21,16Z"/><path class="a" d="M57.68,85.33h7.25q29.26,0,38.67-5.32T113,61.46q0-13.86-10.09-19.71t-38-5.84H57.68Zm115,107.83H117l-59.33-87.8v87.8H9.45V5.23h69q41.13,0,61.63,13.29t20.5,40a44.65,44.65,0,0,1-14,33.11q-14,13.74-36.21,16Z"/><path class="a" d="M57.63,85.31h7.24q29.28,0,38.68-5.33T113,61.43q0-13.86-10.09-19.7t-38-5.84H57.63Zm115,107.82H117l-59.33-87.8v87.8H9.4V5.21h69q41.14,0,61.64,13.28t20.49,40a44.68,44.68,0,0,1-14,33.12q-14,13.73-36.21,16Z"/><path class="a" d="M57.58,85.28h7.24q29.28,0,38.68-5.33t9.4-18.55q0-13.86-10.09-19.7t-38-5.84H57.58Zm115,107.82H116.91L57.58,105.3v87.8H9.35V5.18h69q41.15,0,61.64,13.28t20.49,40a44.68,44.68,0,0,1-14,33.12q-14,13.74-36.21,16Z"/><path class="a" d="M57.53,85.25h7.24q29.28,0,38.68-5.33t9.4-18.55q0-13.86-10.1-19.7t-38-5.84H57.53Zm115,107.83H116.85L57.53,105.27v87.81H9.3V5.15h69q41.15,0,61.64,13.29t20.49,40a44.68,44.68,0,0,1-14,33.12q-14,13.74-36.21,16Z"/><path class="a" d="M57.48,85.22h7.24q29.28,0,38.68-5.33t9.4-18.55q0-13.86-10.1-19.7t-38-5.84H57.48Zm115,107.83H116.8l-59.32-87.8v87.8H9.25V5.12h69q41.14,0,61.64,13.29t20.49,40a44.7,44.7,0,0,1-14,33.12q-14,13.74-36.21,16Z"/><path class="a" d="M57.43,85.19h7.24q29.28,0,38.68-5.32t9.39-18.55q0-13.87-10.09-19.71t-38-5.84H57.43ZM172.38,193H116.75l-59.32-87.8V193H9.19V5.09h69q41.15,0,61.63,13.29t20.5,40a44.69,44.69,0,0,1-14,33.12q-14,13.74-36.21,16Z"/><path class="a" d="M57.38,85.16h7.24q29.26,0,38.67-5.32t9.4-18.55q0-13.86-10.09-19.71t-38-5.84H57.38ZM172.33,193H116.7l-59.32-87.8V193H9.14V5.06h69q41.14,0,61.63,13.29t20.5,40a44.68,44.68,0,0,1-14,33.11q-14,13.74-36.22,16Z"/><path class="a" d="M57.32,85.14h7.25q29.27,0,38.67-5.33t9.4-18.55q0-13.86-10.09-19.7t-38-5.85H57.32ZM172.28,193H116.65l-59.33-87.8V193H9.09V5h69q41.13,0,61.63,13.28t20.5,40a44.69,44.69,0,0,1-14,33.12q-14,13.72-36.21,16Z"/><path class="a" d="M57.27,85.11h7.24q29.28,0,38.68-5.33t9.4-18.55q0-13.86-10.09-19.7t-38-5.84H57.27Zm115,107.82H116.6l-59.33-87.8v87.8H9V5h69q41.15,0,61.64,13.28t20.49,40a44.68,44.68,0,0,1-14,33.12q-14,13.72-36.21,16Z"/><path class="a" d="M57.22,85.08h7.24q29.28,0,38.68-5.33t9.4-18.55q0-13.86-10.09-19.7t-38-5.84H57.22Zm115,107.82H116.55L57.22,105.1v87.8H9V5H78q41.15,0,61.64,13.28t20.49,40a44.68,44.68,0,0,1-14,33.12q-14,13.74-36.21,16Z"/><path class="a" d="M57.17,85.05h7.24q29.28,0,38.68-5.33t9.4-18.55q0-13.86-10.09-19.7t-38-5.84H57.17Zm115,107.83H116.49L57.17,105.07v87.81H8.94V5H78q41.15,0,61.64,13.29t20.49,40a44.68,44.68,0,0,1-14,33.12q-14,13.74-36.21,16Z"/><path class="a" d="M57.12,85h7.24Q93.64,85,103,79.69t9.4-18.54q0-13.87-10.1-19.71t-38-5.84H57.12Zm115,107.83H116.44l-59.32-87.8v87.8H8.89V4.92h69q41.15,0,61.64,13.29t20.49,40a44.65,44.65,0,0,1-14,33.12q-14,13.74-36.21,16Z"/><path class="a" d="M57.07,85h7.24Q93.59,85,103,79.67t9.4-18.55q0-13.87-10.1-19.71t-38-5.84H57.07ZM172,192.82H116.39L57.07,105v87.8H8.84V4.89h69q41.14,0,61.64,13.29t20.49,40a44.69,44.69,0,0,1-14,33.12q-14,13.74-36.21,16Z"/><path class="a" d="M57,85h7.24q29.26,0,38.67-5.32t9.4-18.55q0-13.86-10.09-19.71t-38-5.84H57ZM172,192.79H116.34L57,105v87.8H8.78V4.86h69q41.15,0,61.63,13.29t20.5,40a44.68,44.68,0,0,1-14,33.11q-14,13.74-36.22,16Z"/><path class="a" d="M57,84.94h7.25q29.27,0,38.67-5.33t9.4-18.55q0-13.86-10.09-19.7t-38-5.84H57Zm115,107.82H116.29L57,105v87.8H8.73V4.84h69q41.13,0,61.63,13.28t20.5,40a44.69,44.69,0,0,1-14,33.12q-14,13.72-36.21,16Z"/><path class="a" d="M56.91,84.91h7.24q29.28,0,38.68-5.33T112.23,61q0-13.86-10.09-19.7t-38-5.84H56.91Zm115,107.82H116.24l-59.33-87.8v87.8H8.68V4.81h69q41.15,0,61.64,13.28t20.5,40a44.69,44.69,0,0,1-14,33.12q-14,13.74-36.21,16Z"/><path class="a" d="M56.86,84.88H64.1q29.28,0,38.68-5.33T112.18,61q0-13.86-10.09-19.7t-38-5.84H56.86Zm115,107.83H116.19L56.86,104.9v87.81H8.63V4.78h69q41.15,0,61.64,13.29t20.49,40a44.68,44.68,0,0,1-14,33.12q-14,13.74-36.21,16Z"/><path class="a" d="M56.81,84.85h7.24q29.28,0,38.68-5.33T112.13,61q0-13.86-10.09-19.7t-38-5.84H56.81Zm115,107.83H116.14l-59.33-87.8v87.8H8.58V4.75h69q41.15,0,61.64,13.29t20.49,40a44.66,44.66,0,0,1-14,33.12q-14,13.74-36.21,16Z"/><path class="a" d="M56.76,84.82H64q29.28,0,38.68-5.32T112.08,61q0-13.87-10.1-19.71T64,35.4H56.76Zm115,107.83H116.08l-59.32-87.8v87.8H8.53V4.72h69Q118.7,4.72,139.2,18t20.49,40a44.65,44.65,0,0,1-14,33.12q-14,13.74-36.21,16Z"/><path class="a" d="M56.71,84.79H64q29.28,0,38.68-5.32T112,60.92q0-13.86-10.1-19.71T64,35.37H56.71Zm115,107.83H116l-59.32-87.8v87.8H8.48V4.69h69q41.15,0,61.64,13.29t20.49,40a44.68,44.68,0,0,1-14,33.11q-14,13.74-36.21,16Z"/><path class="a" d="M56.66,84.77H63.9q29.26,0,38.67-5.33T112,60.89q0-13.86-10.09-19.7t-38-5.85H56.66Zm115,107.82H116l-59.32-87.8v87.8H8.42V4.67h69q41.15,0,61.63,13.28t20.5,40a44.72,44.72,0,0,1-14,33.12q-14,13.72-36.21,16Z"/><path class="a" d="M56.6,84.74h7.25q29.26,0,38.67-5.33t9.4-18.55q0-13.86-10.09-19.7t-38-5.84H56.6Zm115,107.82H115.93L56.6,104.76v87.8H8.37V4.64h69q41.13,0,61.63,13.28t20.5,40a44.69,44.69,0,0,1-14,33.12q-14,13.73-36.21,16Z"/><path class="a" d="M56.55,84.71H63.8q29.27,0,38.67-5.33t9.4-18.55q0-13.86-10.09-19.7t-38-5.84H56.55Zm115,107.83H115.88L56.55,104.73v87.81H8.32V4.61h69q41.15,0,61.64,13.28t20.5,40a44.69,44.69,0,0,1-14,33.12q-14,13.74-36.21,16Z"/><path class="a" d="M56.5,84.68h7.24q29.28,0,38.68-5.33t9.4-18.55q0-13.86-10.09-19.7t-38-5.84H56.5Zm115,107.83H115.83L56.5,104.7v87.81H8.27V4.58h69q41.15,0,61.64,13.29t20.49,40a44.68,44.68,0,0,1-14,33.12q-14,13.74-36.21,16Z"/><path class="a" d="M56.45,84.65h7.24q29.28,0,38.68-5.33t9.4-18.54q0-13.87-10.09-19.71t-38-5.84H56.45Zm115,107.83H115.78l-59.33-87.8v87.8H8.22V4.55h69q41.15,0,61.64,13.29t20.49,40a44.65,44.65,0,0,1-14,33.12q-14,13.74-36.21,16Z"/><path class="a" d="M56.4,84.62h7.24q29.28,0,38.68-5.32t9.4-18.55q0-13.86-10.1-19.71t-38-5.84H56.4Zm115,107.83H115.72L56.4,104.65v87.8H8.17V4.52h69q41.15,0,61.64,13.29t20.49,40a44.64,44.64,0,0,1-14,33.11q-14,13.74-36.21,16Z"/><path class="a" d="M56.35,84.59h7.24q29.28,0,38.68-5.32t9.4-18.55q0-13.86-10.1-19.7t-38-5.85H56.35Zm115,107.83H115.67l-59.32-87.8v87.8H8.12V4.5h69q41.14,0,61.64,13.28t20.49,40a44.68,44.68,0,0,1-14,33.11q-14,13.74-36.21,16.05Z"/><path class="a" d="M56.3,84.57h7.24q29.28,0,38.68-5.33t9.39-18.55q0-13.86-10.09-19.7t-38-5.84H56.3Zm115,107.82H115.62L56.3,104.59v87.8H8.06V4.47h69q41.15,0,61.63,13.28t20.5,40a44.72,44.72,0,0,1-14,33.12q-14,13.73-36.21,16Z"/><path class="a" d="M56.24,84.54h7.25q29.26,0,38.67-5.33t9.4-18.55q0-13.86-10.09-19.7t-38-5.84H56.24Zm115,107.82H115.57l-59.33-87.8v87.8H8V4.44h69q41.15,0,61.63,13.28t20.5,40a44.72,44.72,0,0,1-14,33.12q-14,13.74-36.22,16Z"/><path class="a" d="M56.19,84.51h7.25q29.27,0,38.67-5.33t9.4-18.55q0-13.86-10.09-19.7t-38-5.84H56.19Zm115,107.83H115.52L56.19,104.53v87.81H8V4.41H77q41.13,0,61.63,13.29t20.5,40a44.69,44.69,0,0,1-14,33.12q-14,13.74-36.21,16Z"/><path class="a" d="M56.14,84.48h7.24q29.28,0,38.68-5.33t9.4-18.55q0-13.86-10.09-19.7t-38-5.84H56.14Zm115,107.83H115.47l-59.33-87.8v87.8H7.91V4.38h69q41.15,0,61.64,13.29t20.49,40a44.66,44.66,0,0,1-14,33.12q-14,13.74-36.21,16Z"/><path class="a" d="M56.09,84.45h7.24q29.28,0,38.68-5.32t9.4-18.55q0-13.87-10.09-19.71T63.33,35H56.09ZM171,192.28H115.42l-59.33-87.8v87.8H7.86V4.35h69q41.15,0,61.64,13.29t20.49,40a44.65,44.65,0,0,1-14,33.12q-14,13.74-36.21,16.05Z"/><path class="a" d="M56,84.42h7.24q29.28,0,38.68-5.32t9.4-18.55q0-13.86-10.09-19.71T63.28,35H56ZM171,192.25H115.36L56,104.45v87.8H7.81V4.32h69q41.14,0,61.64,13.29T159,57.6a44.64,44.64,0,0,1-14,33.11q-14,13.74-36.21,16.05Z"/><path class="a" d="M56,84.4h7.24q29.28,0,38.68-5.33t9.4-18.55q0-13.86-10.1-19.7T63.23,35H56Zm115,107.82H115.31L56,104.42v87.8H7.76V4.3h69q41.15,0,61.64,13.28t20.49,40a44.72,44.72,0,0,1-14,33.12q-14,13.73-36.21,16Z"/><path class="a" d="M55.94,84.37h7.24q29.28,0,38.68-5.33t9.4-18.55q0-13.86-10.1-19.7T63.18,35H55.94Zm115,107.82H115.26l-59.32-87.8v87.8H7.71V4.27h69q41.15,0,61.64,13.28t20.49,40a44.72,44.72,0,0,1-14,33.12q-14,13.73-36.21,16Z"/><path class="a" d="M55.89,84.34h7.24q29.26,0,38.67-5.33t9.4-18.55q0-13.86-10.09-19.7t-38-5.84H55.89Zm115,107.83H115.21L55.89,104.36v87.81H7.65V4.24h69q41.15,0,61.63,13.28t20.5,40a44.72,44.72,0,0,1-14,33.12q-14,13.74-36.22,16Z"/><path class="a" d="M55.83,84.31h7.25q29.27,0,38.67-5.33t9.4-18.55q0-13.86-10.09-19.7t-38-5.84H55.83Zm115,107.83H115.16l-59.33-87.8v87.8H7.6V4.21h69q41.13,0,61.63,13.29t20.5,40a44.69,44.69,0,0,1-14,33.12q-14,13.74-36.21,16.05Z"/><path class="a" d="M55.78,84.28H63q29.28,0,38.68-5.33t9.4-18.54q0-13.87-10.09-19.71T63,34.86H55.78Zm115,107.83H115.11l-59.33-87.8v87.8H7.55V4.18h69q41.15,0,61.64,13.29t20.5,40a44.66,44.66,0,0,1-14,33.12q-14,13.74-36.21,16.05Z"/><path class="a" d="M55.73,84.25H63q29.28,0,38.68-5.32t9.4-18.55q0-13.86-10.09-19.71T63,34.83H55.73Zm115,107.83H115.06l-59.33-87.8v87.8H7.5V4.15h69q41.14,0,61.64,13.29t20.49,40a44.64,44.64,0,0,1-14,33.11q-14,13.74-36.21,16Z"/><path class="a" d="M55.68,84.22h7.24q29.28,0,38.68-5.32T111,60.35q0-13.86-10.09-19.7t-38-5.85H55.68Zm115,107.83H115l-59.33-87.8v87.8H7.45V4.13h69q41.15,0,61.64,13.28t20.49,40a44.64,44.64,0,0,1-14,33.11q-14,13.74-36.21,16Z"/><path class="a" d="M55.63,84.2h7.24q29.28,0,38.68-5.33T111,60.32q0-13.86-10.1-19.7t-38-5.84H55.63ZM170.58,192H115l-59.32-87.8V192H7.4V4.1h69q41.14,0,61.64,13.28t20.49,40a44.68,44.68,0,0,1-14,33.12q-14,13.73-36.21,16Z"/><path class="a" d="M55.58,84.17h7.24q29.28,0,38.68-5.33t9.4-18.55q0-13.86-10.1-19.7t-38-5.84H55.58ZM170.53,192H114.9l-59.32-87.8V192H7.35V4.07h69q41.15,0,61.64,13.28t20.49,40a44.72,44.72,0,0,1-14,33.12q-14,13.74-36.21,16Z"/><path class="a" d="M55.53,84.14h7.24q29.26,0,38.67-5.33t9.4-18.55q0-13.86-10.09-19.7t-38-5.84H55.53ZM170.48,192H114.85L55.53,104.16V192H7.29V4h69Q117.48,4,138,17.33t20.5,40a44.72,44.72,0,0,1-14,33.12q-14,13.74-36.22,16Z"/><path class="a" d="M55.47,84.11h7.25q29.27,0,38.67-5.33t9.4-18.54q0-13.87-10.09-19.71t-38-5.84H55.47Zm115,107.83H114.8l-59.33-87.8v87.8H7.24V4h69q41.13,0,61.63,13.29t20.5,40a44.67,44.67,0,0,1-14,33.12q-14,13.74-36.21,16Z"/><path class="a" d="M55.42,84.08h7.25q29.27,0,38.67-5.32t9.4-18.55q0-13.87-10.09-19.71t-38-5.84H55.42Zm115,107.83H114.75l-59.33-87.8v87.8H7.19V4h69q41.15,0,61.64,13.29t20.5,40a44.66,44.66,0,0,1-14,33.12q-14,13.74-36.21,16Z"/><path class="a" d="M55.37,84.05h7.24q29.28,0,38.68-5.32t9.4-18.55q0-13.86-10.09-19.71t-38-5.84H55.37Zm115,107.83H114.7l-59.33-87.8v87.8H7.14V4h69q41.15,0,61.64,13.29t20.49,40a44.64,44.64,0,0,1-14,33.11q-14,13.74-36.21,16Z"/><path class="a" d="M55.32,84h7.24q29.28,0,38.68-5.33t9.4-18.55q0-13.86-10.09-19.7t-38-5.84H55.32Zm115,107.82H114.65l-59.33-87.8v87.8H7.09V3.93h69q41.14,0,61.64,13.28t20.49,40a44.68,44.68,0,0,1-14,33.12q-14,13.73-36.21,16Z"/><path class="a" d="M55.27,84h7.24q29.28,0,38.68-5.33t9.4-18.55q0-13.86-10.1-19.7t-38-5.84H55.27Zm115,107.82H114.59L55.27,104v87.8H7V3.9h69q41.15,0,61.64,13.28t20.49,40a44.68,44.68,0,0,1-14,33.12q-14,13.74-36.21,16Z"/><path class="a" d="M55.22,84h7.24q29.28,0,38.68-5.33t9.4-18.55q0-13.86-10.1-19.7t-38-5.84H55.22Zm115,107.83H114.54L55.22,104V191.8H7V3.87H76q41.15,0,61.64,13.28t20.49,40a44.72,44.72,0,0,1-14,33.12q-14,13.74-36.21,16Z"/><path class="a" d="M55.17,83.94h7.24q29.27,0,38.68-5.33t9.39-18.55q0-13.86-10.09-19.7t-38-5.84H55.17Zm115,107.83H114.49L55.17,104v87.8H6.93V3.84H76q41.15,0,61.63,13.29t20.5,40a44.7,44.7,0,0,1-14,33.12q-14,13.74-36.21,16Z"/><path class="a" d="M55.11,83.91h7.25q29.27,0,38.67-5.33T110.43,60q0-13.87-10.09-19.71t-38-5.84H55.11Zm115,107.83H114.44l-59.33-87.8v87.8H6.88V3.81h69q41.15,0,61.63,13.29t20.5,40A44.66,44.66,0,0,1,144,90.2q-14,13.74-36.21,16Z"/><path class="a" d="M55.06,83.88h7.25q29.26,0,38.67-5.32T110.38,60q0-13.86-10.09-19.71t-38-5.84H55.06ZM170,191.71H114.39l-59.33-87.8v87.8H6.83V3.78h69q41.13,0,61.63,13.29t20.5,40a44.65,44.65,0,0,1-14,33.11q-14,13.74-36.21,16Z"/><path class="a" d="M55,83.86h7.24q29.28,0,38.68-5.33T110.33,60q0-13.86-10.09-19.7t-38-5.85H55ZM170,191.68H114.34L55,103.88v87.8H6.78V3.76h69Q117,3.76,137.45,17t20.49,40a44.68,44.68,0,0,1-14,33.12q-14,13.72-36.21,16Z"/><path class="a" d="M55,83.83H62.2q29.28,0,38.68-5.33T110.28,60q0-13.86-10.09-19.7t-38-5.84H55Zm115,107.82H114.29L55,103.85v87.8H6.73V3.73h69q41.15,0,61.64,13.28t20.49,40a44.68,44.68,0,0,1-14,33.12q-14,13.72-36.21,16Z"/><path class="a" d="M54.91,83.8h7.24q29.28,0,38.68-5.33t9.4-18.55q0-13.86-10.1-19.7t-38-5.84H54.91Zm115,107.82H114.23l-59.32-87.8v87.8H6.68V3.7h69q41.15,0,61.64,13.28t20.49,40a44.68,44.68,0,0,1-14,33.12q-14,13.74-36.21,16Z"/><path class="a" d="M54.86,83.77H62.1q29.28,0,38.68-5.33t9.4-18.55q0-13.86-10.1-19.7t-38-5.84H54.86Zm115,107.83H114.18L54.86,103.79V191.6H6.63V3.67h69q41.15,0,61.64,13.29t20.49,40a44.72,44.72,0,0,1-14,33.12q-14,13.74-36.21,16Z"/><path class="a" d="M54.81,83.74h7.24q29.28,0,38.68-5.33t9.39-18.54Q110.12,46,100,40.16t-38-5.84H54.81Zm115,107.83H114.13l-59.32-87.8v87.8H6.58V3.64h69q41.15,0,61.64,13.29t20.49,40a44.69,44.69,0,0,1-14,33.12q-14,13.74-36.21,16Z"/><path class="a" d="M54.76,83.71H62q29.27,0,38.67-5.32t9.4-18.55Q110.07,46,100,40.13T62,34.29H54.76Zm115,107.83H114.08l-59.32-87.8v87.8H6.52V3.61h69q41.14,0,61.63,13.29t20.5,40a44.69,44.69,0,0,1-14,33.12q-14,13.74-36.22,16Z"/><path class="a" d="M54.7,83.68H62q29.26,0,38.67-5.32T110,59.81Q110,46,99.93,40.1T62,34.26H54.7Zm115,107.83H114L54.7,103.71v87.8H6.47V3.58h69q41.13,0,61.63,13.29t20.5,40a44.65,44.65,0,0,1-14,33.11q-14,13.74-36.21,16Z"/><path class="a" d="M54.65,83.66h7.24q29.28,0,38.68-5.33T110,59.78q0-13.86-10.09-19.7t-38-5.84H54.65Zm115,107.82H114l-59.33-87.8v87.8H6.42V3.56h69q41.15,0,61.64,13.28t20.5,40a44.69,44.69,0,0,1-14,33.12q-14,13.72-36.21,16Z"/><path class="a" d="M54.6,83.63h7.24q29.28,0,38.68-5.33t9.4-18.55q0-13.86-10.09-19.7t-38-5.84H54.6Zm115,107.82H113.93L54.6,103.65v87.8H6.37V3.53h69q41.14,0,61.64,13.28t20.49,40a44.68,44.68,0,0,1-14,33.12q-14,13.74-36.21,16Z"/><path class="a" d="M54.55,83.6h7.24q29.28,0,38.68-5.33t9.4-18.55q0-13.86-10.09-19.7t-38-5.84H54.55Zm115,107.83H113.87L54.55,103.62v87.81H6.32V3.5h69Q116.5,3.5,137,16.79t20.49,40a44.68,44.68,0,0,1-14,33.12q-14,13.74-36.21,16Z"/><path class="a" d="M54.5,83.57h7.24q29.28,0,38.68-5.33t9.4-18.55q0-13.86-10.1-19.7t-38-5.84H54.5Zm115,107.83H113.82L54.5,103.6v87.8H6.27V3.47h69q41.15,0,61.64,13.29t20.49,40a44.66,44.66,0,0,1-14,33.12q-14,13.74-36.21,16Z"/><path class="a" d="M54.45,83.54h7.24q29.28,0,38.68-5.33t9.4-18.54q0-13.87-10.1-19.71t-38-5.84H54.45Zm115,107.83H113.77l-59.32-87.8v87.8H6.22V3.44h69q41.15,0,61.64,13.29t20.49,40a44.69,44.69,0,0,1-14,33.12q-14,13.74-36.21,16Z"/><path class="a" d="M54.4,83.51h7.24q29.27,0,38.67-5.32t9.4-18.55q0-13.86-10.09-19.71t-38-5.84H54.4Zm115,107.83H113.72L54.4,103.54v87.8H6.16V3.41h69q41.15,0,61.63,13.29t20.5,40a44.68,44.68,0,0,1-14,33.11q-14,13.74-36.22,16Z"/><path class="a" d="M54.34,83.49h7.25q29.26,0,38.67-5.33t9.4-18.55q0-13.86-10.09-19.7t-38-5.85H54.34Zm115,107.82H113.67l-59.33-87.8v87.8H6.11V3.39h69q41.13,0,61.63,13.28t20.5,40a44.69,44.69,0,0,1-14,33.12q-14,13.73-36.21,16Z"/><path class="a" d="M54.29,83.46h7.25q29.26,0,38.67-5.33t9.4-18.55q0-13.86-10.09-19.7T61.54,34H54.29Zm115,107.82H113.62l-59.33-87.8v87.8H6.06V3.36h69q41.14,0,61.64,13.28t20.5,40a44.69,44.69,0,0,1-14,33.12q-14,13.73-36.21,16Z"/><path class="a" d="M54.24,83.43h7.24q29.28,0,38.68-5.33t9.4-18.55q0-13.86-10.09-19.7T61.48,34H54.24Zm115,107.83H113.57L54.24,103.45v87.81H6V3.33H75q41.15,0,61.64,13.28t20.49,40a44.68,44.68,0,0,1-14,33.12q-14,13.74-36.21,16Z"/><path class="a" d="M54.19,83.4h7.24q29.28,0,38.68-5.33t9.4-18.55q0-13.86-10.09-19.7T61.43,34H54.19Zm115,107.83H113.52L54.19,103.42v87.81H6V3.3H75q41.15,0,61.64,13.29t20.49,40a44.68,44.68,0,0,1-14,33.12q-14,13.74-36.21,16Z"/><path class="a" d="M54.14,83.37h7.24q29.28,0,38.68-5.33t9.4-18.54q0-13.87-10.1-19.71T61.38,34H54.14Zm115,107.83H113.46L54.14,103.4v87.8H5.91V3.27h69q41.15,0,61.64,13.29t20.49,40a44.65,44.65,0,0,1-14,33.12q-14,13.74-36.21,16Z"/><path class="a" d="M54.09,83.34h7.24Q90.61,83.34,100,78t9.4-18.55q0-13.87-10.1-19.71t-38-5.84H54.09ZM169,191.17H113.41l-59.32-87.8v87.8H5.86V3.24h69q41.15,0,61.64,13.29t20.49,40a44.69,44.69,0,0,1-14,33.12q-14,13.74-36.21,16.05Z"/><path class="a" d="M54,83.31h7.24Q90.55,83.31,100,78t9.39-18.55q0-13.86-10.09-19.7t-38-5.85H54ZM169,191.14H113.36L54,103.34v87.8H5.8V3.21h69q41.14,0,61.63,13.29t20.5,40A44.68,44.68,0,0,1,143,89.6q-14,13.74-36.21,16.05Z"/><path class="a" d="M54,83.29h7.25q29.26,0,38.67-5.33t9.4-18.55q0-13.86-10.09-19.7t-38-5.84H54Zm115,107.82H113.31L54,103.31v87.8H5.75V3.19h69q41.15,0,61.63,13.28t20.5,40a44.69,44.69,0,0,1-14,33.12q-14,13.73-36.21,16Z"/><path class="a" d="M53.93,83.26h7.25q29.26,0,38.67-5.33t9.4-18.55q0-13.86-10.09-19.7t-38-5.84H53.93Zm115,107.82H113.26l-59.33-87.8v87.8H5.7V3.16h69q41.13,0,61.63,13.28t20.5,40a44.69,44.69,0,0,1-14,33.12q-14,13.74-36.21,16Z"/><path class="a" d="M53.88,83.23h7.24q29.28,0,38.68-5.33t9.4-18.55q0-13.86-10.09-19.7t-38-5.84H53.88Zm115,107.83H113.21L53.88,103.25v87.81H5.65V3.13h69q41.14,0,61.64,13.29t20.49,40a44.68,44.68,0,0,1-14,33.12q-14,13.74-36.21,16Z"/><path class="a" d="M53.83,83.2h7.24q29.28,0,38.68-5.33t9.4-18.55q0-13.86-10.09-19.7t-38-5.84H53.83ZM168.78,191H113.16l-59.33-87.8V191H5.6V3.1h69q41.15,0,61.64,13.29t20.49,40a44.66,44.66,0,0,1-14,33.12q-14,13.74-36.21,16.05Z"/><path class="a" d="M53.78,83.17H61q29.28,0,38.68-5.32t9.4-18.55q0-13.87-10.1-19.71T61,33.75H53.78ZM168.73,191H113.1L53.78,103.2V191H5.55V3.07h69q41.15,0,61.64,13.29t20.49,40a44.65,44.65,0,0,1-14,33.12q-14,13.74-36.21,16.05Z"/><path class="a" d="M53.73,83.14H61q29.28,0,38.68-5.32t9.4-18.55q0-13.86-10.1-19.71T61,33.72H53.73ZM168.68,191H113.05l-59.32-87.8V191H5.5V3h69q41.14,0,61.64,13.29t20.49,40a44.68,44.68,0,0,1-14,33.11q-14,13.74-36.21,16Z"/><path class="a" d="M53.68,83.12h7.24q29.28,0,38.68-5.33T109,59.24q0-13.86-10.09-19.7t-38-5.84H53.68Zm115,107.82H113l-59.32-87.8v87.8H5.45V3h69q41.15,0,61.63,13.28t20.5,40a44.72,44.72,0,0,1-14,33.12q-14,13.73-36.21,16Z"/><path class="a" d="M53.63,83.09h7.24q29.26,0,38.67-5.33t9.4-18.55q0-13.86-10.09-19.7t-38-5.84H53.63Zm115,107.82H113l-59.32-87.8v87.8H5.39V3h69q41.14,0,61.63,13.28t20.5,40a44.72,44.72,0,0,1-14,33.12q-14,13.73-36.22,16Z"/><path class="a" d="M53.57,83.06h7.25q29.26,0,38.67-5.33t9.4-18.55q0-13.86-10.09-19.7t-38-5.84H53.57Zm115,107.83H112.9L53.57,103.08v87.81H5.34V3h69Q115.51,3,136,16.24t20.5,40a44.69,44.69,0,0,1-14,33.12q-14,13.74-36.21,16Z"/><path class="a" d="M53.52,83h7.24Q90,83,99.44,77.7t9.4-18.55q0-13.86-10.09-19.7t-38-5.84H53.52Zm115,107.83H112.85l-59.33-87.8v87.8H5.29V2.93h69q41.15,0,61.64,13.29t20.5,40a44.69,44.69,0,0,1-14,33.12q-14,13.74-36.21,16.05Z"/><path class="a" d="M53.47,83h7.24Q90,83,99.39,77.67t9.4-18.54q0-13.87-10.09-19.71t-38-5.84H53.47Zm115,107.83H112.8L53.47,103v87.8H5.24V2.9h69q41.15,0,61.64,13.29t20.49,40a44.65,44.65,0,0,1-14,33.12q-14,13.74-36.21,16Z"/><path class="a" d="M53.42,83h7.24q29.28,0,38.68-5.32t9.4-18.55q0-13.87-10.09-19.71t-38-5.84H53.42Zm115,107.83H112.74L53.42,103v87.8H5.19V2.87h69q41.15,0,61.64,13.29t20.49,40a44.65,44.65,0,0,1-14,33.12q-14,13.74-36.21,16Z"/><path class="a" d="M53.37,82.94h7.24q29.28,0,38.68-5.32t9.4-18.55q0-13.86-10.1-19.7t-38-5.85H53.37Zm115,107.83H112.69L53.37,103v87.8H5.14V2.85h69q41.15,0,61.64,13.28t20.49,40a44.64,44.64,0,0,1-14,33.11q-14,13.74-36.21,16Z"/><path class="a" d="M53.32,82.92h7.24q29.28,0,38.68-5.33T108.64,59q0-13.86-10.1-19.7t-38-5.84H53.32Zm115,107.82H112.64l-59.32-87.8v87.8H5.09V2.82h69q41.14,0,61.64,13.28t20.49,40a44.72,44.72,0,0,1-14,33.12q-14,13.73-36.21,16Z"/><path class="a" d="M53.27,82.89h7.24q29.26,0,38.67-5.33T108.58,59q0-13.86-10.09-19.7t-38-5.84H53.27Zm115,107.82H112.59l-59.32-87.8v87.8H5V2.79h69q41.15,0,61.63,13.28t20.5,40a44.72,44.72,0,0,1-14,33.12q-14,13.74-36.22,16Z"/><path class="a" d="M53.21,82.86h7.25q29.26,0,38.67-5.33T108.53,59q0-13.86-10.09-19.7t-38-5.84H53.21Zm115,107.83H112.54L53.21,102.88v87.81H5V2.76H74q41.13,0,61.63,13.29t20.5,40a44.69,44.69,0,0,1-14,33.12q-14,13.74-36.21,16Z"/><path class="a" d="M53.16,82.83h7.25q29.27,0,38.67-5.33T108.48,59q0-13.86-10.09-19.7t-38-5.84H53.16Zm115,107.83H112.49l-59.33-87.8v87.8H4.93V2.73H74q41.15,0,61.64,13.29t20.5,40a44.67,44.67,0,0,1-14,33.12q-14,13.74-36.21,16Z"/><path class="a" d="M53.11,82.8h7.24q29.28,0,38.68-5.32t9.4-18.55q0-13.87-10.09-19.71t-38-5.84H53.11Zm115,107.83H112.44l-59.33-87.8v87.8H4.88V2.7h69q41.15,0,61.64,13.29T156,56a44.65,44.65,0,0,1-14,33.12q-14,13.74-36.21,16Z"/><path class="a" d="M53.06,82.77H60.3q29.28,0,38.68-5.32t9.4-18.55q0-13.86-10.09-19.71t-38-5.84H53.06ZM168,190.6H112.39L53.06,102.8v87.8H4.83V2.67h69Q115,2.67,135.5,16T156,56a44.64,44.64,0,0,1-14,33.11q-14,13.74-36.21,16Z"/><path class="a" d="M53,82.75h7.24q29.28,0,38.68-5.33t9.4-18.55q0-13.86-10.1-19.7t-38-5.84H53ZM168,190.57H112.33L53,102.77v87.8H4.78V2.65h69q41.14,0,61.64,13.28t20.49,40a44.68,44.68,0,0,1-14,33.12q-14,13.72-36.21,16Z"/><path class="a" d="M53,82.72H60.2q29.28,0,38.68-5.33t9.4-18.55q0-13.86-10.1-19.7t-38-5.84H53Zm115,107.82H112.28L53,102.74v87.8H4.73V2.62h69q41.15,0,61.64,13.28t20.49,40a44.72,44.72,0,0,1-14,33.12q-14,13.72-36.21,16Z"/><path class="a" d="M52.91,82.69h7.24q29.26,0,38.67-5.33t9.4-18.55q0-13.86-10.09-19.7t-38-5.84H52.91Zm115,107.83H112.23L52.91,102.71v87.81H4.67V2.59h69q41.15,0,61.63,13.28t20.5,40a44.72,44.72,0,0,1-14,33.12q-14,13.74-36.21,16Z"/><path class="a" d="M52.85,82.66H60.1q29.26,0,38.67-5.33t9.4-18.55q0-13.86-10.09-19.7t-38-5.84H52.85Zm115,107.83H112.18l-59.33-87.8v87.8H4.62V2.56h69q41.15,0,61.63,13.29t20.5,40a44.69,44.69,0,0,1-14,33.12q-14,13.74-36.21,16Z"/><path class="a" d="M52.8,82.63h7.25q29.27,0,38.67-5.33t9.4-18.54q0-13.87-10.09-19.71t-38-5.84H52.8Zm115,107.83H112.13L52.8,102.66v87.8H4.57V2.53h69q41.15,0,61.64,13.29t20.5,40a44.66,44.66,0,0,1-14,33.12q-14,13.74-36.21,16Z"/><path class="a" d="M52.75,82.6H60q29.28,0,38.68-5.32t9.4-18.55Q108.07,44.87,98,39T60,33.18H52.75Zm115,107.83H112.08l-59.33-87.8v87.8H4.52V2.5h69q41.15,0,61.64,13.29t20.49,40a44.64,44.64,0,0,1-14,33.11q-14,13.74-36.21,16Z"/><path class="a" d="M52.7,82.57h7.24q29.28,0,38.68-5.32T108,58.7Q108,44.84,97.93,39t-38-5.85H52.7Zm115,107.83H112L52.7,102.6v87.8H4.47V2.48h69q41.15,0,61.64,13.28t20.49,40a44.64,44.64,0,0,1-14,33.11q-14,13.74-36.21,16Z"/><path class="a" d="M52.65,82.55h7.24q29.28,0,38.68-5.33T108,58.67q0-13.86-10.1-19.7t-38-5.84H52.65Zm115,107.82H112l-59.32-87.8v87.8H4.42V2.45h69q41.15,0,61.64,13.28t20.49,40a44.68,44.68,0,0,1-14,33.12q-14,13.72-36.21,16Z"/><path class="a" d="M52.6,82.52h7.24q29.28,0,38.68-5.33t9.4-18.55q0-13.86-10.1-19.7t-38-5.84H52.6Zm115,107.82H111.92L52.6,102.54v87.8H4.37V2.42h69q41.14,0,61.64,13.28t20.49,40a44.72,44.72,0,0,1-14,33.12q-14,13.74-36.21,16Z"/><path class="a" d="M52.55,82.49h7.24q29.28,0,38.68-5.33t9.39-18.55q0-13.86-10.09-19.7t-38-5.84H52.55Zm115,107.83H111.87L52.55,102.51v87.81H4.31V2.39h69q41.15,0,61.63,13.29t20.5,40a44.72,44.72,0,0,1-14,33.12q-14,13.74-36.21,16Z"/><path class="a" d="M52.5,82.46h7.24q29.26,0,38.67-5.33t9.4-18.55q0-13.86-10.09-19.7T59.74,33H52.5Zm115,107.83H111.82L52.5,102.49v87.8H4.26V2.36h69q41.15,0,61.63,13.29t20.5,40a44.7,44.7,0,0,1-14,33.12q-14,13.74-36.22,16Z"/><path class="a" d="M52.44,82.43h7.25q29.27,0,38.67-5.32t9.4-18.55q0-13.87-10.09-19.71T59.69,33H52.44Zm115,107.83H111.77l-59.33-87.8v87.8H4.21V2.33h69q41.13,0,61.63,13.29t20.5,40a44.66,44.66,0,0,1-14,33.12q-14,13.74-36.21,16Z"/><path class="a" d="M52.39,82.4h7.24q29.28,0,38.68-5.32t9.4-18.55q0-13.86-10.09-19.71T59.63,33H52.39Zm115,107.83H111.72l-59.33-87.8v87.8H4.16V2.3h69q41.15,0,61.64,13.29t20.49,40a44.64,44.64,0,0,1-14,33.11q-14,13.74-36.21,16Z"/><path class="a" d="M52.34,82.38h7.24q29.28,0,38.68-5.33t9.4-18.55q0-13.86-10.09-19.7T59.58,33H52.34Zm115,107.82H111.67L52.34,102.4v87.8H4.11V2.28h69q41.15,0,61.64,13.28t20.49,40a44.68,44.68,0,0,1-14,33.12q-14,13.72-36.21,16Z"/><path class="a" d="M52.29,82.35h7.24q29.28,0,38.68-5.33t9.4-18.55q0-13.86-10.09-19.7t-38-5.84H52.29Zm115,107.82H111.61l-59.32-87.8v87.8H4.06V2.25h69q41.14,0,61.64,13.28t20.49,40a44.68,44.68,0,0,1-14,33.12q-14,13.74-36.21,16Z"/><path class="a" d="M52.24,82.32h7.24q29.28,0,38.68-5.33t9.4-18.55q0-13.86-10.1-19.7t-38-5.84H52.24Zm115,107.83H111.56L52.24,102.34v87.81H4V2.22H73q41.15,0,61.64,13.28t20.49,40a44.68,44.68,0,0,1-14,33.12q-14,13.74-36.21,16Z"/><path class="a" d="M52.19,82.29h7.24q29.28,0,38.68-5.33t9.4-18.55q0-13.86-10.1-19.7t-38-5.84H52.19Zm115,107.83H111.51l-59.32-87.8v87.8H4V2.19H73q41.15,0,61.64,13.29t20.49,40a44.72,44.72,0,0,1-14,33.12q-14,13.74-36.21,16Z"/><path class="a" d="M52.14,82.26h7.24q29.26,0,38.67-5.33t9.4-18.54q0-13.87-10.09-19.71t-38-5.84H52.14Zm115,107.83H111.46l-59.32-87.8v87.8H3.9V2.16h69q41.15,0,61.63,13.29t20.5,40a44.69,44.69,0,0,1-14,33.12q-14,13.74-36.22,16Z"/><path class="a" d="M52.08,82.23h7.25q29.27,0,38.67-5.32t9.4-18.55q0-13.86-10.09-19.71t-38-5.84H52.08ZM167,190.06H111.41l-59.33-87.8v87.8H3.85V2.13h69q41.13,0,61.63,13.29t20.5,40a44.65,44.65,0,0,1-14,33.11q-14,13.74-36.21,16Z"/><path class="a" d="M52,82.2h7.24q29.28,0,38.68-5.32t9.4-18.55q0-13.86-10.09-19.7t-38-5.85H52ZM167,190H111.36L52,102.23V190H3.8V2.11h69q41.15,0,61.64,13.28t20.5,40a44.65,44.65,0,0,1-14,33.11q-14,13.74-36.21,16.05Z"/><path class="a" d="M52,82.18h7.24q29.28,0,38.68-5.33t9.4-18.55q0-13.86-10.09-19.7t-38-5.84H52ZM166.93,190H111.31L52,102.2V190H3.75V2.08h69q41.14,0,61.64,13.28t20.49,40a44.68,44.68,0,0,1-14,33.12q-14,13.73-36.21,16Z"/><path class="a" d="M51.93,82.15h7.24q29.28,0,38.68-5.33t9.4-18.55q0-13.86-10.09-19.7t-38-5.84H51.93ZM166.88,190H111.26l-59.33-87.8V190H3.7V2.05h69q41.15,0,61.64,13.28t20.49,40a44.68,44.68,0,0,1-14,33.12q-14,13.74-36.21,16Z"/><path class="a" d="M51.88,82.12h7.24q29.28,0,38.68-5.33t9.4-18.55q0-13.86-10.1-19.7t-38-5.84H51.88ZM166.83,190H111.2L51.88,102.14V190H3.65V2h69q41.14,0,61.64,13.29t20.49,40a44.68,44.68,0,0,1-14,33.12q-14,13.74-36.21,16Z"/><path class="a" d="M51.83,82.09h7.24q29.28,0,38.68-5.33t9.4-18.54q0-13.87-10.1-19.71t-38-5.84H51.83Zm115,107.83H111.15l-59.32-87.8v87.8H3.6V2h69q41.15,0,61.64,13.29t20.49,40a44.7,44.7,0,0,1-14,33.12q-14,13.74-36.21,16.05Z"/><path class="a" d="M51.78,82.06H59q29.26,0,38.67-5.32t9.4-18.55q0-13.87-10.09-19.71T59,32.64H51.78Zm115,107.83H111.1l-59.32-87.8v87.8H3.54V2h69q41.15,0,61.63,13.29t20.5,40a44.69,44.69,0,0,1-14,33.12q-14,13.74-36.21,16.05Z"/><path class="a" d="M51.72,82H59q29.27,0,38.67-5.32T107,58.16Q107,44.3,97,38.45T59,32.61H51.72Zm115,107.83H111.05l-59.33-87.8v87.8H3.49V1.93h69q41.13,0,61.63,13.29t20.5,40a44.65,44.65,0,0,1-14,33.11q-14,13.74-36.21,16.05Z"/><path class="a" d="M51.67,82h7.25q29.27,0,38.67-5.33T107,58.13q0-13.86-10.09-19.7t-38-5.84H51.67Zm115,107.82H111L51.67,102v87.8H3.44V1.91h69q41.15,0,61.64,13.28t20.5,40a44.69,44.69,0,0,1-14,33.12q-14,13.73-36.21,16Z"/><path class="a" d="M51.62,82h7.24q29.28,0,38.68-5.33t9.4-18.55q0-13.86-10.09-19.7t-38-5.84H51.62Zm115,107.82H111L51.62,102v87.8H3.39V1.88h69q41.15,0,61.64,13.28t20.49,40a44.68,44.68,0,0,1-14,33.12q-14,13.74-36.21,16Z"/><path class="a" d="M51.57,82h7.24q29.28,0,38.68-5.33t9.4-18.55q0-13.86-10.09-19.7t-38-5.84H51.57Zm115,107.83H110.9L51.57,102v87.81H3.34V1.85h69q41.14,0,61.64,13.29t20.49,40a44.68,44.68,0,0,1-14,33.12q-14,13.74-36.21,16Z"/><path class="a" d="M51.52,81.92h7.24q29.28,0,38.68-5.33T106.84,58q0-13.86-10.1-19.7t-38-5.84H51.52Zm115,107.83H110.84L51.52,102v87.8H3.29V1.82h69q41.15,0,61.64,13.29t20.49,40a44.66,44.66,0,0,1-14,33.12q-14,13.74-36.21,16.05Z"/><path class="a" d="M51.47,81.89h7.24q29.28,0,38.68-5.33T106.79,58q0-13.87-10.1-19.71t-38-5.84H51.47Zm115,107.83H110.79l-59.32-87.8v87.8H3.24V1.79h69q41.15,0,61.64,13.29t20.49,40a44.69,44.69,0,0,1-14,33.12q-14,13.74-36.21,16Z"/><path class="a" d="M51.42,81.86h7.24q29.28,0,38.68-5.32T106.73,58q0-13.86-10.09-19.71t-38-5.84H51.42Zm115,107.83H110.74l-59.32-87.8v87.8H3.18V1.76h69q41.15,0,61.63,13.29t20.5,40a44.68,44.68,0,0,1-14,33.11q-14,13.74-36.21,16Z"/><path class="a" d="M51.36,81.84h7.25q29.27,0,38.67-5.33T106.68,58q0-13.86-10.09-19.7t-38-5.85H51.36Zm115,107.82H110.69l-59.33-87.8v87.8H3.13V1.74h69q41.15,0,61.63,13.28t20.5,40a44.72,44.72,0,0,1-14,33.12q-14,13.73-36.22,16Z"/><path class="a" d="M51.31,81.81h7.25q29.26,0,38.67-5.33t9.4-18.55q0-13.86-10.09-19.7t-38-5.84H51.31Zm115,107.82H110.64l-59.33-87.8v87.8H3.08V1.71h69q41.13,0,61.63,13.28t20.5,40a44.69,44.69,0,0,1-14,33.12q-14,13.73-36.21,16Z"/><path class="a" d="M51.26,81.78H58.5q29.28,0,38.68-5.33t9.4-18.55q0-13.86-10.09-19.7t-38-5.84H51.26Zm115,107.83H110.59L51.26,101.8v87.81H3V1.68h69Q113.2,1.68,133.7,15t20.49,40a44.68,44.68,0,0,1-14,33.12q-14,13.74-36.21,16Z"/><path class="a" d="M51.21,81.75h7.24q29.28,0,38.68-5.33t9.4-18.55q0-13.86-10.09-19.7t-38-5.84H51.21Zm115,107.83H110.54L51.21,101.77v87.81H3V1.65H72q41.15,0,61.64,13.29t20.49,40a44.68,44.68,0,0,1-14,33.12q-14,13.74-36.21,16Z"/><path class="a" d="M51.16,81.72H58.4q29.28,0,38.68-5.33t9.4-18.54q0-13.87-10.09-19.71t-38-5.84H51.16Zm115,107.83H110.48l-59.32-87.8v87.8H2.93V1.62H72q41.15,0,61.64,13.29t20.49,40a44.65,44.65,0,0,1-14,33.12q-14,13.74-36.21,16Z"/><path class="a" d="M51.11,81.69h7.24q29.28,0,38.68-5.32t9.4-18.55q0-13.87-10.1-19.71t-38-5.84H51.11Zm115,107.83H110.43l-59.32-87.8v87.8H2.88V1.59h69q41.15,0,61.64,13.29t20.49,40A44.69,44.69,0,0,1,140,88q-14,13.74-36.21,16Z"/><path class="a" d="M51.06,81.66H58.3q29.28,0,38.68-5.32t9.4-18.55q0-13.86-10.1-19.7t-38-5.85H51.06ZM166,189.49H110.38l-59.32-87.8v87.8H2.83V1.56h69q41.15,0,61.64,13.29t20.49,40A44.68,44.68,0,0,1,140,88q-14,13.74-36.21,16Z"/><path class="a" d="M51,81.64h7.24q29.27,0,38.67-5.33t9.4-18.55q0-13.86-10.09-19.7t-38-5.84H51ZM166,189.46H110.33L51,101.66v87.8H2.77V1.54h69q41.14,0,61.63,13.28t20.5,40a44.72,44.72,0,0,1-14,33.12q-14,13.72-36.22,16Z"/><path class="a" d="M51,81.61H58.2q29.26,0,38.67-5.33t9.4-18.55q0-13.86-10.09-19.7t-38-5.84H51Zm115,107.82H110.28L51,101.63v87.8H2.72V1.51h69q41.13,0,61.63,13.28t20.5,40a44.69,44.69,0,0,1-14,33.12q-14,13.74-36.21,16Z"/><path class="a" d="M50.9,81.58h7.24q29.28,0,38.68-5.33t9.4-18.55q0-13.86-10.09-19.7t-38-5.84H50.9Zm115,107.83H110.23L50.9,101.6v87.81H2.67V1.48h69q41.15,0,61.64,13.29t20.5,40a44.69,44.69,0,0,1-14,33.12q-14,13.74-36.21,16Z"/><path class="a" d="M50.85,81.55h7.24q29.28,0,38.68-5.33t9.4-18.55q0-13.86-10.09-19.7t-38-5.84H50.85Zm115,107.83H110.18l-59.33-87.8v87.8H2.62V1.45h69q41.14,0,61.64,13.29t20.49,40a44.66,44.66,0,0,1-14,33.12q-14,13.74-36.21,16Z"/><path class="a" d="M50.8,81.52H58q29.28,0,38.68-5.33t9.4-18.54q0-13.87-10.09-19.71T58,32.1H50.8Zm115,107.83H110.13L50.8,101.55v87.8H2.57V1.42h69q41.15,0,61.64,13.29t20.49,40a44.65,44.65,0,0,1-14,33.12q-14,13.74-36.21,16Z"/><path class="a" d="M50.75,81.49H58q29.28,0,38.68-5.32t9.4-18.55q0-13.86-10.1-19.71T58,32.07H50.75Zm115,107.83H110.07l-59.32-87.8v87.8H2.52V1.39h69q41.15,0,61.64,13.29t20.49,40a44.64,44.64,0,0,1-14,33.11q-14,13.74-36.21,16Z"/><path class="a" d="M50.7,81.47h7.24q29.28,0,38.68-5.33T106,57.59q0-13.86-10.1-19.7t-38-5.84H50.7Zm115,107.82H110L50.7,101.49v87.8H2.47V1.37h69q41.15,0,61.64,13.28t20.49,40a44.72,44.72,0,0,1-14,33.12q-14,13.72-36.21,16Z"/><path class="a" d="M50.65,81.44h7.24q29.27,0,38.67-5.33T106,57.56q0-13.86-10.09-19.7T57.89,32H50.65Zm115,107.82H110l-59.32-87.8v87.8H2.41V1.34h69q41.15,0,61.63,13.28t20.5,40a44.72,44.72,0,0,1-14,33.12q-14,13.72-36.22,16Z"/><path class="a" d="M50.59,81.41h7.25q29.26,0,38.67-5.33t9.4-18.55q0-13.86-10.09-19.7T57.84,32H50.59Zm115,107.83H109.92L50.59,101.43v87.81H2.36V1.31h69q41.13,0,61.63,13.28t20.5,40a44.69,44.69,0,0,1-14,33.12q-14,13.74-36.21,16Z"/><path class="a" d="M50.54,81.38h7.25q29.26,0,38.67-5.33t9.4-18.55q0-13.86-10.09-19.7T57.79,32H50.54Zm115,107.83H109.87l-59.33-87.8v87.8H2.31V1.28h69q41.14,0,61.64,13.29t20.5,40a44.69,44.69,0,0,1-14,33.12q-14,13.74-36.21,16Z"/><path class="a" d="M50.49,81.35h7.24Q87,81.35,96.41,76t9.4-18.54q0-13.87-10.09-19.71t-38-5.84H50.49Zm115,107.83H109.82l-59.33-87.8v87.8H2.26V1.25h69q41.15,0,61.64,13.29t20.49,40a44.65,44.65,0,0,1-14,33.12q-14,13.74-36.21,16Z"/><path class="a" d="M50.44,81.32h7.24Q87,81.32,96.36,76t9.4-18.55q0-13.87-10.09-19.71t-38-5.84H50.44Zm115,107.83H109.77l-59.33-87.8v87.8H2.21V1.22h69q41.15,0,61.64,13.29t20.49,40a44.65,44.65,0,0,1-14,33.12q-14,13.74-36.21,16Z"/><path class="a" d="M50.39,81.29h7.24q29.28,0,38.68-5.32t9.4-18.55q0-13.86-10.1-19.7t-38-5.85H50.39Zm115,107.83H109.71l-59.32-87.8v87.8H2.16V1.19h69q41.15,0,61.64,13.29t20.49,40a44.64,44.64,0,0,1-14,33.11q-14,13.74-36.21,16Z"/><path class="a" d="M50.34,81.27h7.24q29.28,0,38.68-5.33t9.4-18.55q0-13.86-10.1-19.7t-38-5.84H50.34Zm115,107.82H109.66l-59.32-87.8v87.8H2.11V1.17h69q41.15,0,61.64,13.28t20.49,40a44.72,44.72,0,0,1-14,33.12q-14,13.72-36.21,16Z"/><path class="a" d="M50.29,81.24h7.24q29.27,0,38.68-5.33t9.39-18.55q0-13.86-10.09-19.7t-38-5.84H50.29Zm115,107.82H109.61l-59.32-87.8v87.8H2.05V1.14h69q41.14,0,61.63,13.28t20.5,40a44.72,44.72,0,0,1-14,33.12q-14,13.74-36.21,16Z"/><path class="a" d="M50.23,81.21h7.25q29.26,0,38.67-5.33t9.4-18.55q0-13.86-10.09-19.7t-38-5.84H50.23ZM165.19,189H109.56L50.23,101.23V189H2V1.11H71q41.15,0,61.63,13.29t20.5,40a44.69,44.69,0,0,1-14,33.12q-14,13.74-36.21,16Z"/><path class="a" d="M50.18,81.18h7.25q29.26,0,38.67-5.33t9.4-18.55q0-13.86-10.09-19.7t-38-5.84H50.18ZM165.14,189H109.51l-59.33-87.8V189H2V1.08H71q41.13,0,61.63,13.29t20.5,40a44.67,44.67,0,0,1-14,33.12q-14,13.74-36.21,16Z"/><path class="a" d="M50.13,81.15h7.24q29.28,0,38.68-5.32t9.4-18.55q0-13.87-10.09-19.71t-38-5.84H50.13ZM165.08,189H109.46l-59.33-87.8V189H1.9V1.05h69q41.14,0,61.64,13.29t20.49,40a44.65,44.65,0,0,1-14,33.12q-14,13.74-36.21,16Z"/><path class="a" d="M50.08,81.12h7.24Q86.6,81.12,96,75.8t9.4-18.55q0-13.86-10.09-19.71t-38-5.84H50.08ZM165,189H109.41l-59.33-87.8V189H1.85V1h69Q112,1,132.52,14.31T153,54.3a44.64,44.64,0,0,1-14,33.11q-14,13.74-36.21,16Z"/><path class="a" d="M50,81.1h7.24q29.28,0,38.68-5.33t9.4-18.55q0-13.86-10.1-19.7t-38-5.84H50ZM165,188.92H109.35L50,101.12v87.8H1.8V1h69Q112,1,132.47,14.28t20.49,40a44.68,44.68,0,0,1-14,33.12q-14,13.73-36.21,16Z"/><path class="a" d="M50,81.07h7.24q29.28,0,38.68-5.33t9.4-18.55q0-13.86-10.1-19.7t-38-5.84H50Zm115,107.82H109.3L50,101.09v87.8H1.75V1h69q41.14,0,61.64,13.28t20.49,40a44.72,44.72,0,0,1-14,33.12q-14,13.74-36.21,16Z"/><path class="a" d="M49.93,81h7.24q29.28,0,38.68-5.33t9.39-18.55q0-13.86-10.09-19.7t-38-5.84H49.93Zm115,107.83H109.25L49.93,101.06v87.81H1.7V.94h69q41.15,0,61.64,13.28t20.49,40a44.72,44.72,0,0,1-14,33.12q-14,13.74-36.21,16Z"/><path class="a" d="M49.88,81h7.24q29.26,0,38.67-5.33t9.4-18.55q0-13.86-10.09-19.7t-38-5.84H49.88Zm115,107.83H109.2L49.88,101v87.8H1.64V.91h69q41.14,0,61.63,13.29t20.5,40a44.72,44.72,0,0,1-14,33.12q-14,13.74-36.22,16Z"/><path class="a" d="M49.82,81h7.25q29.26,0,38.67-5.33t9.4-18.54q0-13.87-10.09-19.71t-38-5.84H49.82Zm115,107.83H109.15L49.82,101v87.8H1.59V.88h69q41.13,0,61.63,13.29t20.5,40a44.66,44.66,0,0,1-14,33.12q-14,13.74-36.21,16Z"/><path class="a" d="M49.77,81H57q29.28,0,38.68-5.32t9.4-18.55q0-13.87-10.09-19.71T57,31.53H49.77Zm115,107.83H109.1L49.77,101v87.8H1.54V.85h69q41.15,0,61.64,13.29t20.5,40a44.66,44.66,0,0,1-14,33.12q-14,13.74-36.21,16.05Z"/><path class="a" d="M49.72,80.92H57q29.28,0,38.68-5.32T105,57.05Q105,43.19,95,37.35T57,31.5H49.72Zm115,107.83H109.05L49.72,101v87.8H1.49V.83h69q41.15,0,61.64,13.28t20.49,40a44.64,44.64,0,0,1-14,33.11q-14,13.74-36.21,16.05Z"/><path class="a" d="M49.67,80.9h7.24q29.28,0,38.68-5.33T105,57q0-13.86-10.09-19.7t-38-5.84H49.67Zm115,107.82H109l-59.32-87.8v87.8H1.44V.8h69q41.15,0,61.64,13.28t20.49,40a44.68,44.68,0,0,1-14,33.12q-14,13.73-36.21,16Z"/><path class="a" d="M49.62,80.87h7.24q29.28,0,38.68-5.33T104.94,57q0-13.86-10.1-19.7t-38-5.84H49.62Zm115,107.82H108.94l-59.32-87.8v87.8H1.39V.77h69q41.15,0,61.64,13.28t20.49,40a44.68,44.68,0,0,1-14,33.12q-14,13.74-36.21,16Z"/><path class="a" d="M49.57,80.84h7.24q29.28,0,38.68-5.33T104.89,57q0-13.86-10.1-19.7t-38-5.84H49.57Zm115,107.83H108.89L49.57,100.86v87.81H1.34V.74h69Q111.51.74,132,14T152.5,54a44.72,44.72,0,0,1-14,33.12q-14,13.74-36.21,16.05Z"/><path class="a" d="M49.52,80.81h7.24q29.26,0,38.67-5.33t9.4-18.55q0-13.86-10.09-19.7t-38-5.84H49.52Zm115,107.83H108.84l-59.32-87.8v87.8H1.28V.71h69Q111.47.71,132,14t20.5,40a44.7,44.7,0,0,1-14,33.12q-14,13.74-36.22,16.05Z"/><path class="a" d="M49.46,80.78h7.25q29.26,0,38.67-5.32t9.4-18.55q0-13.87-10.09-19.71t-38-5.84H49.46Zm115,107.83H108.79l-59.33-87.8v87.8H1.23V.68h69Q111.4.68,131.9,14t20.5,40a44.66,44.66,0,0,1-14,33.12q-14,13.74-36.21,16.05Z"/><path class="a" d="M49.41,80.75h7.25q29.27,0,38.67-5.32t9.4-18.55q0-13.86-10.09-19.71t-38-5.84H49.41Zm115,107.83H108.74l-59.33-87.8v87.8H1.18V.65h69q41.15,0,61.64,13.29t20.5,40a44.65,44.65,0,0,1-14,33.11q-14,13.74-36.21,16Z"/><path class="a" d="M49.36,80.73H56.6q29.28,0,38.68-5.33t9.4-18.55q0-13.86-10.09-19.7t-38-5.84H49.36Zm115,107.82H108.69l-59.33-87.8v87.8H1.13V.63h69q41.15,0,61.64,13.28t20.49,40a44.68,44.68,0,0,1-14,33.12q-14,13.73-36.21,16Z"/><path class="a" d="M49.31,80.7h7.24q29.28,0,38.68-5.33t9.4-18.55q0-13.86-10.09-19.7t-38-5.84H49.31Zm115,107.82H108.64l-59.33-87.8v87.8H1.08V.6h69q41.15,0,61.64,13.28t20.49,40a44.68,44.68,0,0,1-14,33.12q-14,13.74-36.21,16Z"/><path class="a" d="M49.26,80.67H56.5q29.28,0,38.68-5.33t9.4-18.55q0-13.86-10.1-19.7t-38-5.84H49.26Zm115,107.83H108.58L49.26,100.69V188.5H1V.57h69q41.14,0,61.64,13.29t20.49,40a44.68,44.68,0,0,1-14,33.12q-14,13.74-36.21,16Z"/><path class="a" d="M49.21,80.64h7.24q29.28,0,38.68-5.33t9.4-18.55q0-13.86-10.1-19.7t-38-5.84H49.21Zm115,107.83H108.53l-59.32-87.8v87.8H1V.54H70q41.15,0,61.64,13.29t20.49,40a44.72,44.72,0,0,1-14,33.12q-14,13.74-36.21,16Z"/><path class="a" d="M49.16,80.61H56.4q29.26,0,38.68-5.33t9.39-18.54q0-13.87-10.09-19.71t-38-5.84H49.16Zm115,107.83H108.48l-59.32-87.8v87.8H.92V.51H70q41.15,0,61.63,13.29t20.5,40a44.69,44.69,0,0,1-14,33.12q-14,13.74-36.21,16Z"/><path class="a" d="M49.1,80.58h7.25q29.26,0,38.67-5.32t9.4-18.55q0-13.86-10.09-19.71t-38-5.84H49.1Zm115,107.83H108.43L49.1,100.61v87.8H.87V.48h69q41.15,0,61.63,13.29t20.5,40a44.65,44.65,0,0,1-14,33.11q-14,13.74-36.21,16Z"/><path class="a" d="M49.05,80.55H56.3q29.27,0,38.67-5.32t9.4-18.55q0-13.86-10.09-19.7t-38-5.85H49.05ZM164,188.38H108.38l-59.33-87.8v87.8H.82V.46h69q41.13,0,61.63,13.28t20.5,40a44.65,44.65,0,0,1-14,33.11q-14,13.74-36.21,16Z"/><path class="a" d="M49,80.53h7.24q29.28,0,38.68-5.33t9.4-18.55q0-13.86-10.09-19.7t-38-5.84H49ZM164,188.35H108.33L49,100.55v87.8H.77V.43h69q41.15,0,61.64,13.28t20.49,40a44.68,44.68,0,0,1-14,33.12q-14,13.73-36.21,16Z"/><path class="a" d="M49,80.5h7.24q29.28,0,38.68-5.33t9.4-18.55q0-13.86-10.09-19.7t-38-5.84H49Zm115,107.83H108.28L49,100.52v87.81H.72V.4h69q41.15,0,61.64,13.28t20.49,40a44.68,44.68,0,0,1-14,33.12q-14,13.74-36.21,16Z"/><path class="a" d="M48.9,80.47h7.24q29.28,0,38.68-5.33t9.4-18.55q0-13.86-10.1-19.7t-38-5.84H48.9Zm115,107.83H108.22L48.9,100.49V188.3H.67V.37h69q41.15,0,61.64,13.29t20.49,40a44.68,44.68,0,0,1-14,33.12q-14,13.74-36.21,16Z"/><path class="a" d="M48.85,80.44h7.24q29.28,0,38.68-5.33t9.4-18.54q0-13.87-10.1-19.71T56.09,31H48.85Zm115,107.83H108.17l-59.32-87.8v87.8H.62V.34h69q41.14,0,61.64,13.29t20.49,40a44.7,44.7,0,0,1-14,33.12q-14,13.74-36.21,16Z"/><path class="a" d="M48.8,80.41H56q29.28,0,38.68-5.32t9.39-18.55q0-13.87-10.09-19.71T56,31H48.8Zm115,107.83H108.12L48.8,100.44v87.8H.57V.31h69q41.15,0,61.63,13.29t20.5,40a44.69,44.69,0,0,1-14,33.12q-14,13.74-36.21,16Z"/><path class="a" d="M48.75,80.38H56q29.26,0,38.67-5.32t9.4-18.55q0-13.86-10.09-19.71T56,31H48.75Zm115,107.83H108.07l-59.32-87.8v87.8H.51V.28h69q41.15,0,61.63,13.29t20.5,40a44.68,44.68,0,0,1-14,33.11q-14,13.74-36.22,16Z"/><path class="a" d="M48.69,80.36h7.25q29.27,0,38.67-5.33T104,56.48q0-13.86-10.09-19.7t-38-5.84H48.69Zm115,107.82H108l-59.33-87.8v87.8H.46V.26h69q41.13,0,61.63,13.28t20.5,40a44.69,44.69,0,0,1-14,33.12q-14,13.72-36.21,16Z"/><path class="a" d="M48.64,80.33h7.24q29.28,0,38.68-5.33T104,56.45q0-13.86-10.09-19.7t-38-5.84H48.64Zm115,107.82H108l-59.33-87.8v87.8H.41V.23h69q41.15,0,61.64,13.28t20.5,40a44.69,44.69,0,0,1-14,33.12q-14,13.74-36.21,16Z"/><path class="a" d="M48.59,80.3h7.24q29.28,0,38.68-5.33t9.4-18.55q0-13.86-10.09-19.7t-38-5.84H48.59Zm115,107.83H107.92L48.59,100.32v87.81H.36V.2h69Q110.54.2,131,13.49t20.49,40a44.68,44.68,0,0,1-14,33.12q-14,13.74-36.21,16Z"/><path class="a" d="M48.54,80.27h7.24q29.28,0,38.68-5.33t9.4-18.55q0-13.86-10.09-19.7t-38-5.84H48.54Zm115,107.83H107.86L48.54,100.3v87.8H.31V.17h69Q110.48.17,131,13.46t20.49,40a44.66,44.66,0,0,1-14,33.12q-14,13.74-36.21,16Z"/><path class="a" d="M48.49,80.24h7.24q29.28,0,38.68-5.33t9.4-18.54q0-13.87-10.1-19.71t-38-5.84H48.49Zm115,107.83H107.81l-59.32-87.8v87.8H.26V.14h69q41.15,0,61.64,13.29t20.49,40a44.65,44.65,0,0,1-14,33.12q-14,13.74-36.21,16Z"/><path class="a" d="M48.44,80.21h7.24q29.28,0,38.68-5.32t9.4-18.55q0-13.86-10.1-19.71t-38-5.84H48.44ZM163.39,188H107.76l-59.32-87.8V188H.21V.11h69q41.15,0,61.64,13.29t20.49,40a44.68,44.68,0,0,1-14,33.11q-14,13.74-36.21,16Z"/><path class="a" d="M48.39,80.18h7.24q29.26,0,38.67-5.32t9.4-18.55q0-13.86-10.09-19.7t-38-5.84H48.39ZM163.34,188H107.71l-59.32-87.8V188H.15V.09h69q41.15,0,61.63,13.28t20.5,40a44.68,44.68,0,0,1-14,33.11q-14,13.74-36.22,16Z"/><path class="a" d="M48.33,80.16h7.25q29.27,0,38.67-5.33t9.4-18.55q0-13.86-10.09-19.7t-38-5.84H48.33ZM163.29,188H107.66l-59.33-87.8V188H.1V.06h69q41.13,0,61.63,13.28t20.5,40a44.69,44.69,0,0,1-14,33.12q-14,13.72-36.21,16Z"/><path class="a" d="M48.28,80.13h7.25q29.27,0,38.67-5.33t9.4-18.55q0-13.86-10.09-19.7t-38-5.84H48.28ZM163.23,188H107.61L48.28,100.15V188H.05V0h69q41.15,0,61.64,13.28t20.5,40a44.69,44.69,0,0,1-14,33.12q-14,13.74-36.21,16Z"/><path class="a" d="M48.23,80.1h7.24q29.28,0,38.68-5.33t9.4-18.55q0-13.86-10.09-19.7t-38-5.84H48.23Zm115,107.83H107.56L48.23,100.12v87.81H0V0H69q41.14,0,61.64,13.29t20.49,40a44.68,44.68,0,0,1-14,33.12q-14,13.74-36.21,16Z"/><path class="b" d="M163.18,187.93H107.56L48.23,100.12v87.81H0V0H69q41.14,0,61.64,13.29t20.49,40a44.68,44.68,0,0,1-14,33.12q-14,13.74-36.21,16ZM48.23,80.1h7.24q29.28,0,38.68-5.33t9.4-18.55q0-13.86-10.09-19.7t-38-5.84H48.23Z"/></svg>